<svg xmlns="http://www.w3.org/2000/svg" width="184" height="74" fill="none"><circle cx="41.167" cy="37.208" r="16.833" stroke="#fff" stroke-width="3"/><path stroke="#fff" stroke-width="3" d="M47.767 43.808c-3.423 3.423-7.293 5.648-10.723 6.53-3.468.892-6.191.361-7.78-1.227-1.588-1.588-2.119-4.312-1.227-7.78.882-3.43 3.107-7.3 6.53-10.723 3.424-3.423 7.294-5.649 10.724-6.53 3.468-.892 6.191-.361 7.78 1.227 1.588 1.588 2.119 4.312 1.227 7.78-.882 3.43-3.108 7.3-6.53 10.723Z"/><path stroke="#fff" stroke-width="3" d="M47.767 30.609c3.423 3.423 5.648 7.293 6.53 10.723.892 3.468.361 6.191-1.227 7.78-1.589 1.588-4.312 2.119-7.78 1.227-3.43-.882-7.3-3.107-10.723-6.53-3.423-3.424-5.649-7.294-6.53-10.724-.892-3.468-.361-6.191 1.227-7.78 1.588-1.588 4.312-2.119 7.78-1.227 3.43.882 7.3 3.108 10.723 6.53Z"/><path fill="#fff" d="M75.209 45.534c3.925 0 6.575-2.05 6.575-5.325 0-6.925-9.2-3.975-9.2-7.625 0-1.025.925-1.725 2.4-1.725 1.675 0 2.725.9 2.85 2.275h3.575c-.1-3.325-2.65-5.5-6.425-5.5-3.55 0-6.05 2.05-6.05 4.95 0 6.875 9.075 4.25 9.075 7.675 0 1.325-1.125 2.025-2.8 2.025-1.85 0-3.025-1.125-3.175-2.9h-3.6c.15 3.725 2.8 6.15 6.775 6.15Zm7.425 4.9h3.475v-6.225c.675.85 1.9 1.325 3.325 1.325 3.625 0 6.075-2.575 6.075-6.5s-2.25-6.5-5.775-6.5c-1.625 0-2.875.6-3.625 1.575v-1.375h-3.475v17.7Zm6.375-7.9c-1.875 0-3.1-1.4-3.1-3.5 0-2.125 1.225-3.525 3.1-3.525 1.825 0 3.075 1.4 3.075 3.525 0 2.1-1.25 3.5-3.075 3.5Zm7.341 2.8h3.475v-6.9c0-1.625 1.075-2.8 2.6-2.8 1.45 0 2.45 1.1 2.45 2.625v7.075h3.475v-7.85c0-2.9-1.85-4.95-4.675-4.95-1.75 0-3.125.725-3.85 1.95v-7.225H96.35v18.075Zm21.721-4.275c-.275 1.075-1.2 1.625-2.6 1.625-1.75 0-2.875-1.1-3.125-2.875h9.05c.025-.275.05-.65.05-1.125 0-2.875-1.775-6.15-6.225-6.15-4.275 0-6.225 3.275-6.225 6.475 0 3.175 2.2 6.525 6.475 6.525 3.1 0 5.5-1.75 6-4.475h-3.4Zm-2.85-5.975c1.675 0 2.65 1.125 2.75 2.525h-5.575c.3-1.75 1.25-2.525 2.825-2.525Zm15.338.55v-2.9h-1.793c-1.525 0-2.475.525-3.15 2.1v-2.1h-3.5v12.6h3.5v-6.125c0-2.15.775-3.575 2.5-3.575h2.443Zm12-2.9h-3.5v6.9c0 1.6-1.075 2.8-2.6 2.8-1.425 0-2.425-1.1-2.425-2.625v-7.075h-3.475v7.85c0 2.875 1.85 4.95 4.675 4.95 1.725 0 3.125-.75 3.825-1.95v1.75h3.5v-12.6Zm1.501 12.6h3.475V27.259h-3.475v18.075Zm13.395-4.275c-.275 1.075-1.2 1.625-2.6 1.625-1.75 0-2.875-1.1-3.125-2.875h9.05c.025-.275.05-.65.05-1.125 0-2.875-1.775-6.15-6.225-6.15-4.275 0-6.225 3.275-6.225 6.475 0 3.175 2.2 6.525 6.475 6.525 3.1 0 5.5-1.75 6-4.475h-3.4Zm-2.85-5.975c1.675 0 2.65 1.125 2.75 2.525h-5.575c.3-1.75 1.25-2.525 2.825-2.525Z"/></svg>