<svg xmlns="http://www.w3.org/2000/svg" width="184" height="74" fill="none"><path fill="#fff" d="M44.167 18.667c-10.125 0-18.333 8.208-18.333 18.333 0 10.126 8.208 18.334 18.333 18.334 9.084 0 16.625-6.607 18.08-15.278h-.131c-1.357 5.271-6.142 9.166-11.838 9.166-6.75 0-12.222-5.471-12.222-12.222 0-6.75 5.472-12.222 12.222-12.222 5.696 0 10.48 3.895 11.838 9.167h.131c-1.455-8.671-8.995-15.278-18.08-15.278Z" opacity=".8"/><path fill="#fff" d="M25.834 37c0-10.125 8.208-18.333 18.333-18.333 9.084 0 16.625 6.607 18.08 15.278H49.893c-1.356-5.272-6.142-9.167-11.837-9.167-6.75 0-12.222 5.472-12.222 12.222Zm0 0c0 10.126 8.208 18.334 18.333 18.334 9.084 0 16.625-6.607 18.08-15.278H49.893c-1.356 5.272-6.142 9.167-11.837 9.167-6.75 0-12.222-5.472-12.222-12.222Zm62.864-2.91c-.522-3.77-3.422-5.958-7.184-5.958-4.433 0-7.772 3.231-7.772 8.717 0 5.477 3.298 8.717 7.772 8.717 4.036 0 6.712-2.61 7.184-5.85l-3.099-.017c-.389 1.989-2.013 3.107-4.043 3.107-2.751 0-4.723-2.063-4.723-5.957 0-3.828 1.955-5.958 4.731-5.958 2.063 0 3.68 1.168 4.035 3.199h3.1Zm6.345 11.5c1.997 0 3.19-.936 3.737-2.005h.1v1.748h2.883v-8.517c0-3.365-2.742-4.376-5.17-4.376-2.677 0-4.731 1.194-5.394 3.514l2.8.398c.299-.87 1.144-1.616 2.61-1.616 1.392 0 2.155.712 2.155 1.964v.05c0 .861-.903.902-3.149 1.143-2.47.265-4.83 1.002-4.83 3.87 0 2.502 1.83 3.827 4.258 3.827Zm.78-2.204c-1.252 0-2.147-.571-2.147-1.673 0-1.152 1.003-1.633 2.345-1.823.787-.108 2.362-.307 2.751-.622v1.5c0 1.417-1.143 2.618-2.95 2.618Zm15.312-10.78h-2.511v-3.049h-2.999v3.05h-1.807v2.32h1.807v7.076c-.017 2.394 1.723 3.57 3.977 3.505a6.03 6.03 0 0 0 1.765-.299l-.506-2.345a3.732 3.732 0 0 1-.878.116c-.754 0-1.359-.265-1.359-1.475v-6.579h2.511v-2.32Zm6.171 12.984c1.997 0 3.19-.936 3.737-2.005h.099v1.748h2.884v-8.517c0-3.365-2.743-4.376-5.171-4.376-2.676 0-4.731 1.194-5.394 3.514l2.801.398c.298-.87 1.143-1.616 2.61-1.616 1.392 0 2.154.712 2.154 1.964v.05c0 .861-.903.902-3.149 1.143-2.469.265-4.83 1.002-4.83 3.87 0 2.502 1.831 3.827 4.259 3.827Zm.779-2.204c-1.252 0-2.146-.571-2.146-1.673 0-1.152 1.002-1.633 2.344-1.823.788-.108 2.362-.307 2.751-.622v1.5c0 1.417-1.143 2.618-2.949 2.618Zm11.956-15.022h-2.999v16.97h2.999v-16.97Zm8.636 17.218c3.729 0 6.099-2.627 6.099-6.562 0-3.945-2.37-6.58-6.099-6.58-3.728 0-6.098 2.636-6.098 6.58 0 3.935 2.37 6.562 6.098 6.562Zm.017-2.403c-2.063 0-3.074-1.84-3.074-4.168 0-2.328 1.011-4.192 3.074-4.192 2.03 0 3.041 1.864 3.041 4.192 0 2.329-1.011 4.168-3.041 4.168Zm14.163 7.192c3.438 0 5.974-1.574 5.974-4.83V32.606h-2.958v2.105h-.166c-.456-.92-1.408-2.27-3.654-2.27-2.942 0-5.253 2.303-5.253 6.487 0 4.152 2.311 6.223 5.245 6.223 2.179 0 3.198-1.168 3.662-2.104h.149v2.41c0 1.873-1.243 2.644-2.95 2.644-1.806 0-2.601-.853-2.966-1.6l-2.701.656c.547 1.78 2.378 3.214 5.618 3.214Zm.025-7.573c-1.981 0-3.025-1.541-3.025-3.886 0-2.312 1.028-4.01 3.025-4.01 1.93 0 2.991 1.599 2.991 4.01 0 2.428-1.077 3.886-2.991 3.886Z"/></svg>