<svg width="49" height="49" viewBox="0 0 49 49" fill="none" xmlns="http://www.w3.org/2000/svg">
<g clip-path="url(#clip0_1034_457)">
<g clip-path="url(#clip1_1034_457)">
<g clip-path="url(#clip2_1034_457)">
<path d="M23.9951 28.9936L16.1271 24.5676C16.0408 24.5196 15.9648 24.4549 15.9035 24.3774C15.8423 24.2999 15.7969 24.2111 15.7701 24.116C15.7432 24.0209 15.7355 23.9214 15.7472 23.8233C15.7589 23.7252 15.7899 23.6304 15.8384 23.5443C15.8869 23.4582 15.9519 23.3826 16.0297 23.3217C16.1075 23.2608 16.1966 23.2159 16.2918 23.1895C16.387 23.1631 16.4865 23.1559 16.5846 23.1681C16.6826 23.1803 16.7773 23.2117 16.8631 23.2606L24.7451 27.6946L35.9801 21.3746L24.7451 15.0566L12.7451 21.8066V35.3066L23.9951 41.6356V28.9936Z" fill="#7C43FF"/>
<path d="M25.4951 28.9931V41.6331L36.7451 35.3041V22.6641L25.4951 28.9941V28.9931Z" fill="#7C43FF"/>
<path d="M43.4951 10.5547H35.9951V6.05469C35.9951 3.57269 33.9771 1.55469 31.4951 1.55469H17.9951C16.802 1.55575 15.658 2.03019 14.8143 2.87388C13.9706 3.71756 13.4962 4.86154 13.4951 6.05469V10.5547H5.99512C4.60322 10.5563 3.26878 11.1099 2.28456 12.0941C1.30034 13.0784 0.746705 14.4128 0.745117 15.8047L0.745117 31.5547C0.745117 31.7536 0.824135 31.9444 0.964787 32.085C1.10544 32.2257 1.2962 32.3047 1.49512 32.3047H2.99512V41.3047C2.99777 42.6955 3.55199 44.0285 4.53622 45.0112C5.52044 45.994 6.85428 46.5462 8.24512 46.5467H41.2451C42.636 46.5462 43.9698 45.994 44.954 45.0112C45.9382 44.0285 46.4925 42.6955 46.4951 41.3047V32.3047H47.9951C48.194 32.3047 48.3848 32.2257 48.5254 32.085C48.6661 31.9444 48.7451 31.7536 48.7451 31.5547V15.8047C48.7435 14.4128 48.1899 13.0784 47.2057 12.0941C46.2215 11.1099 44.887 10.5563 43.4951 10.5547ZM14.9951 6.05469C14.9951 4.40069 16.3401 3.05469 17.9951 3.05469H31.4951C33.1491 3.05469 34.4951 4.40069 34.4951 6.05469V10.5547H32.2451V6.05469C32.2451 5.85578 32.1661 5.66501 32.0254 5.52436C31.8848 5.38371 31.694 5.30469 31.4951 5.30469H17.9951C17.7962 5.30469 17.6054 5.38371 17.4648 5.52436C17.3241 5.66501 17.2451 5.85578 17.2451 6.05469V10.5547H14.9951V6.05469ZM18.7451 10.5547V6.80469H30.7451V10.5547H18.7451ZM47.2451 30.8047H39.7451C39.5462 30.8047 39.3554 30.8837 39.2148 31.0244C39.0741 31.165 38.9951 31.3558 38.9951 31.5547C38.9951 31.7536 39.0741 31.9444 39.2148 32.085C39.3554 32.2257 39.5462 32.3047 39.7451 32.3047H44.9951V41.3047C44.993 42.2979 44.597 43.2496 43.8939 43.9512C43.1909 44.6527 42.2383 45.0467 41.2451 45.0467H8.24512C7.25194 45.0467 6.29932 44.6527 5.59629 43.9512C4.89326 43.2496 4.49724 42.2979 4.49512 41.3047V32.3047H9.74512C9.94403 32.3047 10.1348 32.2257 10.2754 32.085C10.4161 31.9444 10.4951 31.7536 10.4951 31.5547C10.4951 31.3558 10.4161 31.165 10.2754 31.0244C10.1348 30.8837 9.94403 30.8047 9.74512 30.8047H2.24512V15.8047C2.24618 14.8105 2.6416 13.8572 3.34464 13.1542C4.04767 12.4512 5.00088 12.0557 5.99512 12.0547H43.4951C44.4894 12.0557 45.4426 12.4512 46.1456 13.1542C46.8486 13.8572 47.2441 14.8105 47.2451 15.8047V30.8047Z" fill="white" fill-opacity="0.2"/>
</g>
</g>
</g>
<defs>
<clipPath id="clip0_1034_457">
<rect width="48" height="48" fill="white" transform="translate(0.745117 0.0546875)"/>
</clipPath>
<clipPath id="clip1_1034_457">
<rect width="48" height="48" fill="white" transform="translate(0.745117 0.0546875)"/>
</clipPath>
<clipPath id="clip2_1034_457">
<rect width="48" height="48" fill="white" transform="translate(0.745117 0.0546875)"/>
</clipPath>
</defs>
</svg>
