<svg xmlns="http://www.w3.org/2000/svg" width="48" height="49" fill="none"><g clip-path="url(#a)"><path fill="#9C69ED" d="M23.25 25.25v15.826a3.756 3.756 0 0 0-3 3.674A3.754 3.754 0 0 0 24 48.5a3.754 3.754 0 0 0 3.75-3.75 3.757 3.757 0 0 0-3-3.674V25.25a.75.75 0 1 0-1.5 0Z"/><path fill="#fff" fill-opacity=".2" d="m37.13 17.104-12.75-7.5a.747.747 0 0 0-.76 0l-12.75 7.5a.749.749 0 0 0-.37.646v13.5c0 .266.14.512.37.647l9.75 5.735a.75.75 0 1 0 .76-1.293L12 30.82V19.06l11.62 6.836a.75.75 0 0 0 .76 0L36 19.06v11.76l-9.38 5.518a.748.748 0 0 0-.267 1.027c.32.588.907.336 1.027.266l9.75-5.735a.75.75 0 0 0 .37-.647v-13.5a.752.752 0 0 0-.37-.646ZM24 24.38l-11.271-6.63 11.27-6.63 11.272 6.63L24 24.38ZM9.416 35.126a.751.751 0 0 0-.833 1.248l6.75 4.5c.128.086.762.23 1.04-.208a.755.755 0 0 0-.207-1.04l-6.75-4.5Zm0-20.502 6.75-4.5a.75.75 0 0 0-.833-1.248l-6.75 4.5a.744.744 0 0 0-.207 1.04c.299.427.912.294 1.04.208Zm29.167 20.502a.75.75 0 0 1 .833 1.248l-6.75 4.5c-.128.086-.761.23-1.04-.208a.756.756 0 0 1 .207-1.04l6.75-4.5Zm0-20.502-6.75-4.5a.75.75 0 1 1 .833-1.248l6.75 4.5c.344.23.445.701.208 1.04-.3.427-.912.294-1.04.208Z"/><path fill="#9C69ED" d="M15.75 26.75H7.424a3.757 3.757 0 0 0-3.674-3A3.754 3.754 0 0 0 0 27.5a3.754 3.754 0 0 0 3.75 3.75 3.758 3.758 0 0 0 3.674-3h8.326a.75.75 0 1 0 0-1.5Zm16.5 0h8.326a3.757 3.757 0 0 1 3.674-3A3.754 3.754 0 0 1 48 27.5a3.754 3.754 0 0 1-3.75 3.75 3.757 3.757 0 0 1-3.674-3H32.25a.75.75 0 1 1 0-1.5Zm-7.5-9V8a3.757 3.757 0 0 0 3-3.674C27.75 2.258 26.068.5 24 .5s-3.75 1.758-3.75 3.826a3.758 3.758 0 0 0 3 3.674v9.75a.75.75 0 1 0 1.5 0Z"/></g><defs><clipPath id="a"><path fill="#fff" d="M0 .5h48v48H0z"/></clipPath></defs></svg>