<svg width="49" height="49" viewBox="0 0 49 49" fill="none" xmlns="http://www.w3.org/2000/svg">
<g clip-path="url(#clip0_1034_478)">
<g clip-path="url(#clip1_1034_478)">
<g clip-path="url(#clip2_1034_478)">
<path d="M33.7451 39.8047C33.944 39.8047 34.1348 39.7257 34.2754 39.585C34.4161 39.4444 34.4951 39.2536 34.4951 39.0547C34.4951 38.8558 34.4161 38.665 34.2754 38.5244C34.1348 38.3837 33.944 38.3047 33.7451 38.3047C33.5462 38.3047 33.3554 38.3837 33.2148 38.5244C33.0741 38.665 32.9951 38.8558 32.9951 39.0547C32.9951 39.2536 33.0741 39.4444 33.2148 39.585C33.3554 39.7257 33.5462 39.8047 33.7451 39.8047Z" fill="white" fill-opacity="0.2"/>
<path d="M46.4951 14.3047C46.4941 13.3105 46.0986 12.3572 45.3956 11.6542C44.6926 10.9512 43.7394 10.5557 42.7451 10.5547C41.7509 10.5557 40.7977 10.9512 40.0946 11.6542C39.3916 12.3572 38.9962 13.3105 38.9951 14.3047C38.9965 15.1687 39.2956 16.0058 39.842 16.675C40.3885 17.3442 41.1489 17.8046 41.9951 17.9787V22.0917L37.9901 24.0937C36.7535 20.9664 34.4536 18.3755 31.4951 16.7767V14.8457L35.4821 13.5157C35.6314 13.466 35.7613 13.3706 35.8533 13.243C35.9454 13.1154 35.995 12.962 35.9951 12.8047V9.05469C35.9951 8.85577 35.9161 8.66501 35.7754 8.52436C35.6348 8.38371 35.444 8.30469 35.2451 8.30469C35.0462 8.30469 34.8554 8.38371 34.7148 8.52436C34.5741 8.66501 34.4951 8.85577 34.4951 9.05469V12.2647L30.5081 13.5927C30.3587 13.6425 30.2287 13.738 30.1366 13.8658C30.0445 13.9936 29.995 14.1472 29.9951 14.3047V16.0647C28.5598 15.4894 27.0394 15.1552 25.4951 15.0757V7.47869C26.3414 7.30461 27.1018 6.84418 27.6482 6.17497C28.1947 5.50576 28.4937 4.66866 28.4951 3.80469C28.4941 2.81045 28.0986 1.85724 27.3956 1.15421C26.6926 0.451174 25.7394 0.0557463 24.7451 0.0546875C23.7509 0.0557463 22.7977 0.451174 22.0946 1.15421C21.3916 1.85724 20.9962 2.81045 20.9951 3.80469C20.9967 4.66861 21.2958 5.50561 21.8423 6.17478C22.3887 6.84396 23.149 7.30443 23.9951 7.47869V15.0757C22.451 15.1553 20.9306 15.4892 19.4951 16.0637V14.3037C19.4952 14.1462 19.4457 13.9926 19.3536 13.8648C19.2615 13.737 19.1316 13.6415 18.9821 13.5917L14.9951 12.2627V9.05469C14.9951 8.85577 14.9161 8.66501 14.7754 8.52436C14.6348 8.38371 14.444 8.30469 14.2451 8.30469C14.0462 8.30469 13.8554 8.38371 13.7148 8.52436C13.5741 8.66501 13.4951 8.85577 13.4951 9.05469V12.8047C13.495 12.9622 13.5445 13.1158 13.6366 13.2435C13.7287 13.3713 13.8587 13.4669 14.0081 13.5167L17.9951 14.8457V16.7767C15.037 18.3764 12.7373 20.9675 11.5001 24.0947L7.49512 22.0907V17.9787C8.34145 17.8048 9.10196 17.3444 9.64843 16.6751C10.1949 16.0059 10.4939 15.1687 10.4951 14.3047C10.4941 13.3105 10.0986 12.3572 9.3956 11.6542C8.69257 10.9512 7.73935 10.5557 6.74512 10.5547C5.75088 10.5557 4.79767 10.9512 4.09464 11.6542C3.3916 12.3572 2.99618 13.3105 2.99512 14.3047C2.99648 15.1687 3.29558 16.0058 3.84203 16.675C4.38847 17.3442 5.14887 17.8046 5.99512 17.9787V22.5547C5.99512 22.8387 6.15512 23.0987 6.41012 23.2257L11.0151 25.5287C10.6731 26.7583 10.4982 28.0284 10.4951 29.3047V33.8047C10.4964 35.8086 10.9201 37.7898 11.7386 39.619C12.557 41.4482 13.7518 43.0843 15.2451 44.4207C16.6271 45.6631 18.2405 46.6207 19.9931 47.2387C21.5186 47.7813 23.126 48.0573 24.7451 48.0547C26.3791 48.0547 27.9781 47.7797 29.4951 47.2397C31.2483 46.6217 32.8624 45.6641 34.2451 44.4217C35.7385 43.0852 36.9333 41.4488 37.7518 39.6195C38.5702 37.7901 38.9939 35.8088 38.9951 33.8047V29.3047C38.9951 28.0207 38.8141 26.7547 38.4751 25.5287L43.0801 23.2257C43.2048 23.1634 43.3097 23.0677 43.383 22.9492C43.4563 22.8306 43.4951 22.694 43.4951 22.5547V17.9787C44.3415 17.8048 45.102 17.3444 45.6484 16.6751C46.1949 16.0059 46.4939 15.1687 46.4951 14.3047ZM4.49512 14.3047C4.49512 13.0647 5.50512 12.0547 6.74512 12.0547C7.98512 12.0547 8.99512 13.0647 8.99512 14.3047C8.99512 15.5447 7.98512 16.5547 6.74512 16.5547C5.50512 16.5547 4.49512 15.5447 4.49512 14.3047ZM22.4951 3.80469C22.4951 2.56469 23.5051 1.55469 24.7451 1.55469C25.9851 1.55469 26.9951 2.56469 26.9951 3.80469C26.9951 5.04469 25.9851 6.05469 24.7451 6.05469C23.5051 6.05469 22.4951 5.04469 22.4951 3.80469ZM33.2451 43.3037C32.0075 44.4159 30.5626 45.273 28.9931 45.8257C26.243 46.7926 23.2453 46.7926 20.4951 45.8257C18.9262 45.273 17.4819 44.416 16.2451 43.3037C14.1264 41.4014 12.7056 38.8445 12.2091 36.0407C12.9872 37.5014 14.0147 38.8148 15.2451 39.9217C16.627 41.1641 18.2405 42.1218 19.9931 42.7397C21.5186 43.282 23.1261 43.5577 24.7451 43.5547C26.3791 43.5547 27.9781 43.2797 29.4951 42.7387C30.3191 42.4487 31.1151 42.0817 31.8711 41.6437C31.9567 41.5945 32.0317 41.5289 32.0917 41.4506C32.1518 41.3723 32.1958 41.2829 32.2212 41.1875C32.2466 41.0921 32.2528 40.9927 32.2396 40.8949C32.2264 40.7971 32.1939 40.7029 32.1441 40.6177C32.044 40.446 31.88 40.3208 31.688 40.2697C31.4959 40.2185 31.2914 40.2455 31.1191 40.3447C30.4421 40.7367 29.7301 41.0647 28.9931 41.3247C26.2431 42.2927 23.2451 42.2927 20.4951 41.3247C18.9262 40.772 17.4819 39.915 16.2451 38.8027C14.909 37.6071 13.8399 36.1433 13.1076 34.5067C12.3753 32.8702 11.9962 31.0976 11.9951 29.3047C11.9951 27.9607 12.2051 26.6347 12.6181 25.3647C13.1455 23.7521 13.9881 22.2605 15.0971 20.9765C16.2062 19.6926 17.5594 18.6419 19.0781 17.8857C20.8375 17.0062 22.7782 16.5508 24.7451 16.5557C26.7301 16.5557 28.6361 17.0027 30.4121 17.8877C31.9311 18.6439 33.2845 19.6946 34.3935 20.9788C35.5025 22.2629 36.3451 23.7548 36.8721 25.3677C37.2863 26.6392 37.4966 27.9684 37.4951 29.3057C37.4996 31.8276 36.7513 34.2935 35.3461 36.3877C35.2354 36.5531 35.1949 36.7556 35.2335 36.9509C35.2722 37.1461 35.3868 37.318 35.5521 37.4287C35.7175 37.5394 35.9201 37.5799 36.1153 37.5413C36.3105 37.5027 36.4824 37.3881 36.5931 37.2227C36.8411 36.8527 37.0631 36.4687 37.2741 36.0807C36.7709 38.8693 35.3539 41.4108 33.2451 43.3037ZM42.7451 16.5547C41.5051 16.5547 40.4951 15.5447 40.4951 14.3047C40.4951 13.0647 41.5051 12.0547 42.7451 12.0547C43.9851 12.0547 44.9951 13.0647 44.9951 14.3047C44.9951 15.5447 43.9851 16.5547 42.7451 16.5547Z" fill="white" fill-opacity="0.2"/>
<path d="M26.9951 27.8047H23.9951C23.1701 27.8047 22.4951 27.1297 22.4951 26.3047C22.4951 25.8917 22.6601 25.5167 22.9381 25.2467C23.2081 24.9697 23.5831 24.8047 23.9951 24.8047H30.7451V21.8047H26.9951V18.8047H23.2451V21.8047C22.6427 21.8046 22.0463 21.9254 21.4914 22.16C20.9366 22.3945 20.4344 22.7381 20.0148 23.1704C19.5951 23.6026 19.2665 24.1147 19.0484 24.6763C18.8303 25.2379 18.7272 25.8375 18.7451 26.4397C18.8201 28.9067 20.9731 30.8047 23.4331 30.8047H26.2451C27.0701 30.8047 27.7451 31.4797 27.7451 32.3047C27.7451 32.7177 27.5801 33.0927 27.3031 33.3617C27.0331 33.6397 26.6581 33.8047 26.2451 33.8047H19.4951V36.8047H23.2451V39.8047H26.9951V36.8047C28.2401 36.8047 29.3651 36.3027 30.1751 35.4847C30.595 35.0686 30.9279 34.5732 31.1545 34.0273C31.3811 33.4813 31.4969 32.8958 31.4951 32.3047C31.4951 31.0597 30.9931 29.9347 30.1751 29.1247C29.7591 28.7048 29.2637 28.3718 28.7177 28.1452C28.1718 27.9186 27.5862 27.8028 26.9951 27.8047ZM14.2451 9.80469C15.2397 9.80469 16.1935 9.4096 16.8968 8.70634C17.6 8.00308 17.9951 7.04925 17.9951 6.05469C17.9951 5.06013 17.6 4.1063 16.8968 3.40304C16.1935 2.69978 15.2397 2.30469 14.2451 2.30469C13.2506 2.30469 12.2967 2.69978 11.5935 3.40304C10.8902 4.1063 10.4951 5.06013 10.4951 6.05469C10.4951 7.04925 10.8902 8.00308 11.5935 8.70634C12.2967 9.4096 13.2506 9.80469 14.2451 9.80469ZM35.2451 9.80469C36.2397 9.80469 37.1935 9.4096 37.8968 8.70634C38.6 8.00308 38.9951 7.04925 38.9951 6.05469C38.9951 5.06013 38.6 4.1063 37.8968 3.40304C37.1935 2.69978 36.2397 2.30469 35.2451 2.30469C34.2506 2.30469 33.2967 2.69978 32.5935 3.40304C31.8902 4.1063 31.4951 5.06013 31.4951 6.05469C31.4951 7.04925 31.8902 8.00308 32.5935 8.70634C33.2967 9.4096 34.2506 9.80469 35.2451 9.80469Z" fill="#7C43FF"/>
</g>
</g>
</g>
<defs>
<clipPath id="clip0_1034_478">
<rect width="48" height="48" fill="white" transform="translate(0.745117 0.0546875)"/>
</clipPath>
<clipPath id="clip1_1034_478">
<rect width="48" height="48" fill="white" transform="translate(0.745117 0.0546875)"/>
</clipPath>
<clipPath id="clip2_1034_478">
<rect width="48" height="48" fill="white" transform="translate(0.745117 0.0546875)"/>
</clipPath>
</defs>
</svg>
