<svg xmlns="http://www.w3.org/2000/svg" width="96" height="96" fill="none"><path fill="url(#a)" d="M11.034 60.977c.738-9.825-3.07-19.706-.574-29.442 1.044-4.076 3.238-7.788 6.88-10.036 4.009-2.476 8.895-3.218 13.461-4.004a172.017 172.017 0 0 1 32.433-2.441c2.69.05 5.384.148 8.068.345 1.11.08 2.284.204 3.286.73.948.498 1.571 1.346 2.002 2.306.458 1.02.702 2.13.97 3.21l.987 3.973 2.012 8.106 3.985 16.053c1.054 4.248 2.403 8.829 1.587 13.236-.39 2.11-1.328 4.035-2.91 5.504-1.603 1.489-3.666 2.393-5.716 3.081-4.821 1.618-9.862 2.732-14.818 3.849a258.952 258.952 0 0 1-31.834 5.115c-3.84.372-8.867 1.303-12.241-1.14-1.829-1.326-2.45-3.556-2.743-5.688-.354-2.573-.507-5.189-.632-7.78a123.799 123.799 0 0 1 .303-16.423c.234-2.748.556-5.488.981-8.212.35-2.251.787-4.51 1.592-6.648.82-2.176 2.103-4.105 3.861-5.632 1.696-1.473 3.728-2.538 5.78-3.423 4.656-2.008 9.621-3.447 14.552-4.591 4.764-1.105 9.854-2.238 14.771-1.835 4.306.352 7.96 2.48 10.251 6.146 2.063 3.3 3.002 7.195 3.613 10.997.656 4.08 1.1 8.3.857 12.434-.247 4.197-1.454 8.44-4.635 11.368-3.465 3.188-8.428 4.474-12.863 5.647a91.558 91.558 0 0 1-23.684 3.056c-2.047-.005-4.641-.047-5.262-2.453-.262-1.016-.213-2.103-.224-3.145a158.321 158.321 0 0 1-.006-3.098c.02-2.129.094-4.26.283-6.38.36-4.065 1.146-8.207 2.965-11.892 1.96-3.97 5.058-6.957 8.962-9.014 2.042-1.076 4.2-1.903 6.38-2.655 2.248-.776 4.547-1.649 6.902-2.025 2.27-.361 4.532.031 6.186 1.719 1.356 1.381 2.14 3.243 2.753 5.05a54.859 54.859 0 0 1 1.726 6.317c.462 2.21.753 4.541.395 6.79-.772 4.848-4.856 7.673-9.102 9.466a27.08 27.08 0 0 1-13.888 1.898c-1.809-.232-4.24-.575-5.46-2.11-.765-.962-.544-2.148-.205-3.24.346-1.11.742-2.208 1.143-3.3 1.429-3.903 3.384-8.261 7.1-10.49 2.883-1.727 7.217-2.278 9.936.076 3.095 2.68 2.303 7.573-.235 10.343-2.901 3.166-7.56 3.867-11.64 3.597-1.054-.069-1.05 1.573 0 1.642 4.5.297 9.614-.608 12.8-4.078 2.743-2.988 3.84-7.962 1.34-11.434-2.34-3.249-6.742-3.858-10.37-2.74-4.394 1.353-7.248 5.135-9.096 9.162-1.005 2.19-1.849 4.485-2.562 6.787-.708 2.286-.334 4.409 1.73 5.787 1.83 1.223 4.21 1.53 6.35 1.731 2.53.239 5.081.112 7.583-.324a28.491 28.491 0 0 0 7.224-2.302c2.229-1.051 4.452-2.395 6.13-4.226 3.407-3.718 3.386-8.808 2.41-13.472a52.139 52.139 0 0 0-1.881-6.764c-.696-1.956-1.605-3.924-3.098-5.405-3.84-3.81-9.273-1.832-13.695-.348-4.707 1.58-9.5 3.469-13.111 6.998-3.136 3.063-5.083 7.098-6.156 11.309-1.123 4.406-1.4 8.996-1.44 13.527-.01 1.114-.005 2.229.008 3.343.013 1.15-.003 2.34.313 3.456.65 2.3 2.657 3.254 4.884 3.471 2.694.262 5.508.044 8.202-.133a95.592 95.592 0 0 0 8.483-.946c5.466-.857 11.01-2.104 16.184-4.096 4.44-1.71 8.308-4.418 10.242-8.902 1.808-4.194 1.885-8.923 1.548-13.408-.327-4.35-.863-8.797-2.175-12.97-1.218-3.872-3.238-7.592-6.644-9.944-4.168-2.88-9.432-2.805-14.247-2.144-5.59.766-11.124 2.078-16.494 3.807-4.656 1.5-9.706 3.15-13.359 6.548-3.747 3.486-4.88 8.539-5.604 13.407a125.01 125.01 0 0 0-1.368 17.556c-.02 2.954.066 5.91.257 8.858.175 2.668.26 5.481.954 8.077.563 2.11 1.757 3.966 3.673 5.075 1.862 1.077 4.079 1.385 6.197 1.42 2.528.04 5.067-.282 7.578-.539 2.857-.291 5.711-.632 8.558-1.016a260.869 260.869 0 0 0 34.134-6.949c4.378-1.2 9.164-2.75 11.565-6.936 2.326-4.06 1.742-9.051.812-13.426-1.198-5.637-2.745-11.216-4.134-16.808-1.419-5.716-2.706-11.486-4.271-17.164-.607-2.2-1.62-4.335-3.831-5.287-2.338-1.007-5.221-.852-7.717-.957a173.068 173.068 0 0 0-17.587.15c-5.822.346-11.627.988-17.385 1.912-5.03.808-10.41 1.544-14.944 4.018-8.793 4.797-9.94 15.5-9.077 24.482.54 5.617 1.58 11.217 1.154 16.88-.08 1.054 1.563 1.049 1.642 0Z"/><defs><linearGradient id="a" x1="48" x2="48" y1="13.38" y2="82.62" gradientUnits="userSpaceOnUse"><stop stop-color="#747474"/><stop offset="1" stop-color="#202020"/></linearGradient></defs></svg>