<svg xmlns="http://www.w3.org/2000/svg" width="40" height="40" fill="none"><path fill="#7C43FF" d="M35.195 17.523v18.688H4.805v-6.375h9.867V23.68h9.875v-6.157h10.648Z"/><path fill="#7C43FF" d="M34.61 17.523V35.45c0 .242-.016.492 0 .734v.032l.586-.586H6.044c-.395 0-.793-.016-1.188 0h-.05l.585.586V29.84l-.586.586h9.868c.316 0 .586-.27.586-.586v-6.157l-.586.586h9.875c.316 0 .586-.27.586-.586v-6.156l-.586.586h10.648c.305 0 .602-.27.586-.586-.016-.316-.258-.586-.586-.586H24.548a.595.595 0 0 0-.586.586v6.156l.586-.586h-9.875a.595.595 0 0 0-.586.586v6.157l.586-.586H4.805a.595.595 0 0 0-.585.586v6.375c0 .316.269.586.585.586h29.153c.394 0 .793.007 1.187 0h.051c.317 0 .586-.27.586-.586V19.828c0-.758.023-1.516 0-2.273v-.032c0-.305-.27-.601-.586-.586a.593.593 0 0 0-.586.586Zm-29.215 4.77c.215-.137.434-.274.649-.406l1.765-1.11 2.614-1.64c1.062-.669 2.125-1.332 3.187-2 1.164-.731 2.328-1.461 3.488-2.192 1.176-.738 2.348-1.476 3.524-2.21l3.285-2.063c.926-.582 1.852-1.16 2.777-1.743l1.989-1.25c.316-.199.636-.394.949-.597a.259.259 0 0 0 .043-.028c.52-.324.77-1.058.422-1.601-.336-.52-1.047-.77-1.602-.422a58.9 58.9 0 0 1-.648.406l-1.766 1.11-2.613 1.64-3.188 2c-1.164.73-2.328 1.461-3.488 2.192-1.176.738-2.348 1.476-3.523 2.21l-3.286 2.063c-.925.582-1.851 1.16-2.777 1.742l-1.988 1.25c-.317.2-.637.395-.95.598a.263.263 0 0 0-.042.027c-.52.325-.77 1.059-.422 1.602.332.52 1.047.77 1.601.422Z"/><path fill="#7C43FF" d="M22.155 6.09c.738.117 1.48.238 2.218.356l3.563.574c.273.043.543.086.816.133l-.82-1.442c-.117.739-.238 1.48-.355 2.219l-.575 3.563a59 59 0 0 1-.133.816c-.05.32-.05.613.118.902.14.242.422.477.699.54.3.066.637.054.902-.118.242-.156.492-.406.54-.7.116-.737.238-1.48.355-2.218l.574-3.562c.043-.274.086-.543.133-.817.05-.308.058-.629-.117-.902-.157-.242-.407-.492-.7-.54-.738-.116-1.48-.237-2.218-.355l-3.563-.574a59.092 59.092 0 0 1-.816-.133c-.32-.05-.613-.05-.902.118-.243.14-.477.421-.54.699-.066.3-.054.636.118.902.156.242.406.492.703.54Z"/></svg>