<svg width="49" height="49" viewBox="0 0 49 49" fill="none" xmlns="http://www.w3.org/2000/svg">
<g clip-path="url(#clip0_1034_399)">
<g clip-path="url(#clip1_1034_399)">
<g clip-path="url(#clip2_1034_399)">
<mask id="mask0_1034_399" style="mask-type:luminance" maskUnits="userSpaceOnUse" x="0" y="0" width="49" height="49">
<path d="M0.745117 0.0546875H48.7451V48.0547H0.745117V0.0546875Z" fill="white"/>
</mask>
<g mask="url(#mask0_1034_399)">
<path d="M20.9951 8.30469C21.194 8.30469 21.3848 8.22567 21.5254 8.08502C21.6661 7.94436 21.7451 7.7536 21.7451 7.55469C21.7451 7.35578 21.6661 7.16501 21.5254 7.02436C21.3848 6.88371 21.194 6.80469 20.9951 6.80469C20.7962 6.80469 20.6054 6.88371 20.4648 7.02436C20.3241 7.16501 20.2451 7.35578 20.2451 7.55469C20.2451 7.7536 20.3241 7.94436 20.4648 8.08502C20.6054 8.22567 20.7962 8.30469 20.9951 8.30469ZM40.5381 27.7977C40.505 27.7049 40.4905 27.6065 40.4955 27.5082C40.5006 27.4098 40.5249 27.3134 40.5673 27.2245C40.6097 27.1355 40.6692 27.0559 40.7424 26.99C40.8157 26.9241 40.9012 26.8734 40.9941 26.8407C41.9308 26.5073 42.6972 25.8164 43.1258 24.9193C43.5544 24.0222 43.6103 22.9919 43.2811 22.0537C43.2186 21.8671 43.2318 21.6634 43.3181 21.4865C43.4043 21.3097 43.5567 21.1738 43.7422 21.1082C43.9277 21.0426 44.1316 21.0525 44.3098 21.1359C44.4881 21.2192 44.6265 21.3693 44.6951 21.5537C45.156 22.8666 45.0781 24.3087 44.4784 25.5643C43.8786 26.82 42.806 27.7869 41.4951 28.2537C41.4121 28.2837 40.7981 28.4317 40.5381 27.7977Z" fill="white" fill-opacity="0.2"/>
<path d="M39.7451 32.3047H36.7451C36.5462 32.3047 36.3554 32.2257 36.2148 32.085C36.0741 31.9444 35.9951 31.7536 35.9951 31.5547C35.9951 31.3558 36.0741 31.165 36.2148 31.0244C36.3554 30.8837 36.5462 30.8047 36.7451 30.8047H39.7451C43.8811 30.8047 47.2451 27.4407 47.2451 23.3047C47.2482 21.5489 46.6331 19.8481 45.5077 18.5005C44.3823 17.1529 42.8183 16.2445 41.0901 15.9347C40.9276 15.9056 40.7792 15.8236 40.668 15.7016C40.5569 15.5795 40.489 15.4242 40.4751 15.2597C40.3454 13.6628 39.6517 12.1641 38.5181 11.0319C37.3846 9.89962 35.8852 9.20762 34.2881 9.07969C33.0962 8.98371 31.9002 9.20559 30.8221 9.72269C30.6566 9.80223 30.4676 9.81827 30.291 9.76777C30.1145 9.71727 29.9626 9.60373 29.8641 9.44869C28.9219 7.94803 27.6135 6.71156 26.0621 5.85547C24.5107 4.99937 22.7671 4.55176 20.9951 4.55469C15.2051 4.55469 10.4951 9.26469 10.4951 15.0547C10.4951 15.2536 10.4161 15.4444 10.2754 15.585C10.1348 15.7257 9.94403 15.8047 9.74512 15.8047C5.60912 15.8047 2.24512 19.1687 2.24512 23.3047C2.24512 27.4407 5.60912 30.8047 9.74512 30.8047H12.7451C12.944 30.8047 13.1348 30.8837 13.2754 31.0244C13.4161 31.165 13.4951 31.3558 13.4951 31.5547C13.4951 31.7536 13.4161 31.9444 13.2754 32.085C13.1348 32.2257 12.944 32.3047 12.7451 32.3047H9.74512C4.78212 32.3047 0.745117 28.2677 0.745117 23.3047C0.745117 18.5867 4.39312 14.7057 9.01612 14.3347C9.39012 8.05069 14.6201 3.05469 20.9951 3.05469C24.9101 3.05469 28.5191 4.93369 30.7731 8.11169C32.5658 7.42038 34.5434 7.3758 36.3654 7.98563C38.1874 8.59546 39.7398 9.82153 40.7551 11.4527C41.347 12.4046 41.7383 13.4673 41.9051 14.5757C43.8584 15.0539 45.5945 16.1743 46.8348 17.7572C48.0752 19.3401 48.7479 21.2937 48.7451 23.3047C48.7451 28.2667 44.7081 32.3047 39.7451 32.3047Z" fill="white" fill-opacity="0.2"/>
<path d="M13.4951 15.8042C13.2962 15.8042 13.1054 15.7252 12.9648 15.5845C12.8241 15.4439 12.7451 15.2531 12.7451 15.0542C12.7451 11.9192 14.5711 9.00421 17.3971 7.63021C17.576 7.54322 17.7821 7.53085 17.9701 7.59584C18.1581 7.66082 18.3126 7.79782 18.3996 7.97671C18.4866 8.1556 18.499 8.36172 18.434 8.54972C18.369 8.73773 18.232 8.89222 18.0531 8.97921C16.9155 9.5366 15.9562 10.4007 15.2834 11.4741C14.6106 12.5474 14.251 13.7874 14.2451 15.0542C14.2449 15.2529 14.1657 15.4435 14.0251 15.5839C13.8845 15.7243 13.6939 15.8032 13.4951 15.8032V15.8042Z" fill="white" fill-opacity="0.2"/>
<path d="M27.3622 30.1927C27.2462 30.2577 26.5912 30.4417 26.3412 29.9067C26.244 29.7334 26.2194 29.5287 26.2728 29.3373C26.3262 29.146 26.4533 28.9836 26.6262 28.8857L35.9792 23.6247L24.7442 17.3047L13.5092 23.6247L22.8612 28.8847C23.2222 29.0887 23.3672 29.5557 23.1472 29.9067C22.8732 30.3447 22.2422 30.2587 22.1262 30.1927L12.7432 24.9147V37.5547L23.9932 43.8827V33.0547C23.9932 32.8558 24.0722 32.665 24.2128 32.5244C24.3535 32.3837 24.5443 32.3047 24.7432 32.3047C24.9421 32.3047 25.1328 32.3837 25.2735 32.5244C25.4141 32.665 25.4932 32.8558 25.4932 33.0547V43.8827L36.7432 37.5547V24.9147L27.3612 30.1927H27.3622Z" fill="#7C43FF"/>
</g>
</g>
</g>
</g>
<defs>
<clipPath id="clip0_1034_399">
<rect width="48" height="48" fill="white" transform="translate(0.745117 0.0546875)"/>
</clipPath>
<clipPath id="clip1_1034_399">
<rect width="48" height="48" fill="white" transform="translate(0.745117 0.0546875)"/>
</clipPath>
<clipPath id="clip2_1034_399">
<rect width="48" height="48" fill="white" transform="translate(0.745117 0.0546875)"/>
</clipPath>
</defs>
</svg>
