<svg xmlns="http://www.w3.org/2000/svg" width="106" height="106" fill="none"><path stroke="url(#a)" stroke-linecap="round" stroke-linejoin="round" stroke-width="6.625" d="M88.335 66.25V53M17.668 66.25V30.917c0-8.329 0-12.493 2.587-15.08 2.587-2.587 6.752-2.587 15.08-2.587h15.458"/><path stroke="url(#b)" stroke-linecap="round" stroke-linejoin="round" stroke-width="6.625" d="m15.447 70.735 2.305-4.485h70.367l2.431 4.485c6.373 11.755 7.96 17.632 5.538 22.032-2.422 4.4-8.844 4.4-21.689 4.4H31.6c-12.845 0-19.268 0-21.69-4.4-2.422-4.4-.835-10.277 5.537-22.032Z"/><path stroke="url(#c)" stroke-linecap="round" stroke-linejoin="round" stroke-width="6.625" d="M57.418 29.444c0 5.692 4.45 10.306 9.938 10.306h20.868c4.94 0 8.944-4.153 8.944-9.275 0-5.123-4.004-9.275-8.944-9.275-.088 0 0-12.367-10.931-12.367-5.717 0-10.41 4.552-10.89 10.352-5.042.498-8.985 4.9-8.985 10.26Z"/><defs><linearGradient id="a" x1="53.001" x2="53.001" y1="13.25" y2="66.25" gradientUnits="userSpaceOnUse"><stop stop-color="#AF9DFF"/><stop offset="1" stop-color="#6340FC"/></linearGradient><linearGradient id="b" x1="52.999" x2="52.999" y1="66.25" y2="97.167" gradientUnits="userSpaceOnUse"><stop stop-color="#AF9DFF"/><stop offset="1" stop-color="#6340FC"/></linearGradient><linearGradient id="c" x1="77.293" x2="77.293" y1="8.833" y2="39.75" gradientUnits="userSpaceOnUse"><stop stop-color="#AF9DFF"/><stop offset="1" stop-color="#6340FC"/></linearGradient></defs></svg>