<svg xmlns="http://www.w3.org/2000/svg" width="106" height="106" fill="none"><path stroke="url(#a)" stroke-linecap="round" stroke-width="6.625" d="M57.416 8.833h-13.25c-16.657 0-24.985 0-30.16 5.174-5.174 5.175-5.174 13.503-5.174 30.16 0 16.655 0 24.984 5.175 30.158C19.18 79.5 27.509 79.5 44.165 79.5h17.667c16.656 0 24.985 0 30.159-5.175 2.885-2.885 4.161-6.75 4.726-12.492"/><path stroke="url(#b)" stroke-width="6.625" d="M53 79.5v17.667"/><path stroke="url(#c)" stroke-linecap="round" stroke-width="6.625" d="M35.332 97.167h35.333"/><path stroke="url(#d)" stroke-linecap="round" stroke-linejoin="round" stroke-width="6.625" d="M48.582 66.25h8.833"/><path stroke="url(#e)" stroke-linecap="round" stroke-width="6.625" d="M73.982 23.744c0-.265-.006-3.617 0-5.537.006-1.753-.148-3.445.69-4.992 3.137-6.244 12.147-5.608 14.373.752.386 1.047.409 2.707.397 4.24a396.12 396.12 0 0 0 .027 5.537m-15.487 0c-4.77 0-6.773 3.445-7.303 5.565-.53 2.12-.53 9.805-.212 12.985 1.06 3.975 3.71 5.617 6.307 6.148 2.385.212 12.455.132 15.37.132 4.24.08 7.42-1.51 8.745-6.28.265-1.59.53-10.335-.132-12.985-1.405-4.24-4.638-5.565-7.288-5.565m-15.487 0H89.47"/><defs><linearGradient id="a" x1="52.775" x2="52.775" y1="8.833" y2="79.5" gradientUnits="userSpaceOnUse"><stop stop-color="#AF9DFF"/><stop offset="1" stop-color="#6340FC"/></linearGradient><linearGradient id="b" x1="53.5" x2="53.5" y1="79.5" y2="97.167" gradientUnits="userSpaceOnUse"><stop stop-color="#AF9DFF"/><stop offset="1" stop-color="#6340FC"/></linearGradient><linearGradient id="c" x1="52.999" x2="52.999" y1="97.167" y2="98.167" gradientUnits="userSpaceOnUse"><stop stop-color="#AF9DFF"/><stop offset="1" stop-color="#6340FC"/></linearGradient><linearGradient id="d" x1="52.999" x2="52.999" y1="66.25" y2="67.25" gradientUnits="userSpaceOnUse"><stop stop-color="#AF9DFF"/><stop offset="1" stop-color="#6340FC"/></linearGradient><linearGradient id="e" x1="81.711" x2="81.711" y1="8.851" y2="48.589" gradientUnits="userSpaceOnUse"><stop stop-color="#AF9DFF"/><stop offset="1" stop-color="#6340FC"/></linearGradient></defs></svg>