<svg xmlns="http://www.w3.org/2000/svg" width="40" height="40" fill="none"><path fill="#7C43FF" d="M24.318 34.017c.65.65 1.5.983 2.35.983H12.435a4.71 4.71 0 0 1-3.8-1.9 4.716 4.716 0 0 1-.767-4.167l.9-3.15c.967-3.4 4.117-5.783 7.65-5.783h7.167c3.316 0 6.316 2.117 7.466 5.183a3.265 3.265 0 0 0-2.316.067 3.268 3.268 0 0 0-1.1.733l-3.317 3.334a3.32 3.32 0 0 0 0 4.7Zm7.467-1.55c-.034.05-.067.116-.117.166v-.283l.117.117ZM20.003 18.333a6.667 6.667 0 1 0 0-13.333 6.667 6.667 0 0 0 0 13.333Z"/><path fill="#7C43FF" d="M31.668 32.35v.283c.05-.05.083-.117.117-.167l-.117-.116Z"/><path fill="#7C43FF" d="M34.517 32.85a1.71 1.71 0 0 1-1.183.483c-.434 0-.85-.166-1.184-.483l-.366-.383-.117-.117V35c0 .916-.75 1.666-1.667 1.666-.916 0-1.666-.75-1.666-1.666v-2.65l-.484.5a1.68 1.68 0 0 1-2.366 0 1.68 1.68 0 0 1 0-2.367l3.333-3.333c.15-.15.35-.267.55-.35.4-.167.867-.167 1.267 0 .2.083.4.2.55.35l3.333 3.333c.65.65.65 1.717 0 2.367Z"/></svg>