<svg xmlns="http://www.w3.org/2000/svg" width="48" height="49" fill="none"><path fill="#fff" fill-opacity=".2" d="m47.929 45.931-2.806-5.96-.013-.028-3.11-6.61V7.25a.75.75 0 0 0-.75-.75H6.75a.75.75 0 0 0-.75.75v26.082l-3.111 6.61c-.005.01-.01.018-.013.027L.071 45.931A.75.75 0 0 0 .75 47h46.5a.75.75 0 0 0 .679-1.069ZM11.423 45.5H1.931L4.05 41h8.574l-1.2 4.5Zm13.326 0v-5.25h-1.5v5.25H12.976l1.199-4.5h3.824a.75.75 0 1 0 0-1.5h-3.424l1.197-4.515a.75.75 0 0 0-1.45-.387l-1.3 4.902H4.755l2.471-5.25H13.5a.75.75 0 0 0 0-1.5h-6V27.5H9A.75.75 0 1 0 9 26H7.5v-5.25H12v-1.5H7.5V14h6a.75.75 0 0 0 0-1.5h-6V8h9v3.75a.75.75 0 1 0 1.5 0V8h12v3.75a.75.75 0 1 0 1.5 0V8h9v4.5h-6a.75.75 0 1 0 0 1.5h6v5.25H39a.75.75 0 1 0 0 1.5h1.5V26H36a.75.75 0 1 0 0 1.5h4.5v5.25h-6a.75.75 0 1 0 0 1.5h6.274l2.47 5.25h-8.267l-1.364-5.024a.75.75 0 0 0-1.45.387l1.262 4.637h-3.424a.75.75 0 1 0 0 1.5h3.824l1.2 4.5H24.748Zm11.826 0-1.2-4.5h8.575l2.118 4.5h-9.493Z"/><path fill="#9C69ED" d="m24 25.89 11.236-6.32-4.486-2.525L24 13.25l-6.75 3.795-4.485 2.524L24 25.89Zm-.75 1.299L12 20.86V33.5l2.955 1.665 8.295 5.085V27.189Zm1.5 0V40.25l8.295-5.085L36 33.5V20.86l-11.25 6.33Z"/></svg>