<svg xmlns="http://www.w3.org/2000/svg" width="96" height="96" fill="none"><path fill="url(#a)" d="M87.273 36.531c-.602-.539-1.467-.733-2.213-.985a368.478 368.478 0 0 0-8.689-2.81 372.053 372.053 0 0 0-47.338-11.334c-3.532-.606-7.253-1.258-10.482.746-2.568 1.594-4.306 4.273-5.486 6.996-1.398 3.224-2.023 6.64-2.55 10.096-.563 3.71-1.084 7.452-2.471 10.962-.281.712.869 1.021 1.147.317 2.604-6.59 2.077-13.947 4.785-20.502 1.077-2.605 2.675-5.26 5.108-6.8 3.15-1.992 6.878-1.146 10.31-.552A372.061 372.061 0 0 1 85.5 36.95c.745.254 1.332.547 1.31 1.432-.021.87-.435 1.714-.783 2.494a336.267 336.267 0 0 1-7.565 15.813c-1.701 3.331-3.395 6.696-5.31 9.912-1.752 2.942-3.932 5.604-7.307 6.68-3.198 1.02-6.668.731-9.969.573a197.639 197.639 0 0 1-23.137-2.475 195.254 195.254 0 0 1-16.896-3.602c-1.52-.395-2.937-.932-3.186-2.675-.252-1.761.339-3.658.674-5.371l1.14-5.824c.777-3.96 1.552-7.921 2.328-11.881.364-1.859.69-3.73 1.112-5.575.361-1.584.833-3.181 1.765-4.532 1.761-2.553 4.817-3.151 7.73-3.045 1.63.059 3.254.286 4.873.476a340.91 340.91 0 0 1 17.539 2.522 344.392 344.392 0 0 1 28.438 6.081c.659.17 1.68.279 2.075.918.406.658.143 1.604-.049 2.29-.98 3.517-2.364 6.973-3.846 10.306a91.915 91.915 0 0 1-5.09 9.822c-.886 1.483-1.77 3.02-2.897 4.336-1.187 1.387-2.61 2.26-4.448 2.456-1.882.201-3.822.096-5.712.085a282.117 282.117 0 0 1-29.623-1.729c-1.926-.216-3.85-.45-5.772-.707-1.452-.193-3.327-.249-4.403-1.391-1.096-1.165-.942-3.066-.755-4.526.238-1.863.634-3.714.963-5.564l2.099-11.814.514-2.895c.138-.778.221-1.651.623-2.347.446-.773 1.243-.778 2.04-.727.976.062 1.951.139 2.926.212 3.973.3 7.943.647 11.908 1.038a511.33 511.33 0 0 1 23.627 2.889c3.573.522 7.14 1.085 10.7 1.682a87.232 87.232 0 0 1-3.556 10.536c-.742 1.802-1.528 3.599-2.423 5.329-.39.754-.835 1.54-1.51 2.078-.69.55-1.573.719-2.432.771-2.02.125-4.06.105-6.085.146a1689.16 1689.16 0 0 1-18.97.282c-2.093.02-4.185.035-6.279.046-1.959.01-3.948.116-5.903-.007-.759-.048-1.564-.184-2.186-.651-.605-.455-.91-1.154-1.06-1.878-.323-1.562-.002-3.252.287-4.794.497-2.64 1.286-6.589 4.384-7.285.928-.208 1.914-.123 2.856-.096a393.012 393.012 0 0 1 9.297.378 386.762 386.762 0 0 1 15.58 1.136c.843.078 1.702.126 2.527.328 1.44.355 2.439 1.362 2.209 2.912-.083.558-.33 1.087-.833 1.371-.667.377-.068 1.404.6 1.028 1.222-.69 1.602-2.216 1.387-3.525-.266-1.625-1.598-2.596-3.132-2.952-.902-.21-1.838-.266-2.758-.352a395.225 395.225 0 0 0-10.298-.822 389.822 389.822 0 0 0-13.636-.663c-1.902-.059-4.05-.333-5.718.793-1.316.886-2.107 2.304-2.652 3.758-.592 1.577-.92 3.261-1.175 4.922-.255 1.666-.453 3.507.218 5.104.679 1.615 2.167 2.304 3.834 2.457 2.111.194 4.291.038 6.41.026 9.247-.051 18.493-.18 27.74-.384 1.884-.042 4.128.211 5.86-.686 1.689-.873 2.482-2.823 3.246-4.449a87.485 87.485 0 0 0 5.495-15.175c.075-.287-.094-.677-.415-.732a516.356 516.356 0 0 0-49.484-5.92c-.834-.058-1.708-.163-2.494.193-.689.312-1.13.92-1.405 1.606-.326.815-.426 1.712-.579 2.57l-.555 3.128-2.182 12.277c-.335 1.885-.776 3.787-.894 5.702-.094 1.535.093 3.22 1.198 4.387 1.077 1.136 2.688 1.392 4.165 1.595a279.442 279.442 0 0 0 30.961 2.496 291 291 0 0 0 6.336.089c1.903.005 3.884.131 5.765-.211 3.708-.674 5.663-4.202 7.44-7.166a92.026 92.026 0 0 0 5.278-10.214 95.617 95.617 0 0 0 2.185-5.395c.646-1.75 1.36-3.546 1.77-5.368.347-1.539.13-3.096-1.47-3.757-.831-.343-1.751-.506-2.62-.728a343.283 343.283 0 0 0-14.887-3.445 346.24 346.24 0 0 0-24.293-4.157c-1.998-.27-3.998-.523-6.001-.758-1.728-.204-3.464-.451-5.206-.486-2.973-.06-6.039.656-7.99 3.066-2.283 2.818-2.622 6.838-3.294 10.27a88426.754 88426.754 0 0 1-3.65 18.637c-.344 1.755-.878 3.627-.675 5.43.185 1.65 1.117 2.807 2.65 3.413 1.704.674 3.601.998 5.38 1.42a197.958 197.958 0 0 0 23.935 4.144c4.023.446 8.06.77 12.103.97 3.482.174 7.156.483 10.538-.568 3.439-1.068 5.824-3.588 7.689-6.567 2.064-3.298 3.8-6.833 5.573-10.294a337.409 337.409 0 0 0 5.42-11.08c.873-1.87 1.748-3.741 2.567-5.635.564-1.31 1.219-3.218-.046-4.349Z"/><defs><linearGradient id="a" x1="48" x2="48" y1="20.796" y2="75.205" gradientUnits="userSpaceOnUse"><stop stop-color="#747474"/><stop offset="1" stop-color="#202020"/></linearGradient></defs></svg>