<svg xmlns="http://www.w3.org/2000/svg" width="40" height="40" fill="none"><path fill="#7C43FF" d="M12.54 30.269a2.236 2.236 0 0 0 2.49-.604l.52-.583h5.58c.07 0 .14.03.19.09l3.64 4.074c.44.492 1.05.754 1.68.754.27 0 .55-.04.82-.15a2.252 2.252 0 0 0 1.063-.836c.261-.382.4-.834.397-1.297v-2.364c0-.15.12-.271.27-.271h2.28a3.52 3.52 0 0 0 2.496-1.04A3.56 3.56 0 0 0 35 25.532V13.13a3.56 3.56 0 0 0-1.034-2.51 3.52 3.52 0 0 0-2.496-1.04h-.04v-.03a3.56 3.56 0 0 0-1.034-2.511A3.52 3.52 0 0 0 27.9 6H8.53a3.52 3.52 0 0 0-2.496 1.04A3.56 3.56 0 0 0 5 9.55v12.401a3.568 3.568 0 0 0 1.034 2.51 3.528 3.528 0 0 0 2.496 1.04h2.28c.15 0 .27.121.27.272v2.364c0 .955.57 1.79 1.46 2.132Zm-1.73-6.78H8.53A1.54 1.54 0 0 1 7 21.952v-12.4c0-.856.69-1.54 1.53-1.54H27.9c.84 0 1.53.684 1.53 1.54v12.4a1.54 1.54 0 0 1-1.53 1.539h-9.03c-.65 0-1.26.282-1.69.754l-3.63 4.073c-.08.091-.19.121-.3.07-.11-.04-.17-.12-.17-.25v-2.364a2.281 2.281 0 0 0-2.27-2.283Z"/><path fill="#7C43FF" d="M14.006 17.006h2.988v2.988a1.006 1.006 0 1 0 2.012 0v-2.988h2.988a1.006 1.006 0 1 0 0-2.012h-2.988v-2.988a1.006 1.006 0 1 0-2.012 0v2.988h-2.988a1.006 1.006 0 1 0 0 2.012Z"/></svg>