<svg width="49" height="49" viewBox="0 0 49 49" fill="none" xmlns="http://www.w3.org/2000/svg">
<g clip-path="url(#clip0_1034_444)">
<g clip-path="url(#clip1_1034_444)">
<g clip-path="url(#clip2_1034_444)">
<mask id="mask0_1034_444" style="mask-type:luminance" maskUnits="userSpaceOnUse" x="0" y="0" width="49" height="49">
<path d="M0.745117 0.0546875H48.7451V48.0547H0.745117V0.0546875Z" fill="white"/>
</mask>
<g mask="url(#mask0_1034_444)">
<path d="M39.3711 18.9054L27.2611 11.8984L26.5091 13.1964L37.4981 19.5564L24.7451 26.9374L11.9921 19.5554L22.8631 13.2654L22.1121 11.9674L10.1191 18.9054C10.0052 18.9714 9.9107 19.0662 9.84505 19.1803C9.7794 19.2944 9.74493 19.4238 9.74512 19.5554V34.1274H11.2451V20.8554L23.9951 28.2364V33.0554C23.9951 33.2543 24.0741 33.4451 24.2148 33.5858C24.3554 33.7264 24.5462 33.8054 24.7451 33.8054C24.944 33.8054 25.1348 33.7264 25.2754 33.5858C25.4161 33.4451 25.4951 33.2543 25.4951 33.0554V28.2374L38.2451 20.8564V34.1284H39.7451V19.5554C39.7453 19.4238 39.7108 19.2944 39.6452 19.1803C39.5795 19.0662 39.485 18.9714 39.3711 18.9054ZM25.4951 41.4704V36.0554C25.4951 35.8565 25.4161 35.6658 25.2754 35.5251C25.1348 35.3845 24.944 35.3054 24.7451 35.3054C24.5462 35.3054 24.3554 35.3845 24.2148 35.5251C24.0741 35.6658 23.9951 35.8565 23.9951 36.0554V41.4704L15.0931 36.0484L14.3131 37.3304L24.3551 43.4454C24.4731 43.5168 24.6085 43.5544 24.7464 43.5541C24.8843 43.5537 25.0195 43.5155 25.1371 43.4434L35.3081 37.2494L34.5281 35.9684L25.4951 41.4684V41.4704Z" fill="white" fill-opacity="0.2"/>
<path d="M10.4951 33.3767L17.9951 28.5547V35.3047L15.2881 37.0447L6.74512 42.8047V47.3047L0.745117 42.8047L6.74512 31.5547V36.0547L10.4951 33.3767ZM38.9951 33.3767L31.4951 28.5547V35.3047L34.2031 37.0447L42.7451 42.8047V47.3047L48.7451 42.8047L42.7451 31.5547V36.0547L38.9951 33.3767ZM21.7451 13.0447V18.8047H27.7451V6.80469H32.2451L24.7451 0.0546875L17.2451 6.80469H21.7451V13.0447Z" fill="#7C43FF"/>
</g>
</g>
</g>
</g>
<defs>
<clipPath id="clip0_1034_444">
<rect width="48" height="48" fill="white" transform="translate(0.745117 0.0546875)"/>
</clipPath>
<clipPath id="clip1_1034_444">
<rect width="48" height="48" fill="white" transform="translate(0.745117 0.0546875)"/>
</clipPath>
<clipPath id="clip2_1034_444">
<rect width="48" height="48" fill="white" transform="translate(0.745117 0.0546875)"/>
</clipPath>
</defs>
</svg>
