<svg xmlns="http://www.w3.org/2000/svg" width="106" height="106" fill="none"><path stroke="url(#a)" stroke-linecap="round" stroke-linejoin="round" stroke-width="6.625" d="M37.543 68.458c5.6-5.6 12.975-7.65 19.875-6.15"/><path stroke="url(#b)" stroke-linecap="round" stroke-linejoin="round" stroke-width="6.625" d="M24.293 53c14.015-13.911 29.248-16.928 44.167-8.768"/><path stroke="url(#c)" stroke-linecap="round" stroke-linejoin="round" stroke-width="6.625" d="M8.832 35.334c27.895-23.556 60.439-23.556 88.333 0"/><path fill="url(#d)" d="M70.667 67.906a3.313 3.313 0 0 0 6.625 0h-6.625Zm15.458 0a3.313 3.313 0 0 0 6.625 0h-6.625Zm-8.281 3.313h7.729v-6.625h-7.73v6.625Zm7.729 18.219h-7.73v6.624h7.73v-6.624Zm-7.73 0c-1.849 0-3.058-.003-3.987-.07-.894-.066-1.273-.18-1.491-.276l-2.687 6.055c1.202.534 2.434.736 3.695.828 1.227.09 2.719.088 4.47.088v-6.626Zm-14.906-9.11c0 1.887-.001 3.457.08 4.742.084 1.31.264 2.552.732 3.762l6.18-2.389c-.122-.312-.236-.795-.3-1.794-.065-1.026-.067-2.35-.067-4.32h-6.624Zm9.428 8.764c-1.049-.465-1.951-1.392-2.437-2.649l-6.18 2.39c1.084 2.801 3.19 5.099 5.93 6.314l2.687-6.055Zm21.49-8.764c0 1.972-.003 3.295-.068 4.32-.063 1-.178 1.483-.299 1.795l6.18 2.39c.468-1.21.647-2.453.731-3.763.082-1.285.08-2.855.08-4.742h-6.625Zm-8.282 15.734c1.752 0 3.244.003 4.47-.087 1.262-.092 2.493-.294 3.696-.828l-2.687-6.055c-.218.096-.597.21-1.492.276-.928.067-2.138.07-3.987.07v6.624Zm7.916-9.619c-.486 1.257-1.389 2.184-2.437 2.65l2.687 6.054c2.74-1.215 4.846-3.513 5.929-6.315l-6.18-2.389ZM85.573 71.22c1.85 0 3.059.002 3.987.07.895.065 1.274.179 1.492.275l2.687-6.055c-1.203-.534-2.434-.736-3.696-.828-1.226-.09-2.718-.087-4.47-.087v6.625Zm14.906 9.11c0-1.888.002-3.458-.08-4.743-.084-1.31-.263-2.552-.731-3.762l-6.18 2.389c.121.312.236.795.3 1.794.064 1.026.066 2.35.066 4.321h6.625Zm-9.427-8.765c1.048.466 1.951 1.392 2.436 2.649l6.18-2.39c-1.083-2.8-3.19-5.099-5.93-6.314l-2.686 6.055Zm-13.208-6.97c-1.752 0-3.244-.002-4.47.087-1.262.093-2.494.294-3.696.828l2.687 6.055c.218-.096.597-.21 1.491-.275.93-.068 2.139-.07 3.988-.07v-6.625Zm-8.281 15.734c0-1.972.001-3.295.066-4.32.064-1 .178-1.483.3-1.795l-6.18-2.39c-.468 1.211-.648 2.453-.731 3.763-.082 1.285-.08 2.855-.08 4.742h6.624Zm.115-14.82c-2.74 1.216-4.846 3.514-5.93 6.316l6.18 2.389c.486-1.257 1.388-2.183 2.437-2.649l-2.687-6.055Zm7.614 2.398v-7.453h-6.625v7.453h6.625Zm8.833-7.453v7.453h6.625v-7.453h-6.625Zm-4.417-4.14c2.554 0 4.417 1.966 4.417 4.14h6.625c0-6.058-5.058-10.766-11.042-10.766v6.626Zm-4.416 4.14c0-2.174 1.863-4.14 4.416-4.14v-6.626c-5.983 0-11.041 4.708-11.041 10.766h6.625Z"/><defs><linearGradient id="a" x1="47.48" x2="47.48" y1="61.833" y2="68.458" gradientUnits="userSpaceOnUse"><stop stop-color="#AF9DFF"/><stop offset="1" stop-color="#6340FC"/></linearGradient><linearGradient id="b" x1="46.376" x2="46.376" y1="39.75" y2="53" gradientUnits="userSpaceOnUse"><stop stop-color="#AF9DFF"/><stop offset="1" stop-color="#6340FC"/></linearGradient><linearGradient id="c" x1="52.999" x2="52.999" y1="17.667" y2="35.334" gradientUnits="userSpaceOnUse"><stop stop-color="#AF9DFF"/><stop offset="1" stop-color="#6340FC"/></linearGradient><linearGradient id="d" x1="81.708" x2="81.708" y1="49.688" y2="96.063" gradientUnits="userSpaceOnUse"><stop stop-color="#AF9DFF"/><stop offset="1" stop-color="#6340FC"/></linearGradient></defs></svg>