<svg width="49" height="49" viewBox="0 0 49 49" fill="none" xmlns="http://www.w3.org/2000/svg">
<g clip-path="url(#clip0_1034_387)">
<g clip-path="url(#clip1_1034_387)">
<g clip-path="url(#clip2_1034_387)">
<path d="M41.62 19.5551C41.421 19.5551 41.2303 19.6341 41.0896 19.7748C40.949 19.9154 40.87 20.1062 40.87 20.3051V28.5551C40.87 28.754 40.949 28.9448 41.0896 29.0854C41.2303 29.2261 41.421 29.3051 41.62 29.3051C41.8189 29.3051 42.0096 29.2261 42.1503 29.0854C42.2909 28.9448 42.37 28.754 42.37 28.5551V20.3051C42.37 20.1062 42.2909 19.9154 42.1503 19.7748C42.0096 19.6341 41.8189 19.5551 41.62 19.5551ZM20.132 6.90011L11.632 11.6221C11.5458 11.6699 11.4699 11.7342 11.4086 11.8113C11.3472 11.8884 11.3017 11.9769 11.2746 12.0716C11.2475 12.1663 11.2393 12.2655 11.2505 12.3634C11.2617 12.4612 11.2921 12.556 11.34 12.6421C11.62 13.1631 12.245 12.9981 12.36 12.9331L20.86 8.21111C20.9485 8.16467 21.0269 8.10099 21.0905 8.02381C21.1541 7.94663 21.2016 7.85751 21.2303 7.76169C21.2589 7.66588 21.2681 7.5653 21.2573 7.46588C21.2465 7.36646 21.2159 7.2702 21.1674 7.18277C21.1188 7.09534 21.0533 7.0185 20.9746 6.95678C20.8959 6.89505 20.8057 6.84969 20.7092 6.82335C20.6127 6.79701 20.512 6.79024 20.4128 6.80342C20.3137 6.8166 20.2182 6.84948 20.132 6.90011ZM20.86 39.9001L12.36 35.1771C12.1862 35.0803 11.9812 35.0565 11.7899 35.1109C11.5986 35.1652 11.4368 35.2934 11.34 35.4671C11.2431 35.6408 11.2193 35.8459 11.2737 36.0372C11.3281 36.2285 11.4562 36.3903 11.63 36.4871L20.131 41.2111C20.247 41.2751 20.834 41.4381 21.151 40.9191C21.367 40.5661 21.221 40.1011 20.86 39.9001Z" fill="white" fill-opacity="0.2"/>
<path d="M45.3781 12.1594L25.1281 0.159394C25.0123 0.0908507 24.8802 0.0546875 24.7456 0.0546875C24.611 0.0546875 24.4789 0.0908507 24.3631 0.159394L4.11312 12.1594C4.00107 12.2257 3.90821 12.3201 3.84369 12.4332C3.77916 12.5462 3.74519 12.6742 3.74512 12.8044V35.3044C3.74512 35.5694 3.88512 35.8144 4.11312 35.9494L24.3631 47.9494C24.4789 48.018 24.611 48.0543 24.7456 48.0543C24.8802 48.0543 25.0123 48.018 25.1281 47.9494L45.3781 35.9494C45.49 35.883 45.5826 35.7885 45.647 35.6755C45.7113 35.5624 45.7451 35.4345 45.7451 35.3044V12.8044C45.7453 12.6742 45.7116 12.5463 45.6472 12.4332C45.5829 12.3201 45.4901 12.2257 45.3781 12.1594ZM37.1031 30.1444L36.3851 31.4614L43.4781 35.3304L25.4951 45.9874V37.5544H23.9951V45.9874L6.01212 35.3314L13.1041 31.4624L12.3861 30.1454L5.24512 34.0404V14.0674L12.3851 17.9624L13.1051 16.6454L6.01212 12.7774L23.9951 2.12039V9.80439H25.4951V2.12039L43.4781 12.7774L36.3861 16.6454L37.1041 17.9624L44.2451 14.0674V34.0414L37.1051 30.1454L37.1031 30.1444Z" fill="white" fill-opacity="0.2"/>
<path d="M23.6201 17.3047H25.8701V21.0547H23.6201V17.3047ZM17.9951 26.3047H20.2451V30.0547H17.9951V26.3047Z" fill="#7C43FF"/>
<path d="M24.7451 8.67969L11.2451 16.1797V31.1797L24.7451 38.6797L38.2451 31.1797V16.1797L24.7451 8.67969ZM29.9951 16.5547C29.9951 16.3558 30.0741 16.165 30.2148 16.0244C30.3554 15.8837 30.5462 15.8047 30.7451 15.8047C30.944 15.8047 31.1348 15.8837 31.2754 16.0244C31.4161 16.165 31.4951 16.3558 31.4951 16.5547V21.8047C31.4951 22.0036 31.4161 22.1944 31.2754 22.335C31.1348 22.4757 30.944 22.5547 30.7451 22.5547C30.5462 22.5547 30.3554 22.4757 30.2148 22.335C30.0741 22.1944 29.9951 22.0036 29.9951 21.8047V16.5547ZM17.9951 16.5547C17.9951 16.3558 18.0741 16.165 18.2148 16.0244C18.3554 15.8837 18.5462 15.8047 18.7451 15.8047C18.944 15.8047 19.1348 15.8837 19.2754 16.0244C19.4161 16.165 19.4951 16.3558 19.4951 16.5547V21.8047C19.4951 22.0036 19.4161 22.1944 19.2754 22.335C19.1348 22.4757 18.944 22.5547 18.7451 22.5547C18.5462 22.5547 18.3554 22.4757 18.2148 22.335C18.0741 22.1944 17.9951 22.0036 17.9951 21.8047V16.5547ZM21.7451 30.8047C21.7451 31.0036 21.6661 31.1944 21.5254 31.335C21.3848 31.4757 21.194 31.5547 20.9951 31.5547H17.2451C17.0462 31.5547 16.8554 31.4757 16.7148 31.335C16.5741 31.1944 16.4951 31.0036 16.4951 30.8047V25.5547C16.4951 25.3558 16.5741 25.165 16.7148 25.0244C16.8554 24.8837 17.0462 24.8047 17.2451 24.8047H20.9951C21.194 24.8047 21.3848 24.8837 21.5254 25.0244C21.6661 25.165 21.7451 25.3558 21.7451 25.5547V30.8047ZM25.4951 30.8047C25.4951 31.0036 25.4161 31.1944 25.2754 31.335C25.1348 31.4757 24.944 31.5547 24.7451 31.5547C24.5462 31.5547 24.3554 31.4757 24.2148 31.335C24.0741 31.1944 23.9951 31.0036 23.9951 30.8047V25.5547C23.9951 25.3558 24.0741 25.165 24.2148 25.0244C24.3554 24.8837 24.5462 24.8047 24.7451 24.8047C24.944 24.8047 25.1348 24.8837 25.2754 25.0244C25.4161 25.165 25.4951 25.3558 25.4951 25.5547V30.8047ZM27.3701 21.8047C27.3701 22.0036 27.2911 22.1944 27.1504 22.335C27.0098 22.4757 26.819 22.5547 26.6201 22.5547H22.8701C22.6712 22.5547 22.4804 22.4757 22.3398 22.335C22.1991 22.1944 22.1201 22.0036 22.1201 21.8047V16.5547C22.1201 16.3558 22.1991 16.165 22.3398 16.0244C22.4804 15.8837 22.6712 15.8047 22.8701 15.8047H26.6201C26.819 15.8047 27.0098 15.8837 27.1504 16.0244C27.2911 16.165 27.3701 16.3558 27.3701 16.5547V21.8047ZM32.9951 30.8047C32.9951 31.0036 32.9161 31.1944 32.7754 31.335C32.6348 31.4757 32.444 31.5547 32.2451 31.5547H28.4951C28.2962 31.5547 28.1054 31.4757 27.9648 31.335C27.8241 31.1944 27.7451 31.0036 27.7451 30.8047V25.5547C27.7451 25.3558 27.8241 25.165 27.9648 25.0244C28.1054 24.8837 28.2962 24.8047 28.4951 24.8047H32.2451C32.444 24.8047 32.6348 24.8837 32.7754 25.0244C32.9161 25.165 32.9951 25.3558 32.9951 25.5547V30.8047Z" fill="#7C43FF"/>
<path d="M29.2451 26.3047H31.4951V30.0547H29.2451V26.3047Z" fill="#7C43FF"/>
</g>
</g>
</g>
<defs>
<clipPath id="clip0_1034_387">
<rect width="48" height="48" fill="white" transform="translate(0.745117 0.0546875)"/>
</clipPath>
<clipPath id="clip1_1034_387">
<rect width="48" height="48" fill="white" transform="translate(0.745117 0.0546875)"/>
</clipPath>
<clipPath id="clip2_1034_387">
<rect width="48" height="48" fill="white" transform="translate(0.745117 0.0546875)"/>
</clipPath>
</defs>
</svg>
