<svg xmlns="http://www.w3.org/2000/svg" width="48" height="49" fill="none"><g clip-path="url(#a)"><path fill="#fff" fill-opacity=".2" d="M41.631 8.889C35.179 7.169 31.113 4.138 29.26 2.48A7.918 7.918 0 0 0 24 .5c-1.95 0-3.817.704-5.263 1.984C16.887 4.138 12.82 7.17 6.37 8.889A4.53 4.53 0 0 0 3 13.25v9.323c0 11.338 7.168 21.535 17.834 25.373A9.279 9.279 0 0 0 24 48.5c1.084 0 2.15-.187 3.166-.554C37.833 44.106 45 33.91 45 22.573V13.25a4.53 4.53 0 0 0-3.369-4.361ZM43.5 22.573c0 10.707-6.769 20.337-16.844 23.961h-.002a7.84 7.84 0 0 1-5.31 0C11.27 42.91 4.5 33.28 4.5 22.573V13.25a3.03 3.03 0 0 1 2.256-2.913c6.414-1.708 10.6-4.606 12.98-6.733A6.42 6.42 0 0 1 24 1.999 6.42 6.42 0 0 1 28.263 3.6c2.383 2.13 6.568 5.029 12.982 6.736a3.029 3.029 0 0 1 2.257 2.913v9.323H43.5Z"/><path fill="#fff" fill-opacity=".2" d="M35.672 14.04c.088.034.685.247.969-.43a.742.742 0 0 0-.432-.97c-3.429-1.314-6.511-3.052-9.16-5.166a.753.753 0 0 0-1.055.118.751.751 0 0 0 .119 1.055c2.77 2.208 5.986 4.023 9.559 5.393ZM21.61 41.068c-6.086-2.76-9.954-8.145-10.893-15.167a.75.75 0 1 0-1.486.2c1.01 7.552 5.186 13.353 11.76 16.333.1.046.76.192.993-.373.157-.383.003-.822-.374-.993ZM10.5 22.573V17.45a.75.75 0 0 0-1.5 0v5.123a.75.75 0 1 0 1.5 0Zm1.829-8.532c3.567-1.365 6.783-3.18 9.559-5.394a.75.75 0 0 0-.936-1.173c-2.655 2.118-5.736 3.857-9.16 5.167a.75.75 0 0 0-.432.968c.168.6.88.465.969.432Zm25.797 11.216a.75.75 0 0 0-.843.643c-.94 7.021-4.807 12.408-10.893 15.167a.75.75 0 0 0-.373.993c.258.558.892.42.993.373 6.573-2.98 10.75-8.781 11.76-16.333a.75.75 0 0 0-.645-.843Zm.124-8.557a.75.75 0 0 0-.75.75v5.123a.75.75 0 1 0 1.5 0V17.45a.75.75 0 0 0-.75-.75Z"/><path fill="#fff" fill-opacity=".2" d="M32.25 31.25V21.5c0-4.549-3.701-8.25-8.25-8.25a8.199 8.199 0 0 0-5.833 2.417A8.197 8.197 0 0 0 15.75 21.5v9.75A3.754 3.754 0 0 0 19.5 35h9a3.754 3.754 0 0 0 3.75-3.75ZM19.228 16.728A6.71 6.71 0 0 1 24 14.75a6.757 6.757 0 0 1 6.75 6.75V23H28.5v-1.5a4.504 4.504 0 0 0-7.688-3.182A4.497 4.497 0 0 0 19.5 21.5V23h-2.25v-1.5c0-1.802.703-3.497 1.978-4.772ZM21 23v-1.5c0-.8.312-1.555.872-2.122A3.002 3.002 0 0 1 27 21.5V23h-6Zm-3.75 8.25V24.5h13.5v6.75c0 1.24-1.01 2.25-2.25 2.25h-9c-1.24 0-2.25-1.01-2.25-2.25Z"/><path fill="#7C43FF" d="M24 10.7a3.443 3.443 0 0 1-3.296-2.414 3.667 3.667 0 0 1-.153-1.036A3.454 3.454 0 0 1 24 3.8a3.453 3.453 0 0 1 3.45 3.45 3.6 3.6 0 0 1-.15 1.02A3.445 3.445 0 0 1 24 10.7ZM9.75 18.2a3.454 3.454 0 0 1-3.45-3.45 3.453 3.453 0 0 1 6.398-1.806c.33.54.503 1.162.503 1.805a3.454 3.454 0 0 1-3.45 3.45Zm28.5 0a3.454 3.454 0 0 1-3.45-3.45c0-.643.173-1.266.5-1.8a3.453 3.453 0 0 1 6.4 1.8 3.453 3.453 0 0 1-3.45 3.45ZM24 45.2a3.45 3.45 0 1 0 0-6.9 3.45 3.45 0 0 0 0 6.9Zm.75-17.561v-.889a.75.75 0 1 0-1.5 0v.889a2.251 2.251 0 0 0-1.5 2.111A2.257 2.257 0 0 0 24 32a2.257 2.257 0 0 0 2.25-2.25c0-.974-.63-1.8-1.5-2.111Z"/></g><defs><clipPath id="a"><path fill="#fff" d="M0 .5h48v48H0z"/></clipPath></defs></svg>