<svg xmlns="http://www.w3.org/2000/svg" width="48" height="49" fill="none"><g clip-path="url(#a)"><path fill="#fff" fill-opacity=".2" d="M40.875 20a.75.75 0 0 0-.75.75V29a.75.75 0 1 0 1.5 0v-8.25a.75.75 0 0 0-.75-.75ZM19.387 7.345l-8.5 4.722a.75.75 0 0 0-.292 1.02c.28.521.905.356 1.02.291l8.5-4.722a.75.75 0 1 0-.728-1.311Zm.728 33-8.5-4.723a.749.749 0 1 0-.73 1.31l8.501 4.724c.116.064.703.227 1.02-.292.216-.353.07-.819-.291-1.02Z"/><path fill="#fff" fill-opacity=".2" d="m44.633 12.605-20.25-12a.751.751 0 0 0-.765 0l-20.25 12A.75.75 0 0 0 3 13.25v22.5c0 .265.14.51.368.645l20.25 12a.75.75 0 0 0 .765 0l20.25-12A.75.75 0 0 0 45 35.75v-22.5a.748.748 0 0 0-.367-.645ZM36.358 30.59l-.718 1.317 7.093 3.869L24.75 46.433V38h-1.5v8.433L5.267 35.777l7.092-3.869-.718-1.317L4.5 34.486V14.513l7.14 3.895.72-1.317-7.093-3.868L23.25 2.566v7.684h1.5V2.566l17.983 10.657-7.092 3.868.718 1.317 7.141-3.895v19.974l-7.14-3.896Z"/><path fill="#7C43FF" d="M22.875 17.75h2.25v3.75h-2.25v-3.75Zm-5.625 9h2.25v3.75h-2.25v-3.75Z"/><path fill="#7C43FF" d="m24 9.125-13.5 7.5v15l13.5 7.5 13.5-7.5v-15L24 9.125ZM29.25 17a.75.75 0 1 1 1.5 0v5.25a.75.75 0 1 1-1.5 0V17Zm-12 0a.75.75 0 1 1 1.5 0v5.25a.75.75 0 1 1-1.5 0V17ZM21 31.25a.75.75 0 0 1-.75.75H16.5a.75.75 0 0 1-.75-.75V26a.75.75 0 0 1 .75-.75h3.75A.75.75 0 0 1 21 26v5.25Zm3.75 0a.75.75 0 1 1-1.5 0V26a.75.75 0 1 1 1.5 0v5.25Zm1.875-9a.75.75 0 0 1-.75.75h-3.75a.75.75 0 0 1-.75-.75V17a.75.75 0 0 1 .75-.75h3.75a.75.75 0 0 1 .75.75v5.25Zm5.625 9a.75.75 0 0 1-.75.75h-3.75a.75.75 0 0 1-.75-.75V26a.75.75 0 0 1 .75-.75h3.75a.75.75 0 0 1 .75.75v5.25Z"/><path fill="#7C43FF" d="M28.5 26.75h2.25v3.75H28.5v-3.75Z"/></g><defs><clipPath id="a"><path fill="#fff" d="M0 .5h48v48H0z"/></clipPath></defs></svg>