<svg xmlns="http://www.w3.org/2000/svg" width="40" height="40" fill="none"><path fill="#7C43FF" d="M12 17H8a2 2 0 0 0-2 2v13a2 2 0 0 0 2 2h4a2 2 0 0 0 2-2V19a2 2 0 0 0-2-2Zm10 3h-4a2 2 0 0 0-2 2v10a2 2 0 0 0 2 2h4a2 2 0 0 0 2-2V22a2 2 0 0 0-2-2Zm10-4h-4a2 2 0 0 0-2 2v14a2 2 0 0 0 2 2h4a2 2 0 0 0 2-2V18a2 2 0 0 0-2-2ZM9.634 10.931l10.07 3.998a1.014 1.014 0 0 0 .892-.072l8.992-5.354-.119.62a.993.993 0 0 0 .44 1.023 1.01 1.01 0 0 0 .555.163c.234 0 .461-.082.641-.23a.998.998 0 0 0 .347-.584l.53-2.777a.992.992 0 0 0-.44-1.024 1.012 1.012 0 0 0-.365-.145l-2.799-.525a1.014 1.014 0 0 0-1.055.421.997.997 0 0 0 .68 1.542l.164.03-8.18 4.871-9.606-3.814a1.014 1.014 0 0 0-.771.01.997.997 0 0 0-.538.548.993.993 0 0 0 .01.765c.105.243.304.436.552.534Z"/></svg>