<svg xmlns="http://www.w3.org/2000/svg" width="96" height="96" fill="none"><path fill="url(#a)" d="M39.925 55.271c-.481-7.618-.972-15.9 2.216-23.05.767-1.72 1.735-3.452 2.997-4.86 1.127-1.26 2.76-2.534 4.537-2.515 1.914.02 2.844 1.766 3.254 3.402.513 2.05.69 4.22.88 6.318a80.994 80.994 0 0 1-2.089 26.918 80.01 80.01 0 0 1-1.927 6.514c-.567 1.654-1.169 3.402-2.337 4.742-1.091 1.252-2.714 1.865-4.268 1.044-1.538-.812-2.536-2.464-3.268-3.981-3.31-6.859-4.608-14.765-4.264-22.335.35-7.657 2.456-15.253 6.239-21.927 1.864-3.289 4.117-6.858 7.582-8.64 1.665-.856 3.603-1.06 5.249-.045 1.595.984 2.533 2.805 3.196 4.497 3.306 8.425 2.96 17.806 2.432 26.68-.274 4.594-.728 9.184-1.567 13.712-.783 4.23-1.798 8.593-3.587 12.524-1.373 3.016-3.486 6.192-6.864 7.118-3.915 1.074-7.87-1.395-10.06-4.512-2.444-3.48-3.502-7.813-4.446-11.897-1.037-4.484-1.707-9.052-1.934-13.65-.426-8.599.614-17.535 3.995-25.51 2.833-6.682 7.79-13.387 14.951-15.756 1.966-.65 4.117-.931 6.132-.328 1.729.516 3.154 1.703 4.2 3.15 2.328 3.22 3.343 7.405 4.283 11.2 2.21 8.93 2.83 18.202 2.279 27.371-.46 7.648-1.648 15.532-5.155 22.433-1.664 3.276-3.863 6.265-6.66 8.666-3.038 2.609-7.058 4.58-11.157 3.902-7.586-1.255-11.917-9.327-14.116-15.922-2.69-8.07-3.102-16.705-2.141-25.112.98-8.563 3.347-16.986 6.465-25.005 1.519-3.906 3.344-7.754 5.934-11.074.554-.71-.44-1.718-1-1-2.829 3.626-4.792 7.773-6.434 12.048a114.963 114.963 0 0 0-4.195 13.184c-2.212 8.797-3.327 18.013-2.247 27.06.533 4.465 1.583 8.861 3.271 13.035 1.49 3.683 3.505 7.208 6.388 9.985 2.714 2.614 6.249 4.46 10.092 4.34 4.319-.134 8.223-2.525 11.253-5.454 5.754-5.56 8.602-13.408 9.985-21.13 1.635-9.127 1.76-18.678.608-27.868-.608-4.847-1.598-9.643-3.055-14.307-1.125-3.596-2.598-7.503-5.831-9.728-3.608-2.483-8.279-1.556-11.93.313-3.474 1.776-6.387 4.461-8.73 7.556-5.18 6.838-7.55 15.542-8.375 23.966-.94 9.582.245 19.406 2.963 28.624 1.215 4.117 3.003 8.287 6.56 10.906 3.19 2.348 7.488 2.989 10.926.788 3.125-2.002 4.945-5.532 6.181-8.918 1.668-4.566 2.705-9.364 3.397-14.168.693-4.813 1.039-9.667 1.231-14.524.19-4.788.195-9.596-.47-14.351-.334-2.386-.847-4.75-1.602-7.04-.635-1.925-1.393-3.875-2.689-5.461-1.23-1.504-3.027-2.485-4.996-2.458-1.958.027-3.774.964-5.29 2.14-3.232 2.507-5.468 6.297-7.29 9.897a50.1 50.1 0 0 0-4.118 11.394c-1.83 7.97-1.773 16.386.292 24.306.522 2 1.173 3.967 1.955 5.88.72 1.764 1.5 3.51 2.737 4.98 1.115 1.325 2.706 2.366 4.502 2.238 1.795-.129 3.18-1.303 4.156-2.74 1.114-1.64 1.726-3.587 2.338-5.453a80.473 80.473 0 0 0 1.962-7.048 82.823 82.823 0 0 0 1.985-14.149 80.99 80.99 0 0 0-.522-14.478c-.248-1.96-.414-4.098-1.384-5.862-.867-1.576-2.512-2.574-4.331-2.39-3.971.405-6.62 4.458-8.144 7.752-1.722 3.725-2.47 7.794-2.738 11.867-.268 4.063-.063 8.139.194 12.197.057.904 1.472.91 1.414 0Z"/><defs><linearGradient id="a" x1="48" x2="48" y1="8" y2="88" gradientUnits="userSpaceOnUse"><stop stop-color="#747474"/><stop offset="1" stop-color="#202020"/></linearGradient></defs></svg>