<svg xmlns="http://www.w3.org/2000/svg" width="80" height="80" fill="none"><path fill="#7C43FF" d="M40 8 13.334 24v32L40 72l26.667-16V24L40 8Zm21.334 44.98L40 65.781 18.668 52.979V27.02L40 14.22l21.334 12.8v25.96Z"/><path fill="#7C43FF" d="m28 40 12 12 12-12-12-12-12 12Zm12 4.458L35.543 40 40 35.543 44.458 40 40 44.458Z"/><path fill="#7C43FF" d="M40 22.666c-9.574 0-17.332 7.76-17.332 17.334 0 9.572 7.758 17.333 17.333 17.333 9.573 0 17.333-7.76 17.333-17.333 0-9.575-7.76-17.334-17.333-17.334ZM40 52c-6.629 0-12-5.373-12-12 0-6.63 5.372-12 12-12s12 5.37 12 12c0 6.627-5.372 12-12 12Z"/></svg>