<svg xmlns="http://www.w3.org/2000/svg" width="80" height="80" fill="none"><path fill="#7C43FF" d="M8 8v32c0 11.135 5.696 20.935 14.326 26.666H8V72h32c11.135 0 20.935-5.695 26.666-14.326V72H72V40c0-11.135-5.695-20.934-14.322-26.666H72V8H40c-11.135 0-20.934 5.694-26.666 14.323V8H8Z"/><path fill="#06040B" d="M40 66.667c14.728 0 26.667-11.94 26.667-26.667 0-14.727-11.94-26.666-26.667-26.666-14.727 0-26.666 11.939-26.666 26.666 0 14.728 11.939 26.667 26.666 26.667Z"/><path fill="#7C43FF" d="M40 18.666c-11.784 0-21.334 9.55-21.334 21.334 0 11.781 9.55 21.333 21.334 21.333 11.781 0 21.333-9.552 21.333-21.333 0-11.783-9.552-21.334-21.333-21.334ZM40 56c-8.837 0-16-7.164-16-16 0-8.837 7.163-16 16-16 8.836 0 16 7.163 16 16 0 8.836-7.164 16-16 16Z"/><path fill="#7C43FF" d="M40 29.334c-5.892 0-10.666 4.775-10.666 10.666 0 5.89 4.776 10.667 10.666 10.667 5.89 0 10.667-4.776 10.667-10.667 0-5.892-4.776-10.666-10.667-10.666Zm0 16a5.333 5.333 0 1 1 0-10.666 5.333 5.333 0 0 1 0 10.666Z"/></svg>