<svg width="49" height="49" viewBox="0 0 49 49" fill="none" xmlns="http://www.w3.org/2000/svg">
<g clip-path="url(#clip0_1034_414)">
<g clip-path="url(#clip1_1034_414)">
<g clip-path="url(#clip2_1034_414)">
<mask id="mask0_1034_414" style="mask-type:luminance" maskUnits="userSpaceOnUse" x="0" y="0" width="49" height="49">
<path d="M0.745117 0.0546875H48.7451V48.0547H0.745117V0.0546875Z" fill="white"/>
</mask>
<g mask="url(#mask0_1034_414)">
<path d="M43.4951 30.8807V17.2287C44.3415 17.0548 45.102 16.5944 45.6484 15.9252C46.1949 15.2559 46.4939 14.4187 46.4951 13.5547C46.4941 12.5605 46.0986 11.6072 45.3956 10.9042C44.6926 10.2012 43.7394 9.80575 42.7451 9.80469C41.5951 9.80469 40.5781 10.3357 39.8901 11.1527L28.3151 4.88869C28.4201 4.54269 28.4941 4.18469 28.4941 3.80469C28.4931 2.81062 28.0978 1.85756 27.395 1.15456C26.6921 0.451556 25.7392 0.0560109 24.7451 0.0546875C23.7509 0.0557463 22.7977 0.451174 22.0946 1.15421C21.3916 1.85724 20.9962 2.81045 20.9951 3.80469C20.9951 4.18469 21.0681 4.54369 21.1731 4.88869L9.60012 11.1527C9.25185 10.7328 8.81567 10.3944 8.32236 10.1615C7.82906 9.92861 7.29064 9.8068 6.74512 9.80469C5.75088 9.80575 4.79767 10.2012 4.09464 10.9042C3.3916 11.6072 2.99618 12.5605 2.99512 13.5547C2.99648 14.4187 3.29558 15.2558 3.84203 15.925C4.38847 16.5942 5.14887 17.0546 5.99512 17.2287V30.8807C5.14878 31.0546 4.38828 31.515 3.8418 32.1842C3.29533 32.8535 2.9963 33.6907 2.99512 34.5547C2.99618 35.5489 3.3916 36.5021 4.09464 37.2052C4.79767 37.9082 5.75088 38.3036 6.74512 38.3047C7.29064 38.3026 7.82906 38.1808 8.32236 37.9478C8.81567 37.7149 9.25185 37.3766 9.60012 36.9567L21.1721 43.2277C21.06 43.5762 21.0003 43.9396 20.9951 44.3057C20.9964 45.2998 21.392 46.2527 22.095 46.9555C22.798 47.6583 23.7511 48.0536 24.7451 48.0547C25.7394 48.0536 26.6926 47.6582 27.3956 46.9552C28.0986 46.2521 28.4941 45.2989 28.4951 44.3047C28.4899 43.9386 28.4303 43.5752 28.3181 43.2267L39.8901 36.9567C40.2382 37.3768 40.6744 37.7154 41.1677 37.9485C41.661 38.1816 42.1995 38.3035 42.7451 38.3057C43.7394 38.3046 44.6926 37.9092 45.3956 37.2062C46.0986 36.5031 46.4941 35.5499 46.4951 34.5557C46.4938 33.6916 46.1947 32.8544 45.6483 32.185C45.1019 31.5156 44.3414 31.055 43.4951 30.8807ZM42.7451 11.3047C43.9851 11.3047 44.9951 12.3147 44.9951 13.5547C44.9951 14.7947 43.9851 15.8047 42.7451 15.8047C41.5051 15.8047 40.4951 14.7947 40.4951 13.5547C40.4951 12.3147 41.5051 11.3047 42.7451 11.3047ZM24.7451 1.55469C25.9851 1.55469 26.9951 2.56469 26.9951 3.80469C26.9951 5.04469 25.9851 6.05469 24.7451 6.05469C23.5051 6.05469 22.4951 5.04469 22.4951 3.80469C22.4951 2.56469 23.5051 1.55469 24.7451 1.55469ZM4.49512 13.5547C4.49512 12.3147 5.50512 11.3047 6.74512 11.3047C7.98512 11.3047 8.99512 12.3147 8.99512 13.5547C8.99512 14.7947 7.98512 15.8047 6.74512 15.8047C5.50512 15.8047 4.49512 14.7947 4.49512 13.5547ZM6.74512 36.8047C5.50512 36.8047 4.49512 35.7947 4.49512 34.5547C4.49512 33.3147 5.50512 32.3047 6.74512 32.3047C7.98512 32.3047 8.99512 33.3147 8.99512 34.5547C8.99512 35.7947 7.98512 36.8047 6.74512 36.8047ZM24.7451 46.5547C23.5051 46.5547 22.4951 45.5447 22.4951 44.3047C22.4951 43.0647 23.5051 42.0547 24.7451 42.0547C25.9851 42.0547 26.9951 43.0647 26.9951 44.3047C26.9951 45.5447 25.9851 46.5547 24.7451 46.5547ZM27.6051 41.9077C27.2568 41.4862 26.8201 41.1465 26.3258 40.9126C25.8316 40.6788 25.2919 40.5566 24.7451 40.5547C24.1983 40.5566 23.6587 40.6788 23.1644 40.9126C22.6702 41.1465 22.2334 41.4862 21.8851 41.9077L10.3151 35.6377C10.4211 35.2927 10.4951 34.9347 10.4951 34.5547C10.4937 33.6907 10.1947 32.8536 9.64821 32.1844C9.10176 31.5152 8.34137 31.0548 7.49512 30.8807V17.2287C8.34145 17.0548 9.10196 16.5944 9.64843 15.9252C10.1949 15.2559 10.4939 14.4187 10.4951 13.5547C10.4951 13.1747 10.4211 12.8157 10.3151 12.4707L21.8891 6.20669C22.2374 6.62658 22.6736 6.96493 23.1669 7.19784C23.6602 7.43076 24.1986 7.55257 24.7441 7.55469C25.2898 7.55272 25.8284 7.43098 26.3219 7.19805C26.8154 6.96513 27.2517 6.62671 27.6001 6.20669L39.1731 12.4707C39.06 12.8211 38.9996 13.1865 38.9941 13.5547C38.9955 14.4187 39.2946 15.2558 39.841 15.925C40.3875 16.5942 41.1479 17.0546 41.9941 17.2287V30.8807C41.1478 31.0546 40.3873 31.515 39.8408 32.1842C39.2943 32.8535 38.9953 33.6907 38.9941 34.5547C38.9941 34.9347 39.0681 35.2937 39.1731 35.6387L27.6031 41.9077H27.6051ZM42.7451 36.8047C41.5051 36.8047 40.4951 35.7947 40.4951 34.5547C40.4951 33.3147 41.5051 32.3047 42.7451 32.3047C43.9851 32.3047 44.9951 33.3147 44.9951 34.5547C44.9951 35.7947 43.9851 36.8047 42.7451 36.8047Z" fill="white" fill-opacity="0.2"/>
<path d="M24.7448 23.1947L35.9808 16.8747L24.7448 10.5547L13.5098 16.8747L24.7448 23.1947Z" fill="#7C43FF"/>
<path d="M25.4951 24.4931V30.8041C25.4951 31.003 25.4161 31.1937 25.2754 31.3344C25.1348 31.475 24.944 31.5541 24.7451 31.5541C24.5462 31.5541 24.3554 31.475 24.2148 31.3344C24.0741 31.1937 23.9951 31.003 23.9951 30.8041V24.4941L12.7451 18.1641V30.8041L24.7451 37.5541L36.7451 30.8041V18.1641L25.4951 24.4941V24.4931ZM24.7451 34.5541C24.5462 34.5541 24.3554 34.475 24.2148 34.3344C24.0741 34.1937 23.9951 34.003 23.9951 33.8041C23.9951 33.6051 24.0741 33.4144 24.2148 33.2737C24.3554 33.1331 24.5462 33.0541 24.7451 33.0541C24.944 33.0541 25.1348 33.1331 25.2754 33.2737C25.4161 33.4144 25.4951 33.6051 25.4951 33.8041C25.4951 34.003 25.4161 34.1937 25.2754 34.3344C25.1348 34.475 24.944 34.5541 24.7451 34.5541Z" fill="#7C43FF"/>
</g>
</g>
</g>
</g>
<defs>
<clipPath id="clip0_1034_414">
<rect width="48" height="48" fill="white" transform="translate(0.745117 0.0546875)"/>
</clipPath>
<clipPath id="clip1_1034_414">
<rect width="48" height="48" fill="white" transform="translate(0.745117 0.0546875)"/>
</clipPath>
<clipPath id="clip2_1034_414">
<rect width="48" height="48" fill="white" transform="translate(0.745117 0.0546875)"/>
</clipPath>
</defs>
</svg>
