<svg xmlns="http://www.w3.org/2000/svg" width="106" height="106" fill="none"><path stroke="url(#a)" stroke-linejoin="round" stroke-width="6.625" d="M24.29 46.375c.54 0 1.041-.25 2.044-.749l8.063-4.014c3.568-1.776 5.352-2.664 5.352-4.07V19.875m-15.459 26.5c-.54 0-1.04-.25-2.044-.749l-8.062-4.014c-3.568-1.776-5.352-2.664-5.352-4.07V19.875m15.458 26.5V28.71m15.459-8.834c0-1.406-1.784-2.294-5.352-4.07l-8.063-4.014c-1.003-.5-1.504-.749-2.044-.749s-1.04.25-2.044.749l-8.062 4.014c-3.568 1.776-5.352 2.664-5.352 4.07m30.917 0c0 1.407-1.784 2.295-5.352 4.07l-8.063 4.015c-1.003.499-1.504.749-2.044.749M8.832 19.875c0 1.407 1.784 2.295 5.352 4.07l8.062 4.015c1.003.499 1.505.749 2.044.749"/><path stroke="url(#b)" stroke-linejoin="round" stroke-width="6.625" d="M81.708 46.375c.54 0 1.041-.25 2.044-.749l8.063-4.014c3.568-1.776 5.352-2.664 5.352-4.07V19.875m-15.459 26.5c-.539 0-1.04-.25-2.044-.749l-8.062-4.014c-3.568-1.776-5.352-2.664-5.352-4.07V19.875m15.458 26.5V28.71m15.459-8.834c0-1.406-1.784-2.294-5.352-4.07l-8.063-4.014c-1.003-.5-1.504-.749-2.044-.749-.539 0-1.04.25-2.044.749l-8.062 4.014c-3.568 1.776-5.352 2.664-5.352 4.07m30.917 0c0 1.407-1.784 2.295-5.352 4.07l-8.063 4.015c-1.003.499-1.504.749-2.044.749M66.25 19.875c0 1.407 1.784 2.295 5.352 4.07l8.062 4.015c1.003.499 1.505.749 2.044.749"/><path stroke="url(#c)" stroke-linecap="round" stroke-width="6.625" d="M50.793 28.708h4.417"/><path stroke="url(#d)" stroke-linecap="round" stroke-width="6.625" d="M8.832 55.208v15.458c0 6.204 0 9.305 1.489 11.533a8.832 8.832 0 0 0 2.437 2.437c2.228 1.489 5.33 1.489 11.532 1.489"/><path stroke="url(#e)" stroke-linecap="round" stroke-width="6.625" d="M97.166 55.208v15.458c0 6.204 0 9.305-1.489 11.533a8.83 8.83 0 0 1-2.437 2.437c-2.227 1.489-5.33 1.489-11.533 1.489"/><path stroke="url(#f)" stroke-linecap="round" stroke-width="6.625" d="M45.272 74.779c.774-.011 1.629-.011 2.577-.011h10.305c.947 0 1.802 0 2.576.011m-15.458 0c-3.194.045-5.005.277-6.22 1.467-1.509 1.479-1.509 3.858-1.509 8.617 0 4.76 0 7.138 1.51 8.617 1.508 1.478 3.937 1.478 8.796 1.478h10.305c4.858 0 7.287 0 8.796-1.478 1.51-1.479 1.51-3.858 1.51-8.617s0-7.138-1.51-8.617c-1.214-1.19-3.026-1.422-6.22-1.467m-15.458 0v-7.582c0-4.182 3.46-7.572 7.73-7.572 4.268 0 7.728 3.39 7.728 7.572v7.582"/><defs><linearGradient id="a" x1="24.29" x2="24.29" y1="11.042" y2="46.375" gradientUnits="userSpaceOnUse"><stop stop-color="#AF9DFF"/><stop offset="1" stop-color="#6340FC"/></linearGradient><linearGradient id="b" x1="81.708" x2="81.708" y1="11.042" y2="46.375" gradientUnits="userSpaceOnUse"><stop stop-color="#AF9DFF"/><stop offset="1" stop-color="#6340FC"/></linearGradient><linearGradient id="c" x1="53.001" x2="53.001" y1="28.708" y2="29.708" gradientUnits="userSpaceOnUse"><stop stop-color="#AF9DFF"/><stop offset="1" stop-color="#6340FC"/></linearGradient><linearGradient id="d" x1="16.561" x2="16.561" y1="55.208" y2="86.125" gradientUnits="userSpaceOnUse"><stop stop-color="#AF9DFF"/><stop offset="1" stop-color="#6340FC"/></linearGradient><linearGradient id="e" x1="89.437" x2="89.437" y1="55.208" y2="86.125" gradientUnits="userSpaceOnUse"><stop stop-color="#AF9DFF"/><stop offset="1" stop-color="#6340FC"/></linearGradient><linearGradient id="f" x1="53.001" x2="53.001" y1="59.625" y2="94.958" gradientUnits="userSpaceOnUse"><stop stop-color="#AF9DFF"/><stop offset="1" stop-color="#6340FC"/></linearGradient></defs></svg>