<svg width="49" height="49" viewBox="0 0 49 49" fill="none" xmlns="http://www.w3.org/2000/svg">
<g clip-path="url(#clip0_1034_429)">
<g clip-path="url(#clip1_1034_429)">
<g clip-path="url(#clip2_1034_429)">
<mask id="mask0_1034_429" style="mask-type:luminance" maskUnits="userSpaceOnUse" x="0" y="0" width="49" height="49">
<path d="M0.745117 0.0546875H48.7451V48.0547H0.745117V0.0546875Z" fill="white"/>
</mask>
<g mask="url(#mask0_1034_429)">
<path d="M38.2451 23.3047V24.0547C38.2451 25.4471 37.692 26.7824 36.7074 27.767C35.7229 28.7516 34.3875 29.3047 32.9951 29.3047H16.4951C15.1027 29.3047 13.7674 28.7516 12.7828 27.767C11.7982 26.7824 11.2451 25.4471 11.2451 24.0547V23.3047C9.65382 23.3047 8.1277 23.9368 7.00248 25.062C5.87726 26.1873 5.24512 27.7134 5.24512 29.3047C5.24512 30.896 5.87726 32.4221 7.00248 33.5473C8.1277 34.6725 9.65382 35.3047 11.2451 35.3047H22.4951L23.0581 34.5547L24.7451 32.3047L26.4331 34.5547L26.9951 35.3047H38.2451C39.8364 35.3047 41.3625 34.6725 42.4878 33.5473C43.613 32.4221 44.2451 30.896 44.2451 29.3047C44.2451 27.7134 43.613 26.1873 42.4878 25.062C41.3625 23.9368 39.8364 23.3047 38.2451 23.3047ZM22.1201 43.9297C22.4185 43.9297 22.7046 43.8112 22.9156 43.6002C23.1266 43.3892 23.2451 43.1031 23.2451 42.8047C23.2451 42.5063 23.1266 42.2202 22.9156 42.0092C22.7046 41.7982 22.4185 41.6797 22.1201 41.6797C21.8217 41.6797 21.5356 41.7982 21.3246 42.0092C21.1136 42.2202 20.9951 42.5063 20.9951 42.8047C20.9951 43.1031 21.1136 43.3892 21.3246 43.6002C21.5356 43.8112 21.8217 43.9297 22.1201 43.9297ZM16.8701 43.9297C17.1685 43.9297 17.4546 43.8112 17.6656 43.6002C17.8766 43.3892 17.9951 43.1031 17.9951 42.8047C17.9951 42.5063 17.8766 42.2202 17.6656 42.0092C17.4546 41.7982 17.1685 41.6797 16.8701 41.6797C16.5717 41.6797 16.2856 41.7982 16.0746 42.0092C15.8636 42.2202 15.7451 42.5063 15.7451 42.8047C15.7451 43.1031 15.8636 43.3892 16.0746 43.6002C16.2856 43.8112 16.5717 43.9297 16.8701 43.9297ZM27.3701 43.9297C27.6685 43.9297 27.9546 43.8112 28.1656 43.6002C28.3766 43.3892 28.4951 43.1031 28.4951 42.8047C28.4951 42.5063 28.3766 42.2202 28.1656 42.0092C27.9546 41.7982 27.6685 41.6797 27.3701 41.6797C27.0717 41.6797 26.7856 41.7982 26.5746 42.0092C26.3636 42.2202 26.2451 42.5063 26.2451 42.8047C26.2451 43.1031 26.3636 43.3892 26.5746 43.6002C26.7856 43.8112 27.0717 43.9297 27.3701 43.9297ZM32.6201 43.9297C32.9185 43.9297 33.2046 43.8112 33.4156 43.6002C33.6266 43.3892 33.7451 43.1031 33.7451 42.8047C33.7451 42.5063 33.6266 42.2202 33.4156 42.0092C33.2046 41.7982 32.9185 41.6797 32.6201 41.6797C32.3217 41.6797 32.0356 41.7982 31.8246 42.0092C31.6136 42.2202 31.4951 42.5063 31.4951 42.8047C31.4951 43.1031 31.6136 43.3892 31.8246 43.6002C32.0356 43.8112 32.3217 43.9297 32.6201 43.9297Z" fill="#7C43FF"/>
<path d="M35.9951 37.5538H29.6201L25.3451 31.8538C25.0621 31.4758 24.4281 31.4758 24.1451 31.8538L19.8701 37.5538H13.4951C12.1033 37.5557 10.769 38.1094 9.78485 39.0935C8.80069 40.0777 8.24697 41.412 8.24512 42.8038C8.24697 44.1956 8.80069 45.5299 9.78485 46.5141C10.769 47.4982 12.1033 48.052 13.4951 48.0538H35.9951C37.3869 48.052 38.7212 47.4982 39.7054 46.5141C40.6895 45.5299 41.2433 44.1956 41.2451 42.8038C41.2433 41.412 40.6895 40.0777 39.7054 39.0935C38.7212 38.1094 37.3869 37.5557 35.9951 37.5538ZM35.9951 46.5538H13.4951C12.5009 46.5528 11.5477 46.1573 10.8446 45.4543C10.1416 44.7513 9.74618 43.798 9.74512 42.8038C9.74618 41.8096 10.1416 40.8564 10.8446 40.1533C11.5477 39.4503 12.5009 39.0549 13.4951 39.0538H20.2451C20.3616 39.0538 20.4764 39.0267 20.5805 38.9746C20.6847 38.9226 20.7753 38.847 20.8451 38.7538L24.7451 33.5538L28.6451 38.7538C28.7861 38.9438 29.0091 39.0538 29.2451 39.0538H35.9951C36.9894 39.0549 37.9426 39.4503 38.6456 40.1533C39.3486 40.8564 39.7441 41.8096 39.7451 42.8038C39.7441 43.798 39.3486 44.7513 38.6456 45.4543C37.9426 46.1573 36.9894 46.5528 35.9951 46.5538Z" fill="white" fill-opacity="0.2"/>
<path d="M46.9881 25.0617C46.4321 24.503 45.7708 24.06 45.0425 23.7584C44.3142 23.4568 43.5334 23.3026 42.7451 23.3047H38.9951V15.8047C38.9932 14.7423 38.6157 13.7149 37.9295 12.9039C37.2433 12.0929 36.2925 11.5505 35.2451 11.3727V10.5547C35.2451 4.76469 30.5351 0.0546875 24.7451 0.0546875C18.9551 0.0546875 14.2451 4.76469 14.2451 10.5547V11.3727C13.1977 11.5503 12.2468 12.0926 11.5605 12.9037C10.8743 13.7147 10.4969 14.7423 10.4951 15.8047V23.3047H6.74514C5.95685 23.3024 5.17594 23.4565 4.44762 23.7581C3.7193 24.0597 3.05804 24.5028 2.50214 25.0617C1.94323 25.6176 1.50015 26.2788 1.19856 27.0072C0.896969 27.7355 0.742855 28.5164 0.745142 29.3047C0.745142 32.6127 3.43714 35.3047 6.74514 35.3047H11.2451C9.78472 35.3069 8.37425 34.7732 7.28114 33.8047H6.74514C5.55199 33.8036 4.40802 33.3292 3.56433 32.4855C2.72065 31.6418 2.2462 30.4978 2.24514 29.3047C2.24349 28.7135 2.35913 28.1278 2.58537 27.5817C2.81161 27.0355 3.14395 26.5396 3.56314 26.1227C3.98005 25.7035 4.47595 25.3712 5.02214 25.145C5.56833 24.9188 6.15396 24.8031 6.74514 24.8047H10.5471C10.9181 27.7597 13.4411 30.0547 16.4951 30.0547H32.9951C36.0491 30.0547 38.5721 27.7597 38.9431 24.8047H42.7451C43.3363 24.803 43.922 24.9187 44.4682 25.1449C45.0144 25.3712 45.5103 25.7035 45.9271 26.1227C46.3462 26.5397 46.6784 27.0356 46.9046 27.5818C47.1308 28.1279 47.2466 28.7135 47.2451 29.3047C47.2451 31.7867 45.2271 33.8047 42.7451 33.8047H42.2091C41.116 34.7731 39.7055 35.3068 38.2451 35.3047H42.7451C43.7316 35.3035 44.7025 35.0594 45.5722 34.5939C46.4419 34.1284 47.1836 33.456 47.7318 32.6359C48.28 31.8158 48.6178 30.8733 48.7153 29.8917C48.8129 28.9101 48.6672 27.9196 48.2911 27.0077C47.9898 26.2792 47.5469 25.6178 46.9881 25.0617ZM15.7451 10.5547C15.7451 5.59169 19.7821 1.55469 24.7451 1.55469C29.7081 1.55469 33.7451 5.59169 33.7451 10.5547V11.3047H31.4951V10.5547C31.4933 8.76505 30.7815 7.04923 29.5161 5.78376C28.2506 4.51829 26.5348 3.80654 24.7451 3.80469C22.9555 3.80654 21.2397 4.51829 19.9742 5.78376C18.7087 7.04923 17.997 8.76505 17.9951 10.5547V11.3047H15.7451V10.5547ZM29.9951 10.5547V11.3047H19.4951V10.5547C19.497 9.16287 20.0507 7.82859 21.0349 6.84442C22.019 5.86026 23.3533 5.30654 24.7451 5.30469C26.137 5.30654 27.4712 5.86026 28.4554 6.84442C29.4396 7.82859 29.9933 9.16287 29.9951 10.5547ZM37.4951 24.0547C37.4951 26.5367 35.4771 28.5547 32.9951 28.5547H16.4951C15.3021 28.5534 14.1582 28.0788 13.3146 27.2352C12.471 26.3916 11.9965 25.2478 11.9951 24.0547V15.8047C11.9951 14.4107 12.9551 13.2467 14.2451 12.9117V14.3047C14.2451 18.6627 16.8671 22.5017 20.9251 24.0867C22.1425 24.5624 23.4382 24.8059 24.7451 24.8047C26.1242 24.8054 27.4898 24.5339 28.7637 24.0059C30.0377 23.4779 31.1949 22.7037 32.1691 21.7277C32.2407 21.6585 32.2978 21.5757 32.3371 21.4842C32.3764 21.3926 32.397 21.2942 32.3978 21.1946C32.3986 21.095 32.3796 20.9963 32.3419 20.9041C32.3041 20.812 32.2484 20.7283 32.1779 20.6579C32.1075 20.5875 32.0237 20.5319 31.9315 20.4942C31.8393 20.4565 31.7406 20.4376 31.641 20.4385C31.5414 20.4394 31.443 20.4601 31.3515 20.4995C31.26 20.5388 31.1773 20.596 31.1081 20.6677C30.4577 21.3186 29.7114 21.8659 28.8951 22.2907L28.4881 19.4477C28.4624 19.2692 28.3733 19.106 28.237 18.9879C28.1007 18.8698 27.9265 18.8048 27.7461 18.8047H21.7461C21.5657 18.8045 21.3912 18.8695 21.2547 18.9876C21.1182 19.1057 21.0289 19.269 21.0031 19.4477L20.5981 22.2877C19.1315 21.5343 17.9018 20.3898 17.0453 18.9809C16.1888 17.572 15.7388 15.9535 15.7451 14.3047V12.8047H33.7451V14.3047C33.7492 15.751 33.4005 17.1766 32.7291 18.4577C32.6836 18.545 32.6557 18.6405 32.647 18.7386C32.6383 18.8367 32.649 18.9356 32.6786 19.0295C32.7081 19.1235 32.7558 19.2108 32.8191 19.2863C32.8823 19.3618 32.9598 19.4241 33.0471 19.4697C33.1345 19.5153 33.2299 19.5432 33.328 19.5519C33.4262 19.5605 33.525 19.5498 33.619 19.5203C33.713 19.4907 33.8002 19.443 33.8757 19.3798C33.9513 19.3165 34.0136 19.239 34.0591 19.1517C34.8376 17.6545 35.2448 15.9921 35.2461 14.3047V12.9117C35.8885 13.0768 36.4579 13.4505 36.8651 13.974C37.2723 14.4976 37.4942 15.1414 37.4961 15.8047L37.4951 24.0547ZM22.0281 22.8767L22.3951 20.3047H27.0951L27.4621 22.8767C25.6935 23.4331 23.7968 23.4331 22.0281 22.8767Z" fill="white" fill-opacity="0.2"/>
</g>
</g>
</g>
</g>
<defs>
<clipPath id="clip0_1034_429">
<rect width="48" height="48" fill="white" transform="translate(0.745117 0.0546875)"/>
</clipPath>
<clipPath id="clip1_1034_429">
<rect width="48" height="48" fill="white" transform="translate(0.745117 0.0546875)"/>
</clipPath>
<clipPath id="clip2_1034_429">
<rect width="48" height="48" fill="white" transform="translate(0.745117 0.0546875)"/>
</clipPath>
</defs>
</svg>
