<svg xmlns="http://www.w3.org/2000/svg" width="106" height="106" fill="none"><path stroke="url(#a)" stroke-linejoin="round" stroke-width="6.625" d="M51.574 38.308a1.691 1.691 0 0 1 2.854 0l1.924 3.022a27.064 27.064 0 0 0 8.302 8.302l3.022 1.923a1.692 1.692 0 0 1 0 2.855l-3.022 1.923a27.066 27.066 0 0 0-8.302 8.303l-1.924 3.022a1.691 1.691 0 0 1-2.854 0l-1.923-3.022a27.066 27.066 0 0 0-8.303-8.303l-3.022-1.923a1.692 1.692 0 0 1 0-2.855l3.022-1.923a27.064 27.064 0 0 0 8.303-8.302l1.923-3.022Z"/><path stroke="url(#b)" stroke-linejoin="round" stroke-width="6.625" d="M17.254 23.337c13.094.948 21.537-12.308 35.86-12.308 14.11-.281 21.014 12.485 35.479 12.485 7.754 39.47-8.378 64.264-35.36 71.427-25.012-5.945-43.806-30.993-35.98-71.604Z"/><defs><linearGradient id="a" x1="53.001" x2="53.001" y1="37.524" y2="68.441" gradientUnits="userSpaceOnUse"><stop stop-color="#AF9DFF"/><stop offset="1" stop-color="#6340FC"/></linearGradient><linearGradient id="b" x1="52.999" x2="52.999" y1="11.024" y2="94.941" gradientUnits="userSpaceOnUse"><stop stop-color="#AF9DFF"/><stop offset="1" stop-color="#6340FC"/></linearGradient></defs></svg>