<svg xmlns="http://www.w3.org/2000/svg" width="158" height="40" fill="none"><path fill="#fff" d="M17.983 3.334c-3.033 0-5.483 2.42-5.483 5.417 0 2.973 2.45 5.393 5.46 5.416a1.36 1.36 0 0 1-1.33-1.36c0-.737.607-1.36 1.377-1.36h13.72c2.263 0 4.106-1.82 4.106-4.056 0-2.236-1.843-4.057-4.106-4.057H17.983Z"/><path fill="#fff" d="M11.317 14.167c-3.033 0-5.483 2.42-5.483 5.417 0 2.973 2.45 5.393 5.46 5.416a1.36 1.36 0 0 1-1.33-1.36c0-.737.607-1.36 1.377-1.36h13.72c2.263 0 4.106-1.82 4.106-4.056 0-2.236-1.843-4.057-4.106-4.057H11.317Z" opacity=".9"/><path fill="#fff" d="M6.709 25c-3.25 0-5.875 2.606-5.875 5.833 0 3.203 2.625 5.809 5.85 5.834a1.462 1.462 0 0 1-1.425-1.465c0-.794.65-1.464 1.475-1.464h14.7c2.425 0 4.4-1.961 4.4-4.37 0-2.407-1.975-4.368-4.4-4.368H6.709Z" opacity=".8"/><path fill="#fff" d="M44.15 28.257v-17.5H55.4v3h-7.95v4.175h7.25v3h-7.25v4.325h8.1v3h-11.4Zm12.693 5v-17.4h3.1v1.5h.45c.283-.483.725-.908 1.325-1.275.6-.383 1.458-.575 2.575-.575 1 0 1.925.25 2.775.75.85.484 1.534 1.2 2.05 2.15.517.95.775 2.1.775 3.45v.4c0 1.35-.258 2.5-.775 3.45-.516.95-1.2 1.675-2.05 2.175a5.518 5.518 0 0 1-2.775.725c-.75 0-1.383-.091-1.9-.275-.5-.166-.908-.383-1.225-.65a4.687 4.687 0 0 1-.725-.85h-.45v6.425h-3.15Zm6.5-7.4c.983 0 1.792-.308 2.425-.925.65-.633.975-1.55.975-2.75v-.25c0-1.2-.325-2.108-.975-2.725-.65-.633-1.458-.95-2.425-.95-.967 0-1.775.317-2.425.95-.65.617-.975 1.525-.975 2.725v.25c0 1.2.325 2.117.975 2.75.65.617 1.459.925 2.425.925Zm8.192 2.4v-12.4h3.15v12.4h-3.15Zm1.576-13.85a2.07 2.07 0 0 1-1.45-.55c-.384-.366-.576-.85-.576-1.45s.192-1.083.576-1.45c.4-.366.883-.55 1.45-.55.583 0 1.066.184 1.45.55.383.367.574.85.574 1.45s-.191 1.084-.575 1.45c-.383.367-.866.55-1.45.55Zm9.64 14.2c-1.2 0-2.291-.25-3.275-.75a5.663 5.663 0 0 1-2.3-2.175c-.567-.95-.85-2.1-.85-3.45v-.35c0-1.35.284-2.5.85-3.45a5.663 5.663 0 0 1 2.3-2.175c.984-.5 2.075-.75 3.275-.75 1.183 0 2.2.209 3.05.625.85.417 1.534.992 2.05 1.725a5.774 5.774 0 0 1 1.05 2.45l-3.05.65c-.067-.5-.216-.95-.45-1.35a2.501 2.501 0 0 0-1-.95c-.416-.233-.941-.35-1.575-.35-.633 0-1.208.142-1.725.425-.5.267-.9.675-1.2 1.225-.283.534-.425 1.192-.425 1.975v.25c0 .784.142 1.45.425 2 .3.534.7.942 1.2 1.225.517.267 1.092.4 1.725.4.95 0 1.667-.241 2.15-.725.5-.5.817-1.15.95-1.95l3.05.725a6.865 6.865 0 0 1-1.125 2.425c-.516.717-1.2 1.284-2.05 1.7-.85.417-1.867.625-3.05.625Zm12.299-.15c-.967 0-1.817-.216-2.55-.65a4.613 4.613 0 0 1-1.675-1.85c-.4-.783-.6-1.683-.6-2.7v-7.4h3.15v7.15c0 .934.225 1.634.675 2.1.466.467 1.125.7 1.975.7.966 0 1.716-.316 2.25-.95.533-.65.8-1.55.8-2.7v-6.3h3.15v12.4h-3.1v-1.625h-.45c-.2.417-.575.825-1.125 1.225-.55.4-1.384.6-2.5.6Zm9.43-.2v-12.4h3.1v1.4h.45c.183-.5.483-.866.9-1.1.433-.233.933-.35 1.5-.35h1.5v2.8h-1.55c-.8 0-1.458.217-1.975.65-.517.417-.775 1.067-.775 1.95v7.05h-3.15Zm8.662 0v-12.4h3.15v12.4h-3.15Zm1.575-13.85c-.567 0-1.05-.183-1.45-.55-.383-.366-.575-.85-.575-1.45s.192-1.083.575-1.45c.4-.366.883-.55 1.45-.55.583 0 1.067.184 1.45.55.383.367.575.85.575 1.45s-.192 1.084-.575 1.45c-.383.367-.867.55-1.45.55Zm9.716 14.2c-1.234 0-2.342-.25-3.325-.75a5.616 5.616 0 0 1-2.325-2.175c-.567-.95-.85-2.091-.85-3.425v-.4c0-1.333.283-2.475.85-3.425a5.616 5.616 0 0 1 2.325-2.175c.983-.5 2.091-.75 3.325-.75 1.233 0 2.341.25 3.325.75a5.628 5.628 0 0 1 2.325 2.175c.566.95.85 2.092.85 3.425v.4c0 1.334-.284 2.475-.85 3.425a5.628 5.628 0 0 1-2.325 2.175c-.984.5-2.092.75-3.325.75Zm0-2.8c.966 0 1.766-.308 2.4-.925.633-.633.95-1.533.95-2.7v-.25c0-1.166-.317-2.058-.95-2.675-.617-.633-1.417-.95-2.4-.95-.967 0-1.767.317-2.4.95-.634.617-.95 1.509-.95 2.675v.25c0 1.167.316 2.067.95 2.7.633.617 1.433.925 2.4.925Zm12.882 2.65c-.966 0-1.816-.216-2.55-.65a4.618 4.618 0 0 1-1.675-1.85c-.4-.783-.6-1.683-.6-2.7v-7.4h3.15v7.15c0 .934.225 1.634.675 2.1.467.467 1.125.7 1.975.7.967 0 1.717-.316 2.25-.95.534-.65.8-1.55.8-2.7v-6.3h3.15v12.4h-3.1v-1.625h-.45c-.2.417-.575.825-1.125 1.225-.55.4-1.383.6-2.5.6Zm14.581.15c-1.617 0-2.942-.35-3.975-1.05-1.034-.7-1.659-1.7-1.875-3l2.9-.75c.116.584.308 1.042.575 1.375.283.334.625.575 1.025.725.416.134.866.2 1.35.2.733 0 1.275-.125 1.625-.375.35-.266.525-.591.525-.975a.962.962 0 0 0-.5-.875c-.334-.216-.867-.391-1.6-.525l-.7-.125a13.24 13.24 0 0 1-2.375-.675c-.717-.3-1.292-.708-1.725-1.225-.434-.516-.65-1.183-.65-2 0-1.233.45-2.175 1.35-2.825.899-.666 2.083-1 3.55-1 1.383 0 2.533.309 3.45.925.916.617 1.516 1.425 1.8 2.425l-2.925.9c-.134-.633-.409-1.083-.825-1.35-.4-.266-.9-.4-1.5-.4s-1.059.109-1.375.325a.95.95 0 0 0-.475.85c0 .4.166.7.5.9.333.184.783.325 1.35.425l.7.125c.933.167 1.775.392 2.525.675.766.267 1.366.659 1.8 1.175.45.5.675 1.184.675 2.05 0 1.3-.475 2.309-1.425 3.025-.934.7-2.192 1.05-3.775 1.05Z"/></svg>