<svg xmlns="http://www.w3.org/2000/svg" width="166" height="40" fill="none"><path fill="#fff" d="m9.86 3.738 4.29 16.012V2.146c.34-.08.685-.15 1.032-.21v17.816l4.826-18.01c.347.032.692.073 1.034.123L16.178 20.02l9.669-16.748c.315.142.625.292.93.451l-9.705 16.81L30.928 6.678c.25.236.493.479.729.729L17.799 21.265l16.813-9.707c.158.305.308.616.45.93L18.32 22.157l18.15-4.864c.05.342.09.687.122 1.035l-18.009 4.825h17.815c-.06.348-.13.691-.21 1.032H18.58l16.015 4.291c-.164.315-.337.624-.52.928l-15.757-4.222 13.161 7.599c-.249.256-.505.505-.769.746l-12.907-7.451 9.767 9.766c-.31.18-.624.352-.944.515l-9.553-9.553 6.26 10.84c-.343.098-.69.185-1.04.262l-6.114-10.588 2.948 11a18.599 18.599 0 0 1-1.064.014l-2.88-10.748v10.48c-.347-.06-.691-.13-1.031-.209v-10.27l-2.54 9.478a18.201 18.201 0 0 1-.958-.41l2.501-9.333-4.695 8.13c-.29-.186-.576-.38-.855-.582l4.657-8.067-6.522 6.523c-.25-.236-.493-.48-.73-.73l6.521-6.52-8.065 4.656a20.045 20.045 0 0 1-.582-.854l8.135-4.697-9.337 2.502a18.194 18.194 0 0 1-.41-.958l9.477-2.54H.479a18.367 18.367 0 0 1-.209-1.029h10.476L.002 20.273a18.711 18.711 0 0 1 .015-1.063l11 2.948L.429 16.044c.077-.35.164-.698.261-1.04l10.845 6.261-9.556-9.556c.162-.32.334-.635.515-.944l9.77 9.77L4.808 7.623c.242-.263.49-.52.747-.769l7.6 13.164-4.223-15.76a18.3 18.3 0 0 1 .928-.52Zm38.347 24.52h3.99v-6.93h7.957v-3.524h-7.957v-2.963h8.47v-3.5h-12.46v16.916Zm19.241-9.941c1.517 0 2.73.934 2.73 3.617 0 2.637-1.166 3.64-2.73 3.64-1.563 0-2.73-1.003-2.73-3.64 0-2.683 1.214-3.617 2.73-3.617Zm0-2.986c-3.476 0-6.65 2.053-6.65 6.603s3.174 6.627 6.65 6.627c3.477 0 6.65-2.077 6.65-6.627s-3.173-6.603-6.65-6.603Zm14.043-.001c-3.803 0-6.416 2.59-6.416 6.58s2.286 6.65 6.416 6.65c2.52 0 5.53-1.19 6.394-4.922H84.29c-.28 1.19-1.143 1.936-2.566 1.936-1.377 0-2.73-.91-2.73-3.64 0-2.683 1.353-3.617 2.73-3.617 1.143 0 2.053.514 2.403 1.984h3.593c-.746-3.78-3.616-4.97-6.23-4.97Zm15.44 5.088c-4.877.373-8.353 1.376-8.353 4.456 0 2.287 1.96 3.687 4.34 3.687 1.796 0 3.29-.49 4.223-1.82l.047 1.517h3.78c-.187-.794-.28-2.264-.28-3.64V23.31l.046-2.73c.07-3.803-1.983-5.274-5.6-5.274-3.733 0-5.973 2.1-6.16 4.457h3.594c.163-1.213 1.003-1.843 2.24-1.843 1.4 0 2.123.513 2.123 2.006v.49Zm.093 2.566c0 2.31-1.166 2.963-2.706 2.963-1.004 0-1.774-.536-1.774-1.353 0-1.353 1.797-1.657 4.48-1.913v.303Zm9.536-11.644h-3.85v16.917h3.85V11.341Zm2.455 0v16.917h3.99v-5.856h2.52c4.387 0 7.677-1.097 7.677-5.553 0-4.434-3.29-5.507-7.677-5.507h-6.51Zm6.627 3.36c1.866 0 3.336.374 3.336 2.148 0 1.773-1.47 2.193-3.336 2.193h-2.637V14.7h2.637Zm14.323 3.617c1.517 0 2.73.934 2.73 3.617 0 2.637-1.166 3.64-2.73 3.64-1.563 0-2.73-1.003-2.73-3.64 0-2.683 1.214-3.617 2.73-3.617Zm0-2.986c-3.476 0-6.65 2.053-6.65 6.603s3.174 6.627 6.65 6.627c3.477 0 6.65-2.077 6.65-6.627s-3.173-6.603-6.65-6.603Zm8.191.373v12.553h3.873V15.704h-3.873Zm0-4.363v3.08h3.85v-3.08h-3.85Zm10.014 4.363h-3.85v12.553h3.85v-6.44c0-2.333.677-3.406 2.333-3.406 1.867 0 1.937 1.47 1.937 3.266v6.58h3.85v-7.536c0-3.407-1.003-5.297-4.223-5.297-1.984 0-3.337 1.003-3.897 1.937v-1.657Zm10.782 0h-1.983v2.73h1.983v6.3c0 2.917 1.05 3.523 4.154 3.523h2.45v-2.776h-1.097c-1.283 0-1.657-.234-1.657-1.424v-5.623h2.754v-2.73h-2.754v-3.43h-3.85v3.43Z"/></svg>