<svg xmlns="http://www.w3.org/2000/svg" width="328" height="220" fill="none"><g clip-path="url(#a)"><mask id="d" width="1012" height="1019" x="-272" y="-400" maskUnits="userSpaceOnUse" style="mask-type:alpha"><g clip-path="url(#b)"><mask id="c" width="316" height="211" x="6" y="22" maskUnits="userSpaceOnUse" style="mask-type:luminance"><path fill="#fff" d="M321.405 22.07H6.207v210.278h315.198V22.069Z"/></mask><g stroke="#fff" stroke-miterlimit="10" mask="url(#c)"><path d="M43.695 219.029 5.928 232.487l-29.237-13.458"/><path d="m14.243 206.259-37.55 12.771-27.724-12.771m161.73 12.771-35.94 13.458-31.064-13.458"/><path d="m79.514 206.259-35.82 12.771-29.454-12.771"/><path d="M49.901 194.141 14.242 206.26l-27.969-12.119"/><path d="m21.744 182.61-35.47 11.531-26.596-11.531m218.023 36.42-34.118 13.458-32.886-13.458m34.091-12.771-34.091 12.771-31.183-12.771m34.014-12.119-34.013 12.119L49.9 194.14m33.908-11.531L49.9 194.14l-28.158-11.531m33.768-10.976-33.77 10.976-26.805-10.976"/><path d="m28.537 161.176-33.6 10.458-25.552-10.458m275.329 57.854-32.297 13.458-34.714-13.458m32.36-12.771-32.36 12.771-32.914-12.771"/><path d="M177.157 194.141 144.79 206.26l-31.261-12.119m32.338-11.531-32.339 11.531-29.72-11.531m32.278-10.976L83.81 182.61l-28.298-10.976m32.184-10.458-32.185 10.458-26.974-10.458m32.066-9.982-32.066 9.982-25.734-9.982"/><path d="m34.728 141.662-31.926 9.533-24.585-9.533m31.766-9.119-31.765 9.119-23.507-9.119m357.006 86.487-30.469 13.458-36.535-13.458"/><path d="m275.329 206.26-30.616 12.771-34.651-12.771m30.722-12.119-30.721 12.119-32.907-12.119"/><path d="m207.933 182.61-30.777 11.531-31.289-11.531m30.791-10.976-30.791 10.976-29.783-10.976m30.77-10.458-30.77 10.458-28.389-10.458m30.716-9.982-30.715 9.982-27.093-9.982"/><path d="m91.24 141.662-30.637 9.533-25.875-9.533m30.526-9.119-30.525 9.119-24.747-9.119m30.407-8.727-30.406 8.727-23.682-8.727m30.258-8.355-30.26 8.355-22.694-8.355m415.118 103.568-28.641 13.458-38.363-13.458"/><path d="m340.604 206.259-28.886 12.771-36.388-12.771"/><path d="m304.413 194.14-29.082 12.119-34.546-12.119m29.214-11.531-29.215 11.531-32.85-11.531m29.3-10.976-29.299 10.976-31.275-10.976m29.348-10.458-29.349 10.458-29.804-10.458"/><path d="m176.21 151.194-29.355 9.982-28.445-9.982m29.335-9.533-29.335 9.533-27.17-9.533m29.286-9.119-29.286 9.119-25.986-9.119m29.223-8.727-29.223 8.727-24.865-8.727"/><path d="m69.514 115.461-29.124 8.355-23.83-8.355m29.02-8.019-29.02 8.019-22.841-8.019m28.892-7.696-28.893 7.696-21.93-7.696m396.252 94.395-27.436 12.119-36.192-12.119m27.652-11.531-27.653 11.531-34.413-11.531m27.815-10.976-27.814 10.976-32.767-10.976m27.935-10.458-27.934 10.458-31.225-10.458m28.003-9.982-28.003 9.982-29.797-9.982"/><path d="m204.256 141.662-28.046 9.533-28.466-9.533m28.053-9.119-28.053 9.119-27.219-9.119m28.04-8.727-28.039 8.727-26.05-8.727m27.989-8.355-27.99 8.355-24.963-8.355m27.934-8.019-27.934 8.019-23.934-8.019m27.857-7.696-27.856 7.696-22.968-7.696"/><path d="m50.362 92.358-27.751 7.388L.547 92.358m27.647-7.107L.547 92.358l-21.21-7.107m27.522-6.834-27.52 6.834-20.411-6.834m399.46 93.217-26.322 10.976-34.252-10.976m26.506-10.458-26.505 10.458-32.647-10.458m26.644-9.982-26.645 9.982-31.155-9.982"/><path d="m260.762 141.662-26.75 9.533-29.754-9.533m26.812-9.119-26.812 9.119-28.459-9.119m26.853-8.727-26.854 8.727-27.234-8.727m26.856-8.355-26.855 8.355-26.098-8.355m26.848-8.019-26.848 8.019-25.02-8.019m26.805-7.696-26.805 7.696-24.011-7.696"/><path d="m100.186 92.358-26.75 7.388-23.073-7.388m26.681-7.107-26.68 7.107-22.169-7.107m26.588-6.834-26.588 6.834-21.336-6.834"/><path d="M33.357 71.836 6.859 78.418l-20.537-6.582m26.386-6.337-26.385 6.336-19.788-6.336m383.083 85.695-25.3 9.982-32.507-9.982"/><path d="m317.271 141.662-25.461 9.533-31.05-9.533m25.58-9.119-25.58 9.119-29.692-9.119m25.672-8.727-25.671 8.727-28.417-8.727m25.726-8.355-25.727 8.355-27.233-8.355m25.762-8.019-25.762 8.019-26.106-8.019m25.764-7.696-25.762 7.696-25.062-7.696"/><path d="m150.001 92.358-25.748 7.388-24.067-7.388m25.713-7.107-25.714 7.107-23.142-7.107m25.669-6.834-25.67 6.834-22.26-6.834m25.608-6.582-25.608 6.582-21.426-6.582m25.524-6.336-25.524 6.336L12.707 65.5m25.44-6.113-25.44 6.112-19.906-6.112"/><path d="m18.142 53.492-25.341 5.895-19.2-5.895m400.177 88.17-24.158 9.533-32.347-9.533m24.34-9.119-24.34 9.119-30.931-9.119m24.486-8.727-24.487 8.727-29.601-8.727m24.594-8.355-24.592 8.355-28.361-8.355m24.661-8.019-24.662 8.019-27.198-8.019m24.718-7.696-24.718 7.696-26.106-7.696"/><path d="m199.822 92.358-24.746 7.388L150 92.358m24.754-7.107-24.753 7.107-24.103-7.107m24.748-6.834-24.747 6.834-23.184-6.834m24.71-6.582-24.711 6.582-22.323-6.582m24.67-6.336-24.67 6.336-21.51-6.336m24.614-6.112L58.88 65.499l-20.733-6.112"/><path d="m62.69 53.492-24.543 5.895-20.004-5.895M42.61 47.8l-24.466 5.692-19.304-5.691m24.373-5.503L-1.162 47.8l-18.652-5.502m384.73 81.518-23.304 8.727-30.784-8.727m23.459-8.355-23.458 8.355-29.495-8.355m23.577-8.019-23.577 8.019-28.291-8.019m23.674-7.696-23.675 7.696-27.142-7.696m23.745-7.388L225.9 99.746l-26.078-7.388"/><path d="m223.61 85.251-23.787 7.107-25.069-7.107m23.815-6.834-23.815 6.834-24.109-6.834m23.815-6.582-23.815 6.582-23.219-6.582m23.807-6.336-23.807 6.336-22.365-6.336m23.78-6.112-23.78 6.112-21.567-6.112m23.745-5.895-23.745 5.895-20.803-5.895"/><path d="M86.387 47.8 62.69 53.493l-20.082-5.691m23.635-5.504L42.61 47.8l-19.395-5.502m23.555-5.313-23.556 5.313-18.751-5.313"/><path d="M27.942 31.848 4.463 36.986l-18.127-5.138m23.396-4.97-23.395 4.97-17.546-4.97m387.987 80.565-22.491 8.019-29.377-8.019m22.631-7.696-22.632 7.696-28.192-7.696m22.745-7.387-22.744 7.387-27.072-7.388m22.819-7.107-22.82 7.107-26.036-7.107"/><path d="m246.501 78.418-22.89 6.834-25.041-6.834m22.925-6.582-22.925 6.582-24.109-6.582m22.946-6.337-22.946 6.336-23.227-6.336"/><path d="M174.188 59.388 151.235 65.5l-22.393-6.112m22.946-5.896-22.946 5.895-21.602-5.895m22.917-5.692-22.918 5.692-20.852-5.691m22.883-5.502L86.387 47.8l-20.145-5.5m22.834-5.315-22.834 5.313-19.473-5.313"/><path d="m69.556 31.848-22.785 5.138-18.828-5.138m22.721-4.97-22.722 4.97-18.212-4.97"/><path d="M32.376 22.064 9.731 26.879l-17.637-4.816m22.568-4.662-22.569 4.662L-24.99 17.4m374.273 74.96-21.741 7.387-28.081-7.388m21.859-7.107-21.86 7.107-26.995-7.107"/><path d="m294.424 78.418-21.959 6.834-25.965-6.834m22.029-6.582L246.5 78.418l-25.006-6.582m22.092-6.337-22.092 6.336-24.088-6.336"/><path d="M219.534 59.388 197.407 65.5l-23.219-6.112m22.14-5.896-22.141 5.895-22.4-5.895m22.147-5.692-22.148 5.692-21.63-5.691m22.142-5.502L130.157 47.8l-20.887-5.5m22.113-5.315-22.113 5.313-20.194-5.313"/><path d="m111.168 31.848-22.092 5.138-19.521-5.138m22.043-4.97-22.043 4.97-18.89-4.97m21.992-4.815-21.993 4.815-18.289-4.816"/><path d="m54.314 17.401-21.938 4.662L14.662 17.4m355.514 67.851-20.894 7.107-27.962-7.107m21.035-6.834-21.034 6.834-26.897-6.834m21.147-6.582-21.146 6.582-25.896-6.582m21.23-6.336-21.23 6.336-24.943-6.336m21.294-6.112-21.294 6.112-24.053-6.112m21.343-5.895-21.342 5.895-23.206-5.895m21.378-5.692-21.377 5.692-22.393-5.691m21.391-5.503L173.935 47.8l-21.636-5.502m21.397-5.313-21.398 5.313-20.915-5.313"/><path d="m152.774 31.848-21.391 5.138-20.215-5.138m21.363-4.97-21.363 4.97-19.57-4.97m21.342-4.815-21.342 4.815-18.94-4.816"/><path d="m93.96 17.401-21.301 4.662L54.314 17.4m308.293 54.436-20.25 6.582-26.785-6.582m20.361-6.337-20.362 6.336L289.76 65.5m20.467-6.112L289.76 65.5l-24.879-6.112m20.544-5.896-20.544 5.895-24.004-5.895m20.606-5.692-20.607 5.692-23.171-5.691m20.649-5.502L217.705 47.8l-22.379-5.5m20.678-5.315-20.677 5.313-21.63-5.313"/><path d="m194.388 31.848-20.69 5.138-20.923-5.138m20.699-4.97-20.698 4.97-20.243-4.97m20.691-4.815-20.691 4.815-19.592-4.816"/><path d="m133.611 17.401-20.67 4.662L93.959 17.4m261.614 41.987-19.64 6.112-25.706-6.112m19.745-5.895-19.746 5.895-24.802-5.895m19.829-5.692-19.83 5.691-23.941-5.691m19.901-5.502L261.484 47.8l-23.129-5.502"/><path d="m258.31 36.985-19.955 5.313-22.351-5.313"/><path d="m235.995 31.848-19.991 5.138-21.615-5.138m20.017-4.97-20.018 4.97-20.915-4.97m20.032-4.815-20.033 4.815-20.249-4.816"/><path d="m173.263 17.401-20.039 4.662-19.613-4.662M349.029 47.8l-19.059 5.692-24.718-5.691m19.157-5.502L305.252 47.8l-23.871-5.5m19.234-5.315-19.234 5.313-23.072-5.313"/><path d="m277.605 31.848-19.297 5.138-22.316-5.138m19.348-4.97-19.346 4.97-21.588-4.97m19.38-4.815-19.381 4.815-20.901-4.816"/><path d="m212.914 17.401-19.41 4.662-20.242-4.662m169.662 19.584-18.513 5.313-23.794-5.313"/><path d="m319.213 31.848-18.596 5.138-23.01-5.138m18.666-4.97-18.666 4.97-22.267-4.97m18.729-4.815-18.729 4.815-21.553-4.816"/><path d="m252.559 17.401-18.772 4.662-20.873-4.662m147.912 14.447-17.903 5.138-23.71-5.138m18.001-4.97-18.001 4.97-22.94-4.97m18.078-4.815-18.079 4.815-22.204-4.816"/><path d="m292.21 17.401-18.141 4.662-21.51-4.662m102.075 4.662-17.42 4.815-22.862-4.816"/><path d="m331.863 17.401-17.511 4.662-22.141-4.662"/><path d="M-447.824 92.359 155.408-25.643 747.833 92.36"/></g></g></mask><g mask="url(#d)"><path fill="url(#e)" d="M0 0h328v220H0V0Z"/></g></g><defs><clipPath id="a"><path fill="#fff" d="M0 0h328v220H0z"/></clipPath><clipPath id="b"><path fill="#fff" d="M-272-400H740V619H-272z"/></clipPath><linearGradient id="e" x1="143.5" x2="143.5" y1="0" y2="220" gradientUnits="userSpaceOnUse"><stop stop-color="#100B1D" stop-opacity="0"/><stop offset=".245" stop-color="#4408E1" stop-opacity=".3"/><stop offset=".47" stop-color="#4408E1" stop-opacity=".5"/><stop offset=".745" stop-color="#4408E1" stop-opacity=".3"/><stop offset="1" stop-color="#100B1D" stop-opacity="0"/></linearGradient></defs></svg>