<svg xmlns="http://www.w3.org/2000/svg" width="328" height="220" fill="none"><g clip-path="url(#a)"><mask id="c" width="1012" height="1019" x="-272" y="-400" maskUnits="userSpaceOnUse" style="mask-type:alpha"><g stroke="#7C43FF" stroke-miterlimit="10" clip-path="url(#b)"><path d="M191.59 142.31c-41.67 38.01-90.43 52.28-109.02 31.9-18.59-20.38.08-67.63 41.75-105.64 41.67-38.01 90.43-52.29 109.03-31.91 18.59 20.38-.08 67.63-41.75 105.64l-.01.01Z"/><path d="M176.03 125.25c-27.89 25.45-59.54 36.09-70.76 23.79-11.22-12.3 2.28-42.84 30.17-68.29 27.89-25.45 59.54-36.09 70.76-23.79 11.22 12.3-2.28 42.84-30.17 68.29Z"/><path d="M117.471 154.11c.55-14.96 13.34-36.73 34.1-55.67 20.76-18.94 43.61-29.68 58.56-28.86"/><path d="m82.57 174.21 30.73 33.68c18.59 20.38 67.35 6.11 109.02-31.9s60.34-85.27 41.75-105.64l-30.73-33.68"/><path d="M99.19 192.43c18.589 20.38 67.349 6.11 109.019-31.9s60.34-85.27 41.75-105.64"/><path d="m267.231 112.7-30.73-33.68-32.42 10.74c-11.91 4.7-25.29 13.18-37.91 24.69-12.56 11.46-22.21 23.95-27.98 35.35l-13.73 31.44 30.73 33.68m67.128-38.93-46.29-50.74"/><path d="m188.681 200.84-30.71-33.67.02-27.8m-38.922 14.78-22.37 28.05 30.82 33.79M79.44 169.95l25.829-20.91m-29.449-2.45 25.75-12.91 18.65 20.45m-33.8-38.11 22.89-3.38 30.73 33.69m-30.659-62.66 15.98 7.16 30.73 33.69m-15.7-69.13 6.01 16.25 30.73 33.69m-2.081-70.16-5.46 22.49 30.73 33.68m6.14-63.93-15.21 24.46 18.65 20.45m19.489-39.16-23.19 23.8m64.63 28.29-30.79-33.75-30.01 19.68m40.132 73.56-30.7-33.66-27.9-2.52"/><path d="M183.721 133.67c-34.14 31.14-73.68 43.27-88.41 27.12-14.73-16.15.97-54.42 35.1-85.56 34.14-31.14 73.68-43.27 88.41-27.12 14.73 16.15-.97 54.42-35.1 85.56Z"/></g></mask><g mask="url(#c)"><path fill="url(#d)" d="M0 0h328v220H0V0Z"/></g></g><defs><clipPath id="a"><path fill="#fff" d="M0 0h328v220H0z"/></clipPath><clipPath id="b"><path fill="#fff" d="M75 27h196.64v190.56H75z"/></clipPath><linearGradient id="d" x1="143.5" x2="143.5" y1="0" y2="220" gradientUnits="userSpaceOnUse"><stop stop-color="#100B1D" stop-opacity="0"/><stop offset=".245" stop-color="#4408E1" stop-opacity=".3"/><stop offset=".47" stop-color="#4408E1" stop-opacity=".5"/><stop offset=".745" stop-color="#4408E1" stop-opacity=".3"/><stop offset="1" stop-color="#100B1D" stop-opacity="0"/></linearGradient></defs></svg>