<svg xmlns="http://www.w3.org/2000/svg" width="328" height="220" fill="none"><g clip-path="url(#a)"><mask id="c" width="1012" height="1019" x="-272" y="-400" maskUnits="userSpaceOnUse" style="mask-type:alpha"><g stroke="#fff" stroke-miterlimit="10" clip-path="url(#b)"><path d="M.516 11.521c7.233.654 14.445 1.209 22.21.1 39.907-6.818 89.577-18.293 138.126-3.326 92.15 28.404 90.275-8.16 172.94-.665M-1.604 33.54c17.674 1.363 35.425 1.917 52.832-1.94 32.529-5.256 64.769-11.42 97.476-5.61 22.499 3.913 47.439 21.441 70.405 18.891 24.13 0 76.596-22.517 116.269-15.71"/><path d="M-5.951 57.187C44.76 70.236 77.767 43.273 123.11 44.293c34.149.466 51.512 18.947 86.381 20.71 32.929 3.226 79.603-24.48 125.855-13.105"/><path d="M-9.613 83.873c44.61 31.242 84.14-17.695 126.332-19.79 24.274-.92 48.749 14.29 71.048 18.182 34.659 7.517 67.388-5.787 101.226-10.222 14.977-2.217 29.4-1.663 44.034 2.805"/><path d="M-9.879 111.911c55.505 51.421 81.478-29.9 138.192-25.5 24.042 1.863 35.979 13.637 61.441 18.028 51.068 11.597 79.114-18.36 139.69-5.998"/><path d="M-6.707 137.034c46.863 40.433 84.517-7.162 93.537-14.38 9.397-7.528 19.26-13.603 30.809-14.945 20.591-2.372 48.771 12.927 65.934 20.311 38.576 18.16 45.487-9.579 142.697-6.619"/><path d="M-3.234 157.389c16.53 8.337 35.39 14.435 53.796 9.723 33.228-8.415 45.443-34.757 72.569-34.092 50.624 3.614 56.093 29.424 107.616 21.619 32.396-6.142 63.105-13.969 95.512-10.321"/><path d="M-1.613 174.684c11.815 4.302 23.087 7.107 35.269 6.841 20.88-.455 49.392-18.437 105.031-16.874 50.49 1.419 42.414 19.091 83.197 9.39 38.808-9.235 71.004-9.423 107.139-7.727M-1.947 191.98c28.978 8.67 58.012-6.086 94.569-5.188 34.048 0 47.628 6.862 97.386 5.199 46.319-1.552 94.625-9.102 141.987-3.592M-2.357 211.26c35.59.742 56.548-11.209 92.76-8.947 26.394 2.583 53.764 17.738 82.787 15.443 24.784-.997 16.874-4.179 57.89-8.315 26.838-3.248 53.464-3.248 79.958-1.341a410.398 410.398 0 0 1 21.734 2.273M-2.379 232.547c48.105-5.433 47.695-9.357 65.746-11.608 48.072-7.65 67.942 21.497 106.362 18.958 28.324-.354 78.326-19.268 162.477-7.284"/><path d="M-2.68 277.237c1.01-28.903-.1-57.175.755-85.812.155-37.54-3.007-42.207-7.511-75.578-4.438-34.37 7.211-65.966 9.397-99.227C.837-3.103.305-29.102-2.28-55.4m22.766 331.184c2.274-29.535 5.237-61.088.621-91.709-7.255-34.979-15.021-70.457-9.474-107.043 3.328-19.402 11.094-37.14 13.335-56.51 3.395-25.82 3.939-52.96-3.384-77.84M46.68 271.129c4.648-17.096 5.092-40.145 3.439-57.574-1.387-14.579-4.527-30.222-8.321-43.781-11.294-32.873-19.615-68.905-5.747-101.61 9.164-23.826 14.157-35.8 17.563-58.583 3.483-23.349 2.95-47.008-6.934-68.494"/><path d="M73.45 266.051c5.303-16.985 8.265-38.05 4.748-59.813-4.504-27.883-46.152-70.933-11.394-152.953 19.282-32.662 23.731-77.097 5.825-112.73"/><path d="M96.926 265.008c9.008-18.348 7.899-38.859 5.048-58.228-10.218-60.223-54.34-65.866-17.274-137.487 8.465-17.007 44.433-57.196 11.627-127.93"/><path d="M118.594 269.066c6.757-16.308 16.742-31.83 15.388-50.322-2.529-27.518-39.185-55.179-43.101-94.792-4.072-41.299 24.585-68.173 30.975-78.672 17.474-31.098 11.161-70.235-3.838-101.577"/><path d="M141.781 274.156c10.994-15.6 28.368-34.835 20.18-56.321-14.112-37.607-44.777-48.206-51.356-91.322-3.272-21.852.799-43.383 19.138-60.933 11.849-13.77 24.708-22.085 24.841-47.119-.378-24.29-10.607-42.54-16.254-70.744"/><path d="M164.503 277.47c14.268-16.364 27.47-43.15 19.094-64.071-20.736-34.89-54.929-64.103-51.523-107.885 1.687-21.797 37.821-39.413 42.104-70.612 2.185-28.925-10.695-55.167-16.908-82.574"/><path d="M184.494 278.59c10.451-17.628 17.44-34.203 15.954-54.325-.533-22.972-45.021-65.091-40.55-109.194 4.038-39.757 34.781-39.347 38.109-73.516 3.351-31.42-23.742-62.141-21.623-85.945"/><path d="M203.354 278.191c9.053-17.894 12.26-37.584 10.385-56.221-2.918-34.369-29.278-54.879-27.925-83.96 2.308-39.17 34.781-62.407 31.93-103.262-.866-21.464-11.405-40.866-17.507-61.377-1.853-5.554-3.018-11.12-1.975-16.32"/><path d="M222.272 277.082c6.823-18.305 9.452-38.128 8.132-57.408-1.753-28.26-15.865-45.766-19.072-69.458-4.238-36.719 21.013-64.37 26.461-98.45 3.672-39.104-22.433-62.552-18.106-95.325"/><path d="M242.664 276.694c5.835-18.215 8.809-36.919 8.92-56.21.244-12.617-.866-25.921-7.523-37.007-31.918-52.929 16.52-113.451 12.071-135.303-1.076-30.666-24.208-61.52-16.763-94.038"/><path d="M265.151 276.472c3.983-18.925 14.534-65.789 7.201-83.572-11.65-26.608-24.963-54.325-14.978-83.705 8.321-22.728 22.744-46.01 16.642-70.955-8.898-33.183-21.246-57.496-15.266-87.553"/><path d="M287.118 276.716c5.248-28.936 16.275-67.241 3.539-92.696-11.649-22.728-19.97-48.782-10.54-74.281 8.321-23.283 21.08-47.12 13.58-71.798-2.94-12.318-7.112-25.677-10.296-38.992-6.224-26.099-5.658-41.731-3.317-53.206m28.257 331.45c3.428-23.382 5.991-48.117 5.702-71.687.466-17.606-6.19-33.682-12.292-50.312-4.993-13.859-2.219-28.826 1.109-43.238 6.102-23.283 16.087-46.01 12.759-69.847-3.384-33.283-14.245-64.858-12.082-98.395"/><path d="M330.098 277.337c.044-15.876 3.339-40.944 2.307-81.754-.144-15.433-4.027-30.4-5.691-45.921-4.449-44.425 9.463-57.873 8.698-113.806-.422-30.6-6.102-60.678-7.389-90.79-7.777-.465-31.453-3.836-55.117 2.262-33.927 8.736-66.467 12.262-99.927 7.872-39.097-5.133-51.756-22.395-175.27-10.61"/></g></mask><g mask="url(#c)"><path fill="url(#d)" d="M0 0h328v220H0V0Z"/></g></g><defs><clipPath id="a"><path fill="#fff" d="M0 0h328v220H0z"/></clipPath><clipPath id="b"><path fill="#fff" d="M-11-60h347v339H-11z"/></clipPath><linearGradient id="d" x1="143.5" x2="143.5" y1="0" y2="220" gradientUnits="userSpaceOnUse"><stop stop-color="#100B1D" stop-opacity="0"/><stop offset=".245" stop-color="#4408E1" stop-opacity=".3"/><stop offset=".47" stop-color="#4408E1" stop-opacity=".5"/><stop offset=".745" stop-color="#4408E1" stop-opacity=".3"/><stop offset="1" stop-color="#100B1D" stop-opacity="0"/></linearGradient></defs></svg>