<svg xmlns="http://www.w3.org/2000/svg" width="328" height="220" fill="none"><g clip-path="url(#a)"><mask id="c" width="1012" height="1019" x="-272" y="-400" maskUnits="userSpaceOnUse" style="mask-type:alpha"><g stroke="#fff" stroke-miterlimit="10" clip-path="url(#b)"><path d="M65.102 208.61h198.22M74.42 199.29h179.581l60.21 60.21h-300l60.21-60.21ZM47.541 259.5l46.83-60.21m-13.5 60.21 33.45-60.21m-.11 60.21 20.07-60.21m13.26 60.21 6.69-60.21m26.641 60.21-6.69-60.21m40.029 60.21-20.07-60.21m53.401 60.21-33.45-60.21m66.779 60.21-46.83-60.21M14.21 159.5h300.001m-300.001 0 60.21-20.07M47.541 159.5l46.83-20.07m-13.5 20.07 33.45-20.07m-.11 20.07 20.07-20.07m13.26 20.07 6.69-20.07m26.641 20.07-6.69-20.07m40.029 20.07-20.07-20.07m53.401 20.07-33.45-20.07m66.779 20.07-46.83-20.07m80.169 20.07L254 139.43m-179.578 0h179.58m-188.9 3.11h198.22M53.07 146.55h222.28m-238.409 5.37h254.54M65.102 10.39h198.22M74.42 19.71h179.581l60.21-60.21h-300l60.21 60.21ZM47.541-40.5l46.83 60.21m-13.5-60.21 33.45 60.21m-.11-60.21 20.07 60.21m13.26-60.21 6.69 60.21m26.641-60.21-6.69 60.21m40.029-60.21-20.07 60.21m53.401-60.21-33.45 60.21m66.779-60.21-46.83 60.21M14.21 59.5h300.001m-300.001 0 60.21 20.07M47.541 59.5l46.83 20.07m-13.5-20.07 33.45 20.07m-.11-20.07 20.07 20.07m13.26-20.07 6.69 20.07m26.641-20.07-6.69 20.07m40.029-20.07-20.07 20.07m53.401-20.07-33.45 20.07m66.779-20.07-46.83 20.07M314.21 59.5 254 79.57m-179.578 0h179.58m-188.9-3.11h198.22M53.07 72.45h222.28M36.941 67.08h254.54"/></g></mask><g mask="url(#c)"><path fill="url(#d)" d="M0 0h328v220H0V0Z"/></g></g><defs><clipPath id="a"><path fill="#fff" d="M0 0h328v220H0z"/></clipPath><clipPath id="b"><path fill="#fff" d="M13-41h302.41v301H13z"/></clipPath><linearGradient id="d" x1="143.5" x2="143.5" y1="0" y2="220" gradientUnits="userSpaceOnUse"><stop stop-color="#100B1D" stop-opacity="0"/><stop offset=".245" stop-color="#4408E1" stop-opacity=".3"/><stop offset=".47" stop-color="#4408E1" stop-opacity=".5"/><stop offset=".745" stop-color="#4408E1" stop-opacity=".3"/><stop offset="1" stop-color="#100B1D" stop-opacity="0"/></linearGradient></defs></svg>