<svg xmlns="http://www.w3.org/2000/svg" width="328" height="220" fill="none"><g clip-path="url(#a)"><mask id="c" width="1012" height="1019" x="-272" y="-400" maskUnits="userSpaceOnUse" style="mask-type:alpha"><mask id="b" width="516" height="727" x="-32" y="-287" maskUnits="userSpaceOnUse" style="mask-type:luminance"><path fill="#fff" d="m32.078 437.462-63.894-.356 4.06-724.023 511.157 2.85-4.053 724.029-447.27-2.5Z"/></mask><g stroke="#4408E1" stroke-linecap="round" mask="url(#b)"><path d="m79.719 21.4-5.399 1.585m8.542-5.692L75.5 21.748m15.557-13.09c-9.683 7.766-18.133 13.65-28.534 28.036"/><path d="M65.159 31.738c-29.344 55.143-29.601 97.946-.857 153.405"/><path d="M61.492 179.74c10.73 15.189 18.686 20.645 28.441 28.628m-15.66-13.517 7.567 4.685m-8.785-5.989 5.688 1.731"/><path d="M39.038 579.053c79.595 27.095 48.886 19.204 133.596 35.518 80.643 4.397 50.139 5.002 133.01-1.5 79.799-16.913 51.345-9.22 123.419-34.426 70.486-35.083 45.71-21.066 107.291-61.822 78.778-67.101 98.063-89.325 150.443-182.066 38.664-91.523 46-118.9 52.433-222.907-5.267-104.086-12.299-131.51-49.928-223.388-51.312-93.181-70.17-115.465-148.4-183.487-61.12-41.329-36.502-27.081-106.599-62.836-71.791-25.883-43.403-17.927-123.024-35.597-82.745-7.278-52.307-6.383-132.983-2.751-84.894 15.505-54.107 7.911-133.985 34.248-76.715 37.914-48.412 20.948-123.776 72.662-68.205 63.06-44.767 38.427-101.121 108.337-48.234 82.257-32.613 51.135-66.762 136.261-22.212 94.274-16.386 59.474-23.886 151.767 6.459 92.345 1.041 57.551 22.179 151.983 33.193 85.448 17.921 54.175 65.233 136.886 55.57 70.444 32.408 45.587 99.902 109.292 74.77 52.418 46.665 35.189 122.951 73.833m27.223-392.818 14.362 1.619m.001 0-11.027.882m0 0 33.417 9.108"/><path d="M103.004 197.852c-15.364-.659-9.781-.112-24.262-2.574m0 0c35.342 16.973 22.423 9.135 56.559 33.478m0 0c-26.24-7.871-26.991-9.036-45.367-20.395m0 0 15.225 20.593m0 0c-25.5-20.823-25.83-22.547-40.858-43.81m-.001.005c1.906 20.145-1.284 12.044 15.53 35.775"/><path d="M79.83 220.918c-4.699-23.212-1.232-15.169-14.236-35.38m5.937 6.37c24.269 6.825 13.031 2.541 50.535 19.836m.008.007c-22.806-3.824-23.603-4.719-40.226-12.215m-.008 0c26.767 21.139 17.625 11.839 40.351 39.895l18.211 8.101"/><path d="M140.411 247.525c-26.503-29.661-16.109-19.823-45.703-42.198l-17.071-8.404m-16.606-18.078c8.556-.323.85-.81 40.714 3.264"/><path d="M101.745 182.103c-12.425 4.238-7.56 2.954-21.132 5.758"/><path d="M80.613 187.861c43.462 11.307 27.545 6.134 69.385 23.205m.002.006c-16.696 1.468-10.276 1.369-27.934.678"/><path d="M122.074 211.75c37.267 24.778 24.137 14.722 56.902 44.475"/><path d="M169.498 308.282c-39.25-16.913-52.716-22.632-92.599-64.903-30.84-43.283-36.08-57.347-46.046-105.718-3.42-53.254-.573-67.844 16.682-114.642 28.026-52.346 39.732-61.178 73.479-87.765 41.148-24.219 54.72-29.714 105.504-36.387 49.638.039 62.63 3.034 106.138 20.915 42.691 24.297 52.531 33.879 80.023 68.225 23.544 38.355 28.5 50.234 36.871 96.479 4.212 75.024-11.996 127.521-74.111 186.554-36.185 26.62-48.234 33.26-96.376 45.626-32.692 4.008-20.07 3.403-54.898 3.1-34.755-4.91-22.166-2.376-54.667-11.477 8.516 43.619 6.671 26.093 8.734 75.886-45.216-18.546-29.12-10.787-69.814-34.439-47.06-36.861-63.36-49.437-101.728-121.835-23.774-65.758-27.525-86.186-21.83-160.684C-.33.037 7.356-19.817 51.543-79.37c33.68-34.208 19.892-22.244 59.577-52.681 40.951-23.264 24.777-15.656 70.196-33.774 44.702-11.129 27.472-8.2 74.975-13.406 45.044 1.066 28.006-.599 74.183 6.641 44.385 13.037 28.579 7.417 68.542 25.001 38.907 23.402 25.277 14.156 58.991 40.717 45.399 45.962 54.647 61.29 78.395 115.478 17.196 56.986 19.787 74.103 15.674 137.038-11.528 61.816-18.054 77.663-49.434 129.423-36.614 46.548-49.645 59.5-106.52 92.945-40.153 17.203-24.295 11.74-68.818 24.35-44.082 6.482-27.004 5.265-74.256 5.936-47.437-5.66-30.24-2.567-74.816-14.117-5.069 52.853-2.07 33.261-13.809 85.508m0 0c-59.689-22.922-38.387-13.208-92.467-43.165-52.525-39.585-34.248-23.942-79.041-68.923-40.206-53.866-26.767-33.248-57.812-90.352-32.48-87.739-37.457-114.853-29.726-214.07C-80.18-10.92-87.636 12.957-63.117-51.11c31.684-56.814 18.02-36.32 58.82-89.798 45.3-44.554 26.845-29.082 79.805-68.173 54.41-29.438 33.002-19.928 92.949-42.284 58.628-13.103 36.106-9.845 97.997-15.064 58.26 2.883 36.324.158 95.691 11.05 56.703 18.236 36.561 10.503 87.306 34.346 71.112 45.074 87.142 61.935 132.305 122.744 38.169 66.706 46.012 86.995 59.366 165.678 4.192 79.934.752 101.573-21.27 173.859-32.362 73.965-45.156 91.931-99.21 147.686-42.757 34.498-25.428 22.422-74.895 53.089-51.009 23.357-30.794 15.821-87.689 33.518-56.723 9.852-34.65 7.7-95.809 10.141-61.832-5.804-39.349-2.336-97.826-15.992Zm0 0c-19.431 55.591-11.33 35.354-35.902 88.108-75.33-26.752-48.366-15.262-117.059-51.155-63.974-46.002-40.872-26.337-101.28-84.613-52.017-67.239-34.61-41.467-74.816-113.023-30.978-81.118-21.612-50.839-39.52-132.181-5.735-83.389-6.216-51.457.777-138.84 18.811-81.152 9.109-50.971 40.997-131.8 41.004-71.181 23.313-45.574 76.075-112.306 61.061-57.703 37.748-38.256 102.223-83.645 69.088-35.242 41.999-24.008 117.626-50.043 73.458-14.419 45.34-11.095 122.371-15.564 72.002 5.429 45.011 1.382 117.889 16.65 69.175 24.08 44.675 14.018 106.21 44.626 59.235 39.276 38.579 23.949 89.383 67.404 63.691 69.292 78.712 91.556 115.965 181.545 25.033 87.673 28.757 113.76 22.766 209.91-16.801 94.813-26.365 119.321-72.43 199.959-38.855 52.688-22.601 33.485-70.091 84.087-51.286 42.974-30.451 27.838-90.127 66.554-61.878 30.023-37.247 20.184-106.705 43.613-69.635 13.892-42.499 10.556-118.067 15.531-76.991-5.199-48.887-1.606-122.187-16.722l-23.26 43.816"/><path d="M56.121 169.368c37.075-1.178 22.443-1.533 64.396 2.08m-.006 0c-10.809 7.081-6.472 4.666-18.765 10.655m0 0c46.079 10.444 28.935 5.666 74.856 21.395m.008.006c-15.628 5.535-9.505 3.85-26.602 7.568m-.008 0c41.458 23.245 25.864 13.07 68.067 43.692M55.695 168.546c8.84-7.411 5.61-4.35 14.06-13.531 38.393-.882 23.391-1.171 65.97 1.652"/><path d="M135.724 156.667c-8.516 9.418-4.989 6.055-15.212 14.781m0 0c48.366 8.918 30.161 4.85 79.641 18.25m.007-.001c-13.558 9.155-8.127 6.029-23.551 13.801m0 .006c47.015 21.355 28.988 12.024 78.462 40.059m-82.436 371.008c40.49-105.553 54.404-152.292 35.83-261.327-39.962-10.806-25.574-5.963-62.583-21.56-2.861-41.533-.303-26.594-10.408-65.515-33.852-20.631-34.445-22.632-55.642-45.251-12.543 96.024-128.007 172.615-217.344 233.714M55.03 167.256c-.521 15.518 1.192 9.45-8.45 26.647-60.204 61.164-175.681 101.776-267.971 136.34M44.23 128.486c-3.566 5.673-3.467.369 2.234 28.148m.001-.006 1.819-8.378"/><path d="m30.85 137.661-19.009 5.535-2.247-34.867 30.405.053 1.562 24.356-10.71 4.923Zm12.86-17.322c1.965-.335 1.675-1.29.317 4.982m2.933 16.459 9.275-2.02m-.001 0c-5.971 11.372-4.607 9.029-6.703 11.99m2.074 5.871 18.146-2.606c7.461-10.596 4.983-6.601 10.645-17.447 38.024-.454 23.023-.671 66.05 1.198"/><path d="M146.448 138.76c-5.702 11.128-3.204 7.035-10.718 17.907m-.007 0c47.878 6.548 28.605 3.238 83.47 14.005m.009-.001c-10.658 12.116-6.242 7.779-19.042 19.026m0 0c51.853 18.144 31.73 10.234 87.465 33.959m-37.807 60.006c53.652 60.552 65.404 80.809 95.289 149.791-50.291 8.062-30.768 6.417-84.848 7.871-54.47-5.824-34.703-2.514-86.055-15.182-68.877-27.391-70.531-30.938-117.091-66.752-32.244 42.83-18.245 26.219-60.145 72.208l-42.552-41.915c-60.27-79.374-59.762-84.745-87.808-159.387 64.185-18.269 94.32-26.101 152.309-52.945l-7.073-34.156c-87.411 19.355-185.317 30.036-277.692 40.823m.864-153.858c35.664 4.52 294.36 34.083 309.448 58.05m-263.359-203.849C-124.713-79.285-42.001-49.019 31.794 6.776c18.903 19.506 13.703 12.537 23.616 30.55l.277 12.214"/><path d="M287.623 223.662c46.138-42.066 57.343-79.736 54.279-132.365-9.571-51.069-29.166-85.797-85.336-116.13-32.613-12.57-42.19-13.978-75.95-13.392-36.087 5.33-45.525 9.378-74.111 26.561-27.393 21.902-27.386 23.83-40.048 42.922m-315.512 227.79c75.324-18.223 48.386-11.549 115.662-28.752-16.537-76.301-12.293-48.187-17.328-122.645 5.873-74.432 1.325-46.364 18.706-122.474C-67.304 4.262-36.945 12.653 19.693 39.4 34.213.254 27.53 14.687 48.233-23.714c15.7 25.252 11.633 16.216 18.62 39.585l-1.694 15.874"/><path d="M65.16 31.738C80.01 11.198 76.129 19.273 81.091-3.78c-3.374-28.194-.725-17.322-12.47-47.706-50.455-82.382-113.526-125.705-202.25-187.739m791.621 624.992c-68.172-64.37-131.21-108.16-295.231-172.365-82.943-28.549-85.349-28.253-143.562-42.731"/><path d="M219.201 170.672c23.182-34.419 26.589-61.829 13.822-100.105-19.885-40.947-44.965-55.748-81.875-64.152-25.337-2.481-38.321-2.277-68.285 10.878m0 0L105.36.018m-.002 0-14.303 8.64m.001.001c19.457-25.6 13.426-15.42 25.6-44.883 5.491-35.887 4.719-22.053 2.604-60.632-23.116-99.94-63.81-147.778-138.87-233.509"/><path d="M-247.348-44.7c75.12 18.966 48.254 12.03 115.332 29.877 26.794-68.996 14.514-43.698 52.473-110.726C-35-182.943-53.581-162.614.585-214.881c60.006 67.246 70.177 84.916 91.881 138.874 32.119-25.008 19.213-16.466 55.906-37.723-3.328 41.402-.599 26.535-11.139 65.232-25.883 15.42-16.781 9.24-39.435 27.252C52.51 26.079 43.87 56.937 40.001 108.375c33.397-.448.164-.514 76.707.026-.705-11.306-.309-17.973-10.282-37.762"/><path d="M106.434 70.646c44.964-1.895 27.603-.704 76.213-5.508 8.72 17.703 10.388 23.119 11.647 43.764l96.132.579c-1.984 28.173-4.304 35.564-16.129 59.611 85.349 20.197 110.863 27.305 200.048 58.045 15.984-34.814 10.85-21.862 21.909-56.544 90.523 16.959 111.859 21.869 172.313 37.61 14.626-81.697 15.74-105.856 1.081-193.325C706.13 4.44 693.014 8.376 727.018-2.22M79.191 19.517c20.908-9.944 11.62-4.231 41.465-26.186 26.833-29.266 17.869-17.65 38.506-51.187 21.026-54.083 25.125-72.859 18.594-149.93-13.545-63.554-15.345-76.196-66.973-176.09"/><path d="M709.417 281.22c-156.343-77.893-383.184-127.054-562.971-142.46 21.606-60.895-19.233-105.942-75.95-111.03m-.004 0c38.506-9.956 32.62-10.424 57.449-4.922"/><path d="M127.94 22.808c-42.816 9.898-28.54 7.568-63.23 10.858m8.146-9.14c23.86-6.371 12.661-2.258 50.362-19.06 37.55-24.277 24.309-14.399 57.39-43.698 45.433-53.806 54.548-72.984 75.666-141.006 13.716-76.551 16.254-105.942-10.743-219.998"/><path d="M374.5-379.421c-1.556 90.7-5.728 103.329-25.778 165.948-30.669 68.654-42.572 88.661-96.956 148.594-58.714 52.162-76.708 61.902-135.646 85.074-41.538 10.233-29.964 8.068-48.577 9.918M43.914 95.457c3.605.684 1.53 20.868 1.246 24.639l17.097-1.244c-2.748 12.754-1.318 7.963-6.024 20.908l24.163-2.191c12.18-33.708 6.473-63.89-23.774-89.786m5.511-10.358 6.11.31m.001-.001-5.174-1.797"/><path d="M736.335 54.523c-191.441 28.785-567.42 52.095-691.037 41.19L44.269 90.7m15.688-49.188 17.651.855m0 0-9.366-4.634m0 .001c57.739-5.14 76.748-9.135 148.796-40.796 73.946-40.737 93.119-56.144 150.43-109.687 84.011-92.806 99.183-133.918 122.51-216.715"/><path d="M57.164 46.769c119.966 5.403 224.001-43.58 320.08-97.736 122.068-78.966 159.98-122.407 209.388-204.296M711.317-57.791C492.055 48.908 135.012 94.62 47.507 74.127m2.181-8.239 1.878.546m.002 0-1.365-1.961"/><path d="M52.43 58.418C148.918 73.646 274.96 35.93 363.92 6.454c165.26-62.54 228.489-105.719 297.143-169.266m-384.995 24.575c-26.273 44.554-15.285 28.463-47.358 70.549-42.75.382-54.449 3.383-91.472 19.197-16.3 31.826-8.832 20.81-31.875 48.509"/><path d="M105.359.017c25.93-11.326 34.11-13.504 64.205-14.228 27.979 2.915 35.81 4.995 61.746 18.677m-.003.001c-75.923 29.424-95.393 33.136-153.705 37.9m.008 0c15.765 10.438 19.265 14.288 28.823 28.28m-.002-.001c-36.383-1.132-23.959-.092-54.865-4.206"/><path d="M51.566 66.434c9.024 17.65 12.59 27.048 10.691 52.411 138.896-3.731 468.091 17.545 673.432 50.306M394.458-96.954c-46.211 35.992-27.967 22.922-79.16 57.262-23.88-13.228-14.382-8.832-41.182-19.487C208.455-8.57 189.281.604 127.938 22.808m0 0c30.405 10.878 41.029 21.836 54.706 42.33 53.494-7.806 32.198-4.193 92.322-15.42m.004-.006c-14.323-22.113-19.662-28.378-43.654-45.245"/><path d="M231.309 4.467c53.039-25.43 33.746-15.407 83.984-44.16 22.937 16.835 14.955 10.28 34.498 28.845 43.113 52.814 54.529 97.44 41.399 164.534-11.785 35.722-16.702 45.653-42.75 76.886-27.788 25.851-29.449 25.601-54.838 39.342m247.305-564.933c-27.3 63.291-33.951 75.452-79.423 132.635-41.92-25.896-25.145-17.13-72.681-38.756-48.122-14.8-29.245-10.483-81.902-19.44-54.06-1.968-34.267-2.409-86.238 2.652-53.883 12.748-34.426 6.877-84.578 26.259-49.823 27.66-32.244 16.452-76.161 49.529-41.24 41.27-27.13 25.291-60.87 70.187 34.097 30.036 23.03 19.013 49.177 48.246 24.52-33.386 14.27-21.468 44.24-52.287 7.178 34.84 6.15 22.362 5.332 54.761C89.44 5.29 94.165-3.865 77.997 19.135"/><path d="M626.776-210.958c-24.15 29.753-14.111 18.19-43.336 50.299 50.402 68.937 61.607 90.338 86.212 175.53-60.54 15.13-82.053 19.855-172.721 35.834 6.676 37.52 4.969 23.745 6.96 59.974l-213.468-1.205c-1.668-28.193-3.909-35.61-15.456-59.762C360.52 30.522 386.12 23.703 475.654-6.043c-18.903-31.372-10.842-19.888-34.682-50.266C343.159-4.34 283.858 21.248 168.539 46.71c-24.881 3.685-72.924 12.576-113.75 5.284m670.957 173.82c-32.29-10.379-19.062-6.325-57.179-17.618-25.547 84.922-36.963 106.199-88.176 174.708-52.097-49.049-71.864-62.948-141.295-105.837-26.575 25.805-15.713 16.657-46.962 40.204-63.499-50.635-84.472-65.034-161.997-103.356m0-.006c24.202-16.65 29.574-22.824 44.16-44.824"/><path d="M274.297 169.086c-59.986-11.952-38.736-8.082-92.144-16.539 8.911-17.611 10.644-23.014 12.141-43.645l-77.585-.494c-1.318 17.874-2.887 22.56-10.704 37.664-7.415.131-42.407-.014-57.06 4.054m119.239 81.861c28.012-2.645 35.869-4.653 61.95-18.085"/><path d="M230.136 213.909c-49.532-19.895-30.965-13.413-81.077-28.812"/><path d="M149.059 185.097c18.066-11.997 22.12-16.486 33.094-32.55"/><path d="M182.157 152.547c-48.557-5.416-31.209-4.001-76.147-6.476-9.716 13.9-13.255 17.71-29.14 27.996l-17.987.632M39.037 579.053c66.715-95.636 96.975-142.506 106.842-247.369-43.791-25.956-58.76-34.735-99.13-90.957-26.47 29.062-15.292 18.124-49.718 47.897 33.233 45.205 19.3 29.095 60.079 70.76 39.698-67.358 39.79-81.277 39.237-120.842-8.061-26.732-3.447-17.473-19.352-40.776m91.19 34.222c-38.525-23.633-23.524-15.953-65.173-34.136m-.008-.001c20.815-1.731 26.622-3.139 46.052-12.754"/><path d="M149.057 185.097c-45.063-9.299-28.572-6.897-72.192-11.036-11.304 5.442-8.002 4.06-14.877 6.377m1.543 2.185c62.61 6.772 84.651 17.683 136.971 44.231 67.665 43.547 84.842 59.928 135.317 118.006 36.706-15.183 23.715-8.951 56.321-27.595 80.465 74.426 106.072 108.443 144.221 199.565M338.456-125.082c-36.95 41.526-22.074 26.47-64.336 65.91-26.833-6.852-16.373-4.976-45.407-8.51-52.446 53.708-69.26 63.389-124.698 86.752-15.37.506-9.781.013-24.288 2.336"/><path d="M79.719 21.4c35.533-16.493 22.522-8.826 56.928-32.695 40.917-40.296 51.918-55.137 74.552-123.395M65.81 201.148c-14.105-27.16-9.57-16.973-19.352-44.521-12.213 12.26-6.13 7.535-27.544 20.724 14.085 39.282 7.567 24.791 27.828 63.382 15.983-25.199 11.811-16.156 19.068-39.585ZM689.3-111.538c-57.567 39.493-88.513 58.92-213.652 105.494 15.594 34.966 10.605 21.968 21.276 56.75C392.533 67.21 149.682 101.32 45.344 84.123m-316.578 22.942 280.823 1.264c3.17-41.817.711-26.009 10.097-68.93C40.956 52.685 34.918 47.946 47 60.2l1.727 8.286m690.504 43.37-235.344-1.171c-2.399 36.215-.541 22.467-7.633 59.907-104.463-17.696-346.457-54.511-451.356-38.861m641.906 203.027c-75.805-53.09-118.14-71.359-212.46-107.634-19.259 31.201-11.073 19.796-35.243 49.937-75.739-41.335-99.342-52.425-183.867-82.875-53.441-15.972-138.823-40.362-201.32-30.076"/></g><path stroke="#4408E1" stroke-miterlimit="10" d="m32.078 437.462-63.894-.356 4.06-724.023 511.157 2.85-4.053 724.029-447.27-2.5Z"/></mask><g mask="url(#c)"><path fill="url(#d)" d="M0 0h328v220H0V0Z"/></g></g><defs><linearGradient id="d" x1="143.5" x2="143.5" y1="0" y2="220" gradientUnits="userSpaceOnUse"><stop stop-color="#100B1D" stop-opacity="0"/><stop offset=".245" stop-color="#4408E1" stop-opacity=".3"/><stop offset=".47" stop-color="#4408E1" stop-opacity=".5"/><stop offset=".745" stop-color="#4408E1" stop-opacity=".3"/><stop offset="1" stop-color="#100B1D" stop-opacity="0"/></linearGradient><clipPath id="a"><path fill="#fff" d="M0 0h328v220H0z"/></clipPath></defs></svg>