<svg xmlns="http://www.w3.org/2000/svg" width="328" height="220" fill="none"><g clip-path="url(#a)"><mask id="c" width="1012" height="1019" x="-272" y="-400" maskUnits="userSpaceOnUse" style="mask-type:alpha"><mask id="b" width="451" height="301" x="4" y="-41" maskUnits="userSpaceOnUse" style="mask-type:luminance"><path fill="#fff" d="M454.859-40.62h-450v300h450v-300Z"/></mask><g stroke="#fff" stroke-miterlimit="10" mask="url(#b)"><path d="m19.25 216.579-15.85 4.6-7.52-4.6m38.41-4.37-15.04 4.37m-.39-12.47-14.68 3.95-7-3.95m68.8 12.47-14.6 4.6-8.76-4.6m0 0-8.33-4.37m14.31-4.15-14.31 4.15-7.9-4.15m0 0-7.53-3.95m13.99-3.77-13.99 3.77-7.17-3.77m0 0-6.85-3.59m75 15.46-13.86 4.37m-3.77-12.47-13.61 3.95m-2.41-11.31-13.34 3.59m79.87 16.24-13.36 4.6-10.01-4.6m0 0-9.51-4.37m13.18-4.15-13.18 4.15-9.03-4.15m-.001 0-8.6-3.95m12.961-3.77-12.96 3.77-8.2-3.77m0 0-7.82-3.59m12.75-3.43-12.75 3.43-7.46-3.43m0 0-7.14-3.28m93.799 22.17-12.67 4.37m-7.169-12.47-12.53 3.95m-5.48-11.31-12.37 3.59m-4.05-10.3-12.18 3.28m100.51 23.26-12.1 4.6-11.27-4.6m.001 0-10.69-4.37m12.049-4.149-12.05 4.15-10.16-4.15m.001-.001-9.68-3.95m11.949-3.769-11.95 3.77-9.21-3.77m0-.001-8.8-3.59m11.82-3.43-11.82 3.43-8.39-3.43m0 0-8.03-3.28m11.66-3.13-11.66 3.13-7.68-3.13m0 0-7.35-3.01m114.851 28.31-11.49 4.37m-10.55-12.47-11.46 3.95m-8.549-11.31-11.39 3.59m-6.851-10.3-11.29 3.28m-5.41-9.42-11.17 3.01M206.18 216.58l-10.85 4.6-12.51-4.6m-.001 0-11.88-4.37m10.921-4.15-10.92 4.15-11.29-4.15m0-.001-10.75-3.95m10.92-3.769-10.92 3.77-10.24-3.77m.001 0-9.77-3.59m10.889-3.431-10.89 3.43-9.32-3.43m0 .001-8.92-3.28m10.809-3.13-10.81 3.13-8.53-3.13m0-.001-8.17-3.01m10.7-2.879-10.7 2.88-7.84-2.88m.001 0-7.52-2.76m137.89 33.95-10.3 4.37m-13.929-12.471-10.39 3.95M170.24 196.75l-10.42 3.59m-9.639-10.3-10.4 3.28m-7.97-9.421-10.35 3.01m-6.541-8.649-10.27 2.76m148.269 35.56-9.61 4.6-13.76-4.6m.001 0-13.07-4.37m9.8-4.15-9.8 4.15-12.41-4.15m0-.001-11.82-3.95m9.9-3.769-9.9 3.77-11.26-3.77m0 0-10.75-3.59m9.96-3.431-9.96 3.43-10.25-3.43m0 .001-9.81-3.28m9.949-3.13-9.95 3.13-9.38-3.13m.002-.001-8.99-3.01m9.918-2.879-9.92 2.88-8.62-2.88m.001 0-8.27-2.76m9.87-2.66-9.87 2.66-7.94-2.66m0 0-7.63-2.55m162.682 39.16-9.11 4.37m-17.331-12.471-9.31 3.95M211.59 196.75l-9.44 3.59m-12.439-10.3-9.51 3.28m-10.53-9.421-9.54 3.01m-8.881-8.649-9.52 2.76m-7.459-7.97-9.48 2.55m174.86 40.979-8.35 4.6-15.02-4.6m0 0-14.25-4.37m8.669-4.149-8.67 4.15-13.54-4.15m0-.001-12.9-3.95m8.881-3.77-8.88 3.77-12.28-3.77m-.001 0-11.72-3.59m9.02-3.43-9.02 3.43-11.19-3.43m.001 0-10.69-3.28m9.1-3.13-9.1 3.13-10.24-3.13m-.001 0-9.8-3.01m9.141-2.879-9.14 2.88-9.4-2.88m-.001-.001-9.02-2.76m9.15-2.659-9.15 2.66-8.66-2.66m.001-.001-8.32-2.55m9.119-2.449-9.12 2.45-8.01-2.45m.001-.001-7.7-2.36m189.019 43.97-7.93 4.37m-20.709-12.47-8.24 3.95m-17.76-11.31-8.47 3.59m-15.23-10.3-8.63 3.28m-13.08-9.42-8.72 3.01m-11.23-8.65-8.77 2.76m-9.631-7.97-8.78 2.55m-8.239-7.36-8.77 2.36m202.991 45.98-7.101 4.6-16.26-4.6m.001.001-15.44-4.37m7.538-4.15-7.54 4.15-14.67-4.15m.001-.001-13.97-3.95m7.86-3.769-7.86 3.77-13.3-3.77m0 0-12.7-3.59m8.089-3.431-8.09 3.43-12.12-3.43m0 0-11.58-3.28m8.25-3.13-8.25 3.13-11.09-3.13m.001 0-10.62-3.01m8.361-2.879-8.36 2.88-10.18-2.88m0 0-9.77-2.76m8.419-2.66-8.42 2.66-9.38-2.66m.001 0-9.02-2.55m8.46-2.45-8.46 2.45-8.67-2.45m-.002-.001-8.35-2.36m8.461-2.279-8.46 2.28-8.04-2.28m0 0-7.75-2.19m185.92 40.339-7.17 3.95m-20.83-11.309-7.49 3.59m-18.03-10.301-7.74 3.28m-15.641-9.42-7.9 3.01m-13.579-8.649-8.02 2.76m-11.789-7.97-8.1 2.55m-10.231-7.361-8.13 2.36m-8.87-6.829-8.15 2.19"/><path d="m2.86 197.249 150.089-37.64 314.84 82.73M19.25 2.18 3.4-2.43l-7.52 4.61m38.41 4.36L19.25 2.18m-.39 12.47L4.18 10.69l-7 3.96m68.8-12.47-14.6-4.61-8.76 4.61m0 0-8.33 4.36m14.31 4.15L34.29 6.54l-7.9 4.15m0 0-7.53 3.96m13.99 3.76-13.99-3.76-7.17 3.76m0 0L4.84 22m75-15.46L65.98 2.18m-3.77 12.47L48.6 10.69M46.19 22l-13.34-3.59m79.87-16.23L99.36-2.43 89.35 2.18m0 0-9.51 4.36m13.18 4.15L79.84 6.54l-9.03 4.15m-.001 0-8.6 3.96m12.961 3.76-12.96-3.76-8.2 3.76m0 0L46.19 22m12.75 3.43L46.19 22l-7.46 3.43m0 0-7.14 3.28m93.799-22.17-12.67-4.36m-7.169 12.47-12.53-3.96M87.54 22l-12.37-3.59m-4.05 10.3-12.18-3.28M159.45 2.18l-12.1-4.61-11.27 4.61m.001 0-10.69 4.36m12.049 4.15-12.05-4.15-10.16 4.15m.001 0-9.68 3.96m11.949 3.76-11.95-3.76-9.21 3.76m0 0L87.54 22m11.82 3.43L87.54 22l-8.39 3.43m0 0-8.03 3.28m11.66 3.14-11.66-3.14-7.68 3.14m0 0-7.35 3M170.941 6.54l-11.49-4.36m-10.55 12.47-11.46-3.96M128.892 22l-11.39-3.59m-6.851 10.3-11.29-3.28m-5.41 9.42-11.17-3M206.18 2.18l-10.85-4.61-12.51 4.61m-.001 0-11.88 4.36m10.921 4.15-10.92-4.15-11.29 4.15m0 0-10.75 3.96m10.92 3.76-10.92-3.76-10.24 3.76m.001 0-9.77 3.59m10.889 3.43L128.89 22l-9.32 3.43m0 0-8.92 3.28m10.809 3.14-10.81-3.14-8.53 3.14m0 0-8.17 3m10.7 2.88-10.7-2.88-7.84 2.88m.001 0-7.52 2.77M216.48 6.54l-10.3-4.36m-13.929 12.47-10.39-3.96M170.24 22l-10.42-3.59m-9.639 10.3-10.4-3.28m-7.97 9.42-10.35-3m-6.541 8.65-10.27-2.77M252.919 2.18l-9.61-4.61-13.76 4.61m.001 0-13.07 4.36m9.8 4.15-9.8-4.15-12.41 4.15m0 0-11.82 3.96m9.9 3.76-9.9-3.76-11.26 3.76m0 0L170.24 22m9.96 3.43L170.24 22l-10.25 3.43m0 0-9.81 3.28m9.949 3.14-9.95-3.14-9.38 3.14m.002 0-8.99 3m9.918 2.88-9.92-2.88-8.62 2.88m.001 0-8.27 2.77m9.87 2.65-9.87-2.65-7.94 2.65m0 0-7.63 2.55M262.032 6.54l-9.11-4.36m-17.331 12.47-9.31-3.96M211.59 22l-9.44-3.59m-12.439 10.3-9.51-3.28m-10.53 9.42-9.54-3m-8.881 8.65-9.52-2.77m-7.459 7.97-9.48-2.55m174.86-40.97-8.35-4.61-15.02 4.61m0 0-14.25 4.36m8.669 4.15-8.67-4.15-13.54 4.15m0 0-12.9 3.96m8.881 3.76-8.88-3.76-12.28 3.76m-.001 0L211.59 22m9.02 3.43L211.59 22l-11.19 3.43m.001 0-10.69 3.28m9.1 3.14-9.1-3.14-10.24 3.14m-.001 0-9.8 3m9.141 2.88-9.14-2.88-9.4 2.88m-.001 0-9.02 2.77m9.15 2.65-9.15-2.65-8.66 2.65m.001 0-8.32 2.55m9.119 2.45-9.12-2.45-8.01 2.45m.001 0-7.7 2.37M307.58 6.54l-7.93-4.36m-20.709 12.47-8.24-3.96M252.941 22l-8.47-3.59m-15.23 10.3-8.63-3.28m-13.08 9.42-8.72-3m-11.23 8.65-8.77-2.77m-9.631 7.97-8.78-2.55m-8.239 7.37-8.77-2.37M346.382 2.18l-7.101-4.61-16.26 4.61m.001 0-15.44 4.36m7.538 4.15-7.54-4.15-14.67 4.15m.001 0-13.97 3.96m7.86 3.76-7.86-3.76-13.3 3.76m0 0-12.7 3.59m8.089 3.43L252.94 22l-12.12 3.43m0 0-11.58 3.28m8.25 3.14-8.25-3.14-11.09 3.14m.001 0-10.62 3m8.361 2.88-8.36-2.88-10.18 2.88m0 0-9.77 2.77m8.419 2.65-8.42-2.65-9.38 2.65m.001 0-9.02 2.55m8.46 2.45-8.46-2.45-8.67 2.45m-.002 0-8.35 2.37m8.461 2.27-8.46-2.27-8.04 2.27m0 0-7.75 2.19m185.92-40.33-7.17-3.96M294.291 22l-7.49-3.59m-18.03 10.3-7.74-3.28m-15.641 9.42-7.9-3m-13.579 8.65-8.02-2.77m-11.789 7.97-8.1-2.55m-10.231 7.37-8.13-2.37m-8.87 6.83-8.15-2.19"/><path d="m2.86 21.5 150.089 37.64 314.84-82.72m-314.84 183.19V59.14m-16.58 104.629V54.979M118.561 168.24V50.52M99.35 173.05V45.7M78.59 178.26V40.5m-22.5 143.4V34.85m-24.5 155.19L32.92 28.1m135.85 135.669V54.979m17 113.261V50.52m18.33 122.53V45.7m19.81 132.56V40.5m21.481 143.4V34.85m23.379 155.19V28.71m25.519 168.039-1.25-175.35m29.25 182.71V14.649M454.861-20.19l-301.91 79.33m301.91-46.94-301.91 59.5m301.91-27.11-301.91 39.67m301.91-7.27-301.91 19.83m301.91 12.56h-301.91m301.91 32.389-301.91-19.83m301.91 52.22-301.91-39.67m301.91 72.061-301.91-59.5m301.91 91.889-301.91-79.33M4.84 43.85 152.95 71.7M4.84 65.69l148.11 18.57M4.84 87.53l148.11 9.29M4.84 109.38h148.11M4.84 131.219l148.11-9.28M4.84 153.059l148.11-18.57M4.84 174.91l148.11-27.86"/></g></mask><g mask="url(#c)"><path fill="url(#d)" d="M0 0h328v220H0V0Z"/></g></g><defs><linearGradient id="d" x1="143.5" x2="143.5" y1="0" y2="220" gradientUnits="userSpaceOnUse"><stop stop-color="#100B1D" stop-opacity="0"/><stop offset=".245" stop-color="#4408E1" stop-opacity=".3"/><stop offset=".47" stop-color="#4408E1" stop-opacity=".5"/><stop offset=".745" stop-color="#4408E1" stop-opacity=".3"/><stop offset="1" stop-color="#100B1D" stop-opacity="0"/></linearGradient><clipPath id="a"><path fill="#fff" d="M0 0h328v220H0z"/></clipPath></defs></svg>