<svg xmlns="http://www.w3.org/2000/svg" width="328" height="220" fill="none"><g clip-path="url(#a)"><mask id="c" width="1012" height="1019" x="-272" y="-400" maskUnits="userSpaceOnUse" style="mask-type:alpha"><g stroke="#fff" stroke-miterlimit="10" clip-path="url(#b)"><path d="M340.5-40.5h-450v300h450v-300Z"/><path d="M284.731 90.91h-55.77v37.18h55.77V90.91ZM-109.5 259.5l338.46-131.41M-109.5-40.5 228.96 90.91M340.5-40.5 284.73 90.91m0 37.18L340.5 259.5M219.83 131.63h66.41m-76.699 4h78.39m-89.941 4.48h91.84m-104.869 5.07h107.02m-121.86 5.759h124.18M153.08 157.55h144.15m-163.919 7.679h167.18m-190.389 9.011h194.22M82.46 184.97h226.411M48.99 197.96h265.39M7.63 214.02h313.571M219.83 87.37h66.41m-76.699-4h78.39m-89.941-4.48h91.84m-104.869-5.07h107.02m-121.86-5.76h124.18M153.08 61.45h144.15m-163.919-7.68h167.18m-190.389-9.01h194.22M82.46 34.03h226.411M48.99 21.04h265.39M7.63 4.98h313.571M7.63 214.02V4.98m41.36 192.98V21.04m33.47 163.93V34.03m27.642 140.21V44.76m23.209 120.471V53.771M153.08 157.55v-96.1m17.041 89.491v-82.88m14.84 77.119V73.83m13.029 66.28V78.89m11.551 56.74V83.37m10.289 48.26V87.37m66.41 44.26V87.37m1.69 48.26V83.37m1.9 56.74V78.89m2.15 66.29V73.82m2.321 77.12V68.06m2.929 89.49v-96.1m3.26 103.78V53.77m3.83 120.47V44.76m4.551 140.21V34.03m5.51 163.93V21.04m6.82 192.98V4.98M-77.36 259.5l310.311-131.41M-45.209 259.5l282.14-131.41M-13.07 259.5l253.98-131.41M19.07 259.5 244.9 128.09M51.21 259.5l197.671-131.41M83.361 259.5l169.56-131.45M115.5 259.5l141.39-131.45M147.641 259.5l113.27-131.51m-81.12 131.51 85.09-131.51M211.93 259.501l56.88-131.44M244.07 259.5l28.71-131.42m3.431 131.42.55-131.41M308.36 259.5l-27.62-131.45M-77.36-40.5 232.952 90.91M-45.209-40.5l282.14 131.41M-13.07-40.5 240.91 90.91M19.07-40.5 244.9 90.91M51.21-40.5 248.882 90.91M83.361-40.5l169.56 131.45M115.5-40.5 256.89 90.95M147.641-40.5l113.27 131.51M179.791-40.5l85.09 131.51M211.93-40.5l56.88 131.44M244.07-40.5l28.71 131.42m3.431-131.42.55 131.41M308.36-40.5 280.74 90.95m3.99 32.49L340.5 222m-55.77-103.21 55.78 65.71m-55.78-70.35L340.51 147m-55.78-37.5h55.78m-55.78-4.65L340.52 72m-55.79 28.21 55.79-65.71m-55.79 61.06L340.52-3M-109.5-3l338.46 98.56M-109.5 34.5l338.46 65.71M-109.5 72l338.46 32.85m-338.46 4.65h338.46M-109.5 147l338.46-32.85M-109.5 184.5l338.46-65.71M-109.5 222l338.46-98.56"/></g></mask><g mask="url(#c)"><path fill="url(#d)" d="M0 0h328v220H0V0Z"/></g></g><defs><clipPath id="a"><path fill="#fff" d="M0 0h328v220H0z"/></clipPath><clipPath id="b"><path fill="#fff" d="M-110-41h451v301h-451z"/></clipPath><linearGradient id="d" x1="143.5" x2="143.5" y1="0" y2="220" gradientUnits="userSpaceOnUse"><stop stop-color="#100B1D" stop-opacity="0"/><stop offset=".245" stop-color="#4408E1" stop-opacity=".3"/><stop offset=".47" stop-color="#4408E1" stop-opacity=".5"/><stop offset=".745" stop-color="#4408E1" stop-opacity=".3"/><stop offset="1" stop-color="#100B1D" stop-opacity="0"/></linearGradient></defs></svg>