<svg xmlns="http://www.w3.org/2000/svg" width="1188" height="1188" fill="none"><g clip-path="url(#a)" opacity=".3"><path fill="url(#b)" d="M594.002 1188c-78.143 0-154.796-16-227.823-47.55-70.4-30.41-134.05-73.73-189.178-128.74-55.196-55.074-98.657-118.693-129.18-189.09C16.088 749.447 0 672.528 0 594.002 0 447.2 66.172 296.841 181.558 181.481 296.914 66.149 447.242 0 593.983 0h.015c77.823 0 158.43 16.74 233.113 48.408 73.761 31.276 142.172 77.251 197.839 132.953 53.13 53.174 94.31 117.055 122.38 189.873 26.99 70.018 40.67 144.968 40.67 222.764 0 78.815-13.84 158.395-40.02 230.132-28.39 77.773-69.78 144.211-123.03 197.47-53.832 53.84-120.757 95.88-198.92 124.97-72.833 27.1-153.066 41.43-232.032 41.43h.004Zm0-1186.216C447.721 1.78 297.852 67.736 182.821 182.74 67.767 297.768 1.781 447.667 1.784 594.002c0 155.001 62.677 302.9 176.476 416.448 113.591 113.35 261.239 175.77 415.742 175.77 165.211 0 325.843-62.01 429.688-165.87 103.29-103.305 162.53-258.7 162.53-426.348 0-160.396-57.72-306.491-162.53-411.374C910.534 69.393 749.903 1.788 594.002 1.784Z"/><path fill="url(#c)" d="M604.05 1129.39c-67.13 0-133.842-14.71-198.319-43.71-61.507-27.68-117.812-66.82-167.355-116.358C135.332 866.281 76.308 732.142 76.44 601.293c.061-62.021 15.57-126.014 46.094-190.201 28.728-60.41 70.428-119.013 120.596-169.471 50.343-50.636 108.872-92.71 169.255-121.678 64.527-30.956 129.177-46.685 192.155-46.747h.494c68.435 0 136.017 14.382 200.879 42.75C868.61 143.369 925.44 182.311 974.824 231.7c49.146 49.145 87.876 105.612 115.106 167.833 28.41 64.902 42.78 132.788 42.71 201.764-.08 71.725-10.81 142.747-31.05 205.385-23.53 72.841-59.13 133.533-105.796 180.389-47.508 47.699-108.818 84.399-182.23 109.079-64.469 21.67-136.747 33.17-209.024 33.24h-.49Zm.965-1054.417h-.471c-122.913.123-254.18 61.321-360.147 167.899C138.916 348.967 78.351 479.604 78.227 601.289c-.13 130.378 58.7 264.058 161.412 366.766C341.058 1069.47 473.865 1127.6 604.073 1127.6h.467c158.256-.17 300.401-51.85 389.991-141.8C1081 898.983 1130.69 758.835 1130.86 601.285c.14-133.973-57.19-268.225-157.298-368.334C873.155 132.54 738.838 74.973 605.015 74.973Z"/><path fill="url(#d)" d="M633.025 1082.67h-.738c-114.772-.14-232.237-52.55-322.274-143.787-89.069-90.258-140.072-206.313-139.925-318.413.29-223.605 237.867-461.183 462.195-462.199l1.796-.003c115.56 0 232.368 50.438 320.757 138.576 88.944 88.682 139.844 206.641 139.654 323.626-.1 62.924-9.33 125.045-26.69 179.655-20.46 64.353-51.57 117.649-92.462 158.411-41.8 41.664-95.691 73.724-160.172 95.284-56.444 18.88-119.41 28.85-182.141 28.85Zm1.054-922.622c-.599 0-1.186 0-1.788.004-223.467 1.012-460.129 237.674-460.419 460.414-.146 111.637 50.667 227.236 139.411 317.158 89.702 90.896 206.703 143.106 321.004 143.256h.749c135.92 0 263.352-46.18 341.043-123.615 75.161-74.911 118.391-197.674 118.621-336.806.19-116.514-50.52-234.013-139.123-322.364C865.524 210.298 749.16 160.04 634.079 160.04v.008Z"/><path fill="url(#e)" d="M669.89 1044.45c-49.501 0-98.65-10.73-146.13-31.89-45.767-20.396-87.764-49.417-124.817-86.255-78.233-77.769-123.041-179.16-122.929-278.169.054-47.874 11.775-96.95 34.837-145.86 21.823-46.276 53.505-90.756 91.625-128.628 77.981-77.476 175.681-121.813 268.291-121.813.517 0 1.031 0 1.548.004 99.905.533 200.644 43.881 276.377 118.92 37.286 36.946 66.688 79.337 87.388 125.999 21.64 48.766 32.59 99.7 32.52 151.378-.11 106.153-41.19 205.567-115.644 279.93-74.375 74.284-174.044 115.614-280.641 116.364-.807.01-1.622.01-2.429.01l.004.01Zm2.417-1.8c220.976-1.57 394.273-174.859 394.523-394.514.24-209.035-184.117-393.385-394.519-394.513-.51 0-1.031-.004-1.541-.004-92.15 0-189.382 44.144-267.035 121.295-78.75 78.244-125.829 180.381-125.937 273.226-.112 98.538 44.503 199.466 122.4 276.902 75.88 75.428 175.039 118.218 272.106 117.608h.003Z"/><path fill="url(#f)" d="M719.642 1011.28c-43.495 0-86.191-9.03-126.914-26.851-39.096-17.108-74.49-41.433-105.199-72.301-62.437-62.758-98.244-147.041-98.232-231.244.008-82.457 36.467-166.281 100.028-229.977 63.673-63.809 147.64-100.411 230.368-100.419h.031c86.504 0 168.945 34.741 232.167 97.831 63.329 63.206 98.209 145.798 98.199 232.565-.01 88.543-34.26 171.576-96.43 233.805-62.222 62.275-145.312 96.581-233.967 96.591h-.051Zm.078-659.004h-.031c-171.966.02-328.593 156.646-328.612 328.612-.008 83.731 35.606 167.559 97.715 229.985 62.36 62.681 146.505 98.627 230.854 98.627h.043c181.172-.03 328.591-147.44 328.611-328.612.01-86.288-34.67-168.432-97.672-231.302-62.882-62.751-144.887-97.31-230.908-97.31Z"/><path fill="url(#g)" d="M769.448 979.815c-67.713 0-135.271-28.636-185.378-78.572-50.999-50.825-79.078-116.854-79.07-185.926.008-69.103 27.921-135.086 78.599-185.799 50.705-50.744 116.727-78.692 185.899-78.7h.027c69.13 0 135.205 28.195 186.061 79.395 49.844 50.18 78.424 117.646 78.414 185.104-.02 67.461-28.77 134.973-78.889 185.227-50.23 50.365-117.885 79.255-185.609 79.267h-.046l-.008.004Zm.073-527.209h-.027c-142.388.016-262.694 120.322-262.71 262.711-.008 68.593 27.886 134.174 78.545 184.659 49.771 49.605 116.877 78.051 184.119 78.051h.046c139.925-.027 262.686-122.79 262.706-262.71.02-66.987-28.37-133.997-77.888-183.845-50.516-50.856-116.147-78.866-184.795-78.866h.004Z"/><path fill="url(#h)" d="M814.595 946.634c-48.875 0-98.167-21.062-135.572-58.004-38.684-38.205-60.847-89.455-60.812-140.604.035-52.339 21.92-103.96 60.035-141.616 37.784-37.328 86.949-57.556 138.573-56.977 50.126.572 100.704 22.731 138.762 60.792 38.058 38.062 59.859 88.293 59.819 137.805-.03 48.747-22.352 98.811-61.228 137.36-38.603 38.278-88.663 60.595-137.353 61.232-.737.008-1.483.016-2.224.016v-.004Zm.038-395.432c-50.307 0-98.22 20.004-135.135 56.475-37.78 37.328-59.468 88.481-59.507 140.349-.034 50.678 21.939 101.461 60.283 139.333 37.069 36.614 85.909 57.491 134.317 57.491.734 0 1.464-.004 2.201-.015 101.09-1.325 196.748-96.97 196.828-196.813.08-103.647-91.891-195.615-196.824-196.809-.722-.007-1.444-.011-2.163-.011Z"/><path fill="url(#i)" d="M856.446 908.295c-33.057 0-66.693-14.675-92.328-40.287-25.542-25.518-40.162-59.201-40.116-92.409.05-34.837 13.976-67.963 39.217-93.273 25.298-25.372 58.498-39.371 93.474-39.418h.139c32.667 0 66.076 14.694 91.691 40.325 26.04 26.063 40.935 59.73 40.865 92.37-.065 31.404-15.091 64.523-41.228 90.864-26.303 26.512-59.638 41.754-91.463 41.828h-.251Zm.247-1.785c65.929-.15 130.772-64.994 130.911-130.911.07-32.168-14.636-65.376-40.344-91.107-25.279-25.299-58.232-39.804-90.428-39.804h-.139c-70.86.089-130.81 60.04-130.911 130.911-.046 32.737 14.386 65.96 39.591 91.146 25.303 25.28 58.48 39.765 91.065 39.765h.255Z"/><path fill="url(#j)" d="M884.05 861.435c-16.687 0-33.582-7.303-46.384-20.058-12.845-12.798-20.213-29.829-20.221-46.736-.007-17.617 7.017-34.343 19.78-47.094 12.713-12.702 29.385-19.695 46.948-19.695h.066c16.702.015 33.652 7.418 46.496 20.313 12.945 12.991 20.34 29.932 20.297 46.484-.092 33.594-33.172 66.678-66.789 66.79h-.193v-.004Zm.123-131.803c-17.088 0-33.312 6.808-45.685 19.174-12.423 12.415-19.262 28.693-19.255 45.831.008 16.436 7.183 33.007 19.695 45.473 12.47 12.423 28.906 19.537 45.126 19.537h.189c32.721-.112 64.924-32.312 65.013-65.013.043-16.077-7.163-32.559-19.776-45.218-12.512-12.559-28.998-19.773-45.233-19.788h-.066l-.008.004Z"/><path fill="url(#k)" d="m594.89 1187.17-1.781-.13c7.28-97.61 80.167-146.07 150.657-192.929 70.338-46.759 143.068-95.112 149.857-192.429l1.78.123c-6.851 98.194-79.955 146.791-150.653 193.789-70.134 46.626-142.65 94.836-149.864 191.576h.004Z"/><path fill="url(#l)" d="M726.337 1173.16c-5.746-83.87 29.33-135.21 83.77-186.49 57.178-53.861 96.634-98.646 83.531-184.787l1.765-.267c13.238 87.003-26.496 132.116-84.072 186.355-54.069 50.929-88.91 101.899-83.21 185.079l-1.78.12-.004-.01Z"/><path fill="url(#m)" d="M856.276 1132.62c-19.521-68.41-14.62-116.89 16.915-167.33 36.092-57.722 47.616-94.988 20.498-163.215l1.661-.66c27.403 68.945 15.779 106.566-20.645 164.818-31.238 49.957-36.081 98.027-16.714 165.897l-1.715.49Z"/><path fill="url(#n)" d="M973.219 1065.22c-24.909-40.24-50.667-81.853-43.311-134.485 7.805-55.85-2.17-81.063-36.115-128.471l1.452-1.038c34.254 47.839 44.322 73.3 36.432 129.756-7.268 51.991 18.317 93.328 43.063 133.298l-1.518.94h-.003Z"/><path fill="url(#o)" d="M1067.31 971.515c-30.52-25.912-57.69-54.59-83.966-82.322-27.874-29.419-56.699-59.838-89.393-86.759l1.136-1.378c32.778 26.99 61.638 57.452 89.551 86.909 26.242 27.697 53.382 56.336 83.832 82.187l-1.16 1.359v.004Z"/><path fill="url(#p)" d="M1133.83 856.172c-3.99-1.622-7.98-3.275-11.97-4.924-34.74-14.389-70.66-29.272-109.17-23.063-44.627 7.183-72.13-5.024-113.76-23.503l-4.77-2.116.722-1.629 4.773 2.116c41.341 18.351 68.648 30.473 112.745 23.371 39.02-6.283 75.18 8.693 110.15 23.179 3.98 1.649 7.97 3.302 11.96 4.92l-.68 1.653v-.004Z"/><path fill="url(#q)" d="M943.669 807.695c-14.625 0-30.756-1.943-49.3-5.067l.298-1.761c63.144 10.647 96.351 7.82 138.533-37.29 38.78-41.475 77.7-45.206 140.4-37.621l-.22 1.772c-62.09-7.518-100.62-3.85-138.88 37.066-29.88 31.96-56.11 42.897-90.827 42.897l-.004.004Z"/><path fill="url(#r)" d="m894.577 802.635-.116-1.78c73.78-4.754 111.959-31.744 145.879-103.133 34.76-73.12 71.78-99.519 146.71-104.613l.12 1.781c-74.15 5.043-110.8 31.184-145.21 103.6-34.26 72.088-72.831 99.341-147.383 104.145Z"/><path fill="url(#s)" d="m894.781 802.596-.529-1.703c84.075-26.055 110.548-86.465 138.758-168.965 26.84-78.46 60.94-137.371 140.14-169.868l.67 1.649c-78.57 32.242-112.44 90.794-139.12 168.795-28.39 83.001-55.041 143.786-139.919 170.092Z"/><path fill="url(#t)" d="m894.966 802.515-.9-1.541c78.294-45.646 94.977-124.651 112.634-208.289 1.62-7.651 3.24-15.312 4.91-22.955 17.86-81.766 45-166.196 121.98-229.753l1.14 1.374c-76.56 63.214-103.59 147.305-121.38 228.758-1.67 7.638-3.29 15.296-4.9 22.943-16.966 80.34-34.506 163.415-113.484 209.463Z"/><path fill="url(#u)" d="m895.128 802.396-1.22-1.302c66.744-62.48 73.228-154.499 79.499-243.486 1.02-14.435 2.07-29.361 3.371-43.638 8.168-89.505 25.292-193.152 90.382-283.251l1.45 1.046c-64.84 89.748-81.911 193.102-90.059 282.367-1.301 14.258-2.352 29.176-3.371 43.603-6.295 89.332-12.806 181.706-80.059 244.664l.007-.003Z"/><path fill="url(#v)" d="m895.256 802.249-1.475-1.004c54.181-79.345 46.434-185.625 39.599-279.393-1.386-19.02-2.695-36.989-3.541-54.707-5.132-107.751-3.437-222.331 43.321-330.175l1.638.71c-46.612 107.509-48.296 221.845-43.175 329.38.842 17.699 2.151 35.653 3.537 54.66 6.855 94.058 14.629 200.667-39.904 280.525v.004Z"/><path fill="url(#w)" d="m895.33 802.118-1.622-.742c41.268-90.447 15.49-205.667-7.256-307.325-4.904-21.924-9.538-42.634-13.369-62.484-25.326-131.278-44.075-249.592-16.819-368.133l1.738.397c-27.179 118.206-8.457 236.323 16.83 367.396 3.823 19.826 8.453 40.522 13.358 62.434 22.808 101.932 48.655 217.461 7.14 308.453v.004Z"/><path fill="url(#x)" d="m895.385 801.952-1.734-.41c15.343-64.812-4.739-138.843-19.402-192.896-15.822-58.321-35.853-116.453-55.223-172.673a20337.06 20337.06 0 0 1-9.153-26.604c-4.568-13.33-9.407-27.14-14.084-40.502-38.463-109.864-82.063-234.388-69.447-352.335l1.773.19c-12.57 117.545 30.956 241.868 69.358 351.554 4.68 13.362 9.515 27.179 14.088 40.514 3.039 8.867 6.094 17.734 9.148 26.6 19.383 56.247 39.425 114.41 55.263 172.788 14.713 54.239 34.86 128.521 19.413 193.778v-.004Z"/><path fill="url(#y)" d="m895.411 801.751-1.784-.011c.405-68.412-29.362-139.102-53.278-195.901-27.26-64.736-59.112-128.706-89.918-190.572l-6.63-13.319c-10.454-21.012-21.611-42.303-33.417-64.84C655.968 233.257 594.299 115.549 593.109.9l1.785-.02c1.185 114.221 62.75 231.728 117.066 335.398 11.813 22.545 22.97 43.843 33.435 64.874l6.631 13.319c30.817 61.889 62.685 125.887 89.968 190.676 23.982 56.95 53.826 127.826 53.417 196.604Z"/><path fill="url(#z)" d="M893.651 801.948c-15.768-67.249-52.447-129.224-87.921-189.159l-2.325-3.927c-34.598-58.475-72.054-116.549-108.277-172.711a39957.296 39957.296 0 0 1-17.139-26.592c-11.682-18.147-23.893-36.776-35.698-54.792-70.034-106.836-142.446-217.314-179.871-337.88l1.703-.529C501.47 136.684 573.817 247.054 643.781 353.79c11.81 18.02 24.025 36.649 35.707 54.803 5.707 8.867 11.423 17.726 17.138 26.589 36.232 56.173 73.699 114.262 108.312 172.769l2.325 3.927c35.54 60.051 72.289 122.145 88.122 189.66l-1.738.41h.004Z"/><path fill="url(#A)" d="M893.716 802.137c-51.134-104.832-131.618-198.624-209.453-289.322-22.796-26.565-46.368-54.034-68.342-80.854a30769.524 30769.524 0 0 0-23.167-28.234c-88.257-107.466-179.515-218.593-251.07-339.64l1.537-.908C414.706 184.11 505.922 295.18 594.137 402.596c7.735 9.419 15.462 18.83 23.167 28.233 21.962 26.805 45.526 54.266 68.315 80.824 77.908 90.787 158.469 184.663 209.699 289.704l-1.602.784v-.004Z"/><path fill="url(#B)" d="M893.819 802.303c-73.996-92.196-163.257-175.287-249.584-255.643-27.727-25.808-56.397-52.497-83.94-78.924l-2.707-2.598c-108.984-104.57-221.678-212.7-323.873-327.218l1.332-1.19c102.145 114.464 214.816 222.571 323.777 327.118l2.707 2.599c27.531 26.414 56.197 53.099 83.921 78.904 86.373 80.399 175.684 163.535 249.761 255.832l-1.39 1.116-.004.004Z"/><path fill="url(#C)" d="M893.962 802.442C757.181 693.531 614.31 587.583 476.143 485.126 365.317 402.943 250.715 317.96 139.924 231.943l1.093-1.41c110.775 86.006 225.366 170.981 336.188 253.16 138.179 102.469 281.065 208.421 417.87 317.351l-1.113 1.394v.004Z"/><path fill="url(#D)" d="M894.129 802.551c-155.294-75.093-306.877-163.999-453.471-249.978C318.71 481.049 192.611 407.091 65.014 341.46l.815-1.587C193.469 405.531 319.59 479.5 441.562 551.036c146.563 85.96 298.119 174.847 453.347 249.908l-.776 1.607h-.004Z"/><path fill="url(#E)" d="M894.318 802.616c-117.924-27.333-232.92-78.479-344.132-127.941-31.192-13.871-63.446-28.218-94.927-41.646-23.028-9.82-46.496-19.973-69.192-29.793-119.383-51.652-242.829-105.06-369.288-139.488l.468-1.723c126.581 34.463 250.089 87.899 369.527 139.573 22.696 9.817 46.16 19.974 69.184 29.79 31.493 13.432 63.754 27.778 94.95 41.654 111.135 49.427 226.05 100.538 343.808 127.833l-.402 1.738.004.003Z"/><path fill="url(#F)" d="M894.516 802.639c-120.515-.529-243.1-39.499-361.646-77.186-29.4-9.345-57.17-18.174-85.079-26.492-28.62-8.531-57.162-17.652-87.381-27.31-118.047-37.734-240.115-76.75-359.514-76.757v-1.785c119.677.008 241.88 39.066 360.059 76.842 30.211 9.655 58.742 18.776 87.35 27.303 27.924 8.322 55.702 17.154 85.11 26.504 118.418 37.645 240.871 76.571 361.116 77.101l-.008 1.784-.007-.004Z"/><path fill="url(#G)" d="M812.741 810.792c-43.345 0-87.3-5.476-130.37-10.841l-3.538-.44c-64.588-8.036-129.868-18.895-192.997-29.4-10.122-1.683-20.243-3.367-30.365-5.039-20.194-3.337-41.067-6.975-61.252-10.489-124.875-21.753-254.002-44.248-377.081-26.855l-.251-1.765c123.353-17.432 252.623 5.086 377.637 26.863 20.182 3.514 41.047 7.152 61.236 10.489 10.122 1.672 20.248 3.356 30.37 5.039 63.113 10.501 128.373 21.356 192.923 29.389l3.538.44c70.454 8.774 143.307 17.849 211.734 2.692l.386 1.741c-26.801 5.936-54.262 8.176-81.966 8.176h-.004Z"/><path fill="url(#H)" d="m65.674 856.199-.51-1.711c125.717-37.579 261.61-33.107 393.03-28.778l19.935.653c14.98.479 29.964 1.008 44.943 1.541 54.552 1.927 110.95 3.919 166.448 3.375l2.599-.027c65.948-.649 140.696-1.383 202.018-30.312l.761 1.615c-61.677 29.094-136.631 29.832-202.76 30.481l-2.599.027c-55.521.548-111.953-1.444-166.528-3.375-14.984-.529-29.964-1.059-44.94-1.541l-19.935-.649c-131.274-4.321-267.02-8.789-392.458 28.705l-.004-.004Z"/><path fill="url(#I)" d="m140.851 971.639-.765-1.61c120.731-57.352 250.851-74.46 373.779-87.069 16.93-1.737 34.158-3.398 50.818-5.004 45.268-4.368 92.076-8.883 137.85-15.367l1.016-.142c65.171-9.234 139.04-19.696 190.409-61.391l1.124 1.386c-51.752 42.005-125.879 52.505-191.282 61.773l-1.012.143c-45.812 6.492-92.641 11.006-137.928 15.378-16.656 1.606-33.883 3.267-50.806 5.005-122.774 12.593-252.723 29.678-373.196 86.906l-.007-.008Z"/><path fill="url(#J)" d="m234.917 1065.46-1.069-1.43c91.814-68.904 197.075-103.436 326.877-134.087 19.244-4.545 39.032-8.658 59.982-13.01 96.664-20.093 206.223-42.866 273.156-115.792l1.313 1.204c-67.319 73.351-177.179 96.186-274.106 116.333-20.935 4.352-40.711 8.461-59.935 13.003-129.587 30.601-234.651 65.06-326.218 133.779Z"/><path fill="url(#K)" d="m343.14 1132.95-1.37-1.14c72.984-87.97 175.642-130.68 274.535-166.883 13.531-4.955 27.202-9.689 41.672-14.702 87.813-30.423 187.344-64.901 235.774-148.922l1.545.892c-48.759 84.596-148.625 119.194-236.732 149.718-14.462 5.012-28.125 9.743-41.642 14.694-98.665 36.123-201.072 78.723-273.774 166.343h-.008Z"/><path fill="url(#L)" d="m464.09 1173.45-1.641-.7c39.769-92.9 121.307-139.3 215.898-186.228 6.097-3.024 12.245-6.04 18.413-9.067 82.658-40.549 168.131-82.484 196.901-175.975l1.707.526c-28.998 94.227-114.823 136.333-197.82 177.051a4291.911 4291.911 0 0 0-18.406 9.064c-94.27 46.769-175.522 92.989-215.052 185.329Z"/></g><defs><radialGradient id="b" cx="0" cy="0" r="1" gradientTransform="translate(858.126 780.418) scale(446.292)" gradientUnits="userSpaceOnUse"><stop offset=".04"/><stop offset=".17" stop-color="#070707"/><stop offset=".37" stop-color="#1B1B1B"/><stop offset=".61" stop-color="#3C3C3C"/><stop offset=".88" stop-color="#696969"/><stop offset="1" stop-color="gray"/></radialGradient><radialGradient id="c" cx="0" cy="0" r="1" gradientTransform="translate(858.125 780.418) scale(446.296)" gradientUnits="userSpaceOnUse"><stop offset=".04"/><stop offset=".17" stop-color="#070707"/><stop offset=".37" stop-color="#1B1B1B"/><stop offset=".61" stop-color="#3C3C3C"/><stop offset=".88" stop-color="#696969"/><stop offset="1" stop-color="gray"/></radialGradient><radialGradient id="d" cx="0" cy="0" r="1" gradientTransform="translate(858.125 780.418) scale(446.296)" gradientUnits="userSpaceOnUse"><stop offset=".04"/><stop offset=".17" stop-color="#070707"/><stop offset=".37" stop-color="#1B1B1B"/><stop offset=".61" stop-color="#3C3C3C"/><stop offset=".88" stop-color="#696969"/><stop offset="1" stop-color="gray"/></radialGradient><radialGradient id="e" cx="0" cy="0" r="1" gradientTransform="translate(858.125 780.418) scale(446.292)" gradientUnits="userSpaceOnUse"><stop offset=".04"/><stop offset=".17" stop-color="#070707"/><stop offset=".37" stop-color="#1B1B1B"/><stop offset=".61" stop-color="#3C3C3C"/><stop offset=".88" stop-color="#696969"/><stop offset="1" stop-color="gray"/></radialGradient><radialGradient id="f" cx="0" cy="0" r="1" gradientTransform="translate(858.126 780.418) scale(446.292)" gradientUnits="userSpaceOnUse"><stop offset=".04"/><stop offset=".17" stop-color="#070707"/><stop offset=".37" stop-color="#1B1B1B"/><stop offset=".61" stop-color="#3C3C3C"/><stop offset=".88" stop-color="#696969"/><stop offset="1" stop-color="gray"/></radialGradient><radialGradient id="g" cx="0" cy="0" r="1" gradientTransform="translate(858.126 780.419) scale(446.296)" gradientUnits="userSpaceOnUse"><stop offset=".04"/><stop offset=".17" stop-color="#070707"/><stop offset=".37" stop-color="#1B1B1B"/><stop offset=".61" stop-color="#3C3C3C"/><stop offset=".88" stop-color="#696969"/><stop offset="1" stop-color="gray"/></radialGradient><radialGradient id="h" cx="0" cy="0" r="1" gradientTransform="translate(858.125 780.419) scale(446.292)" gradientUnits="userSpaceOnUse"><stop offset=".04"/><stop offset=".17" stop-color="#070707"/><stop offset=".37" stop-color="#1B1B1B"/><stop offset=".61" stop-color="#3C3C3C"/><stop offset=".88" stop-color="#696969"/><stop offset="1" stop-color="gray"/></radialGradient><radialGradient id="i" cx="0" cy="0" r="1" gradientTransform="translate(858.126 780.419) scale(446.292)" gradientUnits="userSpaceOnUse"><stop offset=".04"/><stop offset=".17" stop-color="#070707"/><stop offset=".37" stop-color="#1B1B1B"/><stop offset=".61" stop-color="#3C3C3C"/><stop offset=".88" stop-color="#696969"/><stop offset="1" stop-color="gray"/></radialGradient><radialGradient id="j" cx="0" cy="0" r="1" gradientTransform="translate(858.125 780.418) scale(446.296)" gradientUnits="userSpaceOnUse"><stop offset=".04"/><stop offset=".17" stop-color="#070707"/><stop offset=".37" stop-color="#1B1B1B"/><stop offset=".61" stop-color="#3C3C3C"/><stop offset=".88" stop-color="#696969"/><stop offset="1" stop-color="gray"/></radialGradient><radialGradient id="k" cx="0" cy="0" r="1" gradientTransform="translate(858.125 780.419) scale(446.296)" gradientUnits="userSpaceOnUse"><stop offset=".04"/><stop offset=".17" stop-color="#070707"/><stop offset=".37" stop-color="#1B1B1B"/><stop offset=".61" stop-color="#3C3C3C"/><stop offset=".88" stop-color="#696969"/><stop offset="1" stop-color="gray"/></radialGradient><radialGradient id="l" cx="0" cy="0" r="1" gradientTransform="translate(858.125 780.419) scale(446.292)" gradientUnits="userSpaceOnUse"><stop offset=".04"/><stop offset=".17" stop-color="#070707"/><stop offset=".37" stop-color="#1B1B1B"/><stop offset=".61" stop-color="#3C3C3C"/><stop offset=".88" stop-color="#696969"/><stop offset="1" stop-color="gray"/></radialGradient><radialGradient id="m" cx="0" cy="0" r="1" gradientTransform="translate(858.126 780.418) scale(446.292)" gradientUnits="userSpaceOnUse"><stop offset=".04"/><stop offset=".17" stop-color="#070707"/><stop offset=".37" stop-color="#1B1B1B"/><stop offset=".61" stop-color="#3C3C3C"/><stop offset=".88" stop-color="#696969"/><stop offset="1" stop-color="gray"/></radialGradient><radialGradient id="n" cx="0" cy="0" r="1" gradientTransform="translate(858.125 780.418) scale(446.296)" gradientUnits="userSpaceOnUse"><stop offset=".04"/><stop offset=".17" stop-color="#070707"/><stop offset=".37" stop-color="#1B1B1B"/><stop offset=".61" stop-color="#3C3C3C"/><stop offset=".88" stop-color="#696969"/><stop offset="1" stop-color="gray"/></radialGradient><radialGradient id="o" cx="0" cy="0" r="1" gradientTransform="translate(858.125 780.418) scale(446.296)" gradientUnits="userSpaceOnUse"><stop offset=".04"/><stop offset=".17" stop-color="#070707"/><stop offset=".37" stop-color="#1B1B1B"/><stop offset=".61" stop-color="#3C3C3C"/><stop offset=".88" stop-color="#696969"/><stop offset="1" stop-color="gray"/></radialGradient><radialGradient id="p" cx="0" cy="0" r="1" gradientTransform="translate(858.126 780.419) scale(446.292)" gradientUnits="userSpaceOnUse"><stop offset=".04"/><stop offset=".17" stop-color="#070707"/><stop offset=".37" stop-color="#1B1B1B"/><stop offset=".61" stop-color="#3C3C3C"/><stop offset=".88" stop-color="#696969"/><stop offset="1" stop-color="gray"/></radialGradient><radialGradient id="q" cx="0" cy="0" r="1" gradientTransform="translate(858.126 780.419) scale(446.292)" gradientUnits="userSpaceOnUse"><stop offset=".04"/><stop offset=".17" stop-color="#070707"/><stop offset=".37" stop-color="#1B1B1B"/><stop offset=".61" stop-color="#3C3C3C"/><stop offset=".88" stop-color="#696969"/><stop offset="1" stop-color="gray"/></radialGradient><radialGradient id="r" cx="0" cy="0" r="1" gradientTransform="translate(858.125 780.418) scale(446.296)" gradientUnits="userSpaceOnUse"><stop offset=".04"/><stop offset=".17" stop-color="#070707"/><stop offset=".37" stop-color="#1B1B1B"/><stop offset=".61" stop-color="#3C3C3C"/><stop offset=".88" stop-color="#696969"/><stop offset="1" stop-color="gray"/></radialGradient><radialGradient id="s" cx="0" cy="0" r="1" gradientTransform="translate(858.125 780.418) scale(446.292)" gradientUnits="userSpaceOnUse"><stop offset=".04"/><stop offset=".17" stop-color="#070707"/><stop offset=".37" stop-color="#1B1B1B"/><stop offset=".61" stop-color="#3C3C3C"/><stop offset=".88" stop-color="#696969"/><stop offset="1" stop-color="gray"/></radialGradient><radialGradient id="t" cx="0" cy="0" r="1" gradientTransform="translate(858.125 780.418) scale(446.296)" gradientUnits="userSpaceOnUse"><stop offset=".04"/><stop offset=".17" stop-color="#070707"/><stop offset=".37" stop-color="#1B1B1B"/><stop offset=".61" stop-color="#3C3C3C"/><stop offset=".88" stop-color="#696969"/><stop offset="1" stop-color="gray"/></radialGradient><radialGradient id="u" cx="0" cy="0" r="1" gradientTransform="translate(858.125 780.418) scale(446.296)" gradientUnits="userSpaceOnUse"><stop offset=".04"/><stop offset=".17" stop-color="#070707"/><stop offset=".37" stop-color="#1B1B1B"/><stop offset=".61" stop-color="#3C3C3C"/><stop offset=".88" stop-color="#696969"/><stop offset="1" stop-color="gray"/></radialGradient><radialGradient id="v" cx="0" cy="0" r="1" gradientTransform="translate(858.125 780.418) scale(446.296)" gradientUnits="userSpaceOnUse"><stop offset=".04"/><stop offset=".17" stop-color="#070707"/><stop offset=".37" stop-color="#1B1B1B"/><stop offset=".61" stop-color="#3C3C3C"/><stop offset=".88" stop-color="#696969"/><stop offset="1" stop-color="gray"/></radialGradient><radialGradient id="w" cx="0" cy="0" r="1" gradientTransform="translate(858.126 780.418) scale(446.292)" gradientUnits="userSpaceOnUse"><stop offset=".04"/><stop offset=".17" stop-color="#070707"/><stop offset=".37" stop-color="#1B1B1B"/><stop offset=".61" stop-color="#3C3C3C"/><stop offset=".88" stop-color="#696969"/><stop offset="1" stop-color="gray"/></radialGradient><radialGradient id="x" cx="0" cy="0" r="1" gradientTransform="translate(858.126 780.418) scale(446.292)" gradientUnits="userSpaceOnUse"><stop offset=".04"/><stop offset=".17" stop-color="#070707"/><stop offset=".37" stop-color="#1B1B1B"/><stop offset=".61" stop-color="#3C3C3C"/><stop offset=".88" stop-color="#696969"/><stop offset="1" stop-color="gray"/></radialGradient><radialGradient id="y" cx="0" cy="0" r="1" gradientTransform="translate(858.125 780.419) scale(446.292)" gradientUnits="userSpaceOnUse"><stop offset=".04"/><stop offset=".17" stop-color="#070707"/><stop offset=".37" stop-color="#1B1B1B"/><stop offset=".61" stop-color="#3C3C3C"/><stop offset=".88" stop-color="#696969"/><stop offset="1" stop-color="gray"/></radialGradient><radialGradient id="z" cx="0" cy="0" r="1" gradientTransform="translate(858.126 780.418) scale(446.296)" gradientUnits="userSpaceOnUse"><stop offset=".04"/><stop offset=".17" stop-color="#070707"/><stop offset=".37" stop-color="#1B1B1B"/><stop offset=".61" stop-color="#3C3C3C"/><stop offset=".88" stop-color="#696969"/><stop offset="1" stop-color="gray"/></radialGradient><radialGradient id="A" cx="0" cy="0" r="1" gradientTransform="translate(858.125 780.418) scale(446.296)" gradientUnits="userSpaceOnUse"><stop offset=".04"/><stop offset=".17" stop-color="#070707"/><stop offset=".37" stop-color="#1B1B1B"/><stop offset=".61" stop-color="#3C3C3C"/><stop offset=".88" stop-color="#696969"/><stop offset="1" stop-color="gray"/></radialGradient><radialGradient id="B" cx="0" cy="0" r="1" gradientTransform="translate(858.125 780.418) scale(446.296)" gradientUnits="userSpaceOnUse"><stop offset=".04"/><stop offset=".17" stop-color="#070707"/><stop offset=".37" stop-color="#1B1B1B"/><stop offset=".61" stop-color="#3C3C3C"/><stop offset=".88" stop-color="#696969"/><stop offset="1" stop-color="gray"/></radialGradient><radialGradient id="C" cx="0" cy="0" r="1" gradientTransform="translate(858.125 780.418) scale(446.292)" gradientUnits="userSpaceOnUse"><stop offset=".04"/><stop offset=".17" stop-color="#070707"/><stop offset=".37" stop-color="#1B1B1B"/><stop offset=".61" stop-color="#3C3C3C"/><stop offset=".88" stop-color="#696969"/><stop offset="1" stop-color="gray"/></radialGradient><radialGradient id="D" cx="0" cy="0" r="1" gradientTransform="translate(858.126 780.419) scale(446.292)" gradientUnits="userSpaceOnUse"><stop offset=".04"/><stop offset=".17" stop-color="#070707"/><stop offset=".37" stop-color="#1B1B1B"/><stop offset=".61" stop-color="#3C3C3C"/><stop offset=".88" stop-color="#696969"/><stop offset="1" stop-color="gray"/></radialGradient><radialGradient id="E" cx="0" cy="0" r="1" gradientTransform="translate(858.125 780.419) scale(446.288)" gradientUnits="userSpaceOnUse"><stop offset=".04"/><stop offset=".17" stop-color="#070707"/><stop offset=".37" stop-color="#1B1B1B"/><stop offset=".61" stop-color="#3C3C3C"/><stop offset=".88" stop-color="#696969"/><stop offset="1" stop-color="gray"/></radialGradient><radialGradient id="F" cx="0" cy="0" r="1" gradientTransform="translate(858.126 780.418) scale(446.292)" gradientUnits="userSpaceOnUse"><stop offset=".04"/><stop offset=".17" stop-color="#070707"/><stop offset=".37" stop-color="#1B1B1B"/><stop offset=".61" stop-color="#3C3C3C"/><stop offset=".88" stop-color="#696969"/><stop offset="1" stop-color="gray"/></radialGradient><radialGradient id="G" cx="0" cy="0" r="1" gradientTransform="translate(858.125 780.419) scale(446.296)" gradientUnits="userSpaceOnUse"><stop offset=".04"/><stop offset=".17" stop-color="#070707"/><stop offset=".37" stop-color="#1B1B1B"/><stop offset=".61" stop-color="#3C3C3C"/><stop offset=".88" stop-color="#696969"/><stop offset="1" stop-color="gray"/></radialGradient><radialGradient id="H" cx="0" cy="0" r="1" gradientTransform="translate(858.126 780.419) scale(446.292)" gradientUnits="userSpaceOnUse"><stop offset=".04"/><stop offset=".17" stop-color="#070707"/><stop offset=".37" stop-color="#1B1B1B"/><stop offset=".61" stop-color="#3C3C3C"/><stop offset=".88" stop-color="#696969"/><stop offset="1" stop-color="gray"/></radialGradient><radialGradient id="I" cx="0" cy="0" r="1" gradientTransform="translate(858.125 780.418) scale(446.296)" gradientUnits="userSpaceOnUse"><stop offset=".04"/><stop offset=".17" stop-color="#070707"/><stop offset=".37" stop-color="#1B1B1B"/><stop offset=".61" stop-color="#3C3C3C"/><stop offset=".88" stop-color="#696969"/><stop offset="1" stop-color="gray"/></radialGradient><radialGradient id="J" cx="0" cy="0" r="1" gradientTransform="translate(858.126 780.418) scale(446.296)" gradientUnits="userSpaceOnUse"><stop offset=".04"/><stop offset=".17" stop-color="#070707"/><stop offset=".37" stop-color="#1B1B1B"/><stop offset=".61" stop-color="#3C3C3C"/><stop offset=".88" stop-color="#696969"/><stop offset="1" stop-color="gray"/></radialGradient><radialGradient id="K" cx="0" cy="0" r="1" gradientTransform="translate(858.126 780.418) scale(446.296)" gradientUnits="userSpaceOnUse"><stop offset=".04"/><stop offset=".17" stop-color="#070707"/><stop offset=".37" stop-color="#1B1B1B"/><stop offset=".61" stop-color="#3C3C3C"/><stop offset=".88" stop-color="#696969"/><stop offset="1" stop-color="gray"/></radialGradient><radialGradient id="L" cx="0" cy="0" r="1" gradientTransform="translate(858.125 780.418) scale(446.292)" gradientUnits="userSpaceOnUse"><stop offset=".04"/><stop offset=".17" stop-color="#070707"/><stop offset=".37" stop-color="#1B1B1B"/><stop offset=".61" stop-color="#3C3C3C"/><stop offset=".88" stop-color="#696969"/><stop offset="1" stop-color="gray"/></radialGradient><clipPath id="a"><path fill="#fff" d="M0 0h1188v1188H0z"/></clipPath></defs></svg>