<svg xmlns="http://www.w3.org/2000/svg" width="220" height="42" fill="none">
  <g filter="url(#a)">
    <rect width="42" height="42" x=".5" fill="url(#b)" rx="8"/>
    <rect width="41" height="41" x="1" y=".5" stroke="#fff" stroke-opacity=".1" rx="7.5"/>
    <g clip-path="url(#c)">
      <mask id="d" width="25" height="26" x="9" y="8" maskUnits="userSpaceOnUse" style="mask-type:luminance">
        <path fill="#fff" d="M29.987 20.142c0 4.682-4.992 9.44-9.154 11.475-2.005-.98-4.202-2.592-5.94-4.522l-3.953 3.442c1.642-1.109 2.969-1.223 3.98-.343 1.861 1.672 3.966 3.005 5.913 3.806 5.118-2.105 11.332-7.89 11.332-13.859v-8.093l-4.913 4.28c1.762-1.31 2.674-1.423 2.735-.336v4.15Zm-6.836.998 3.778-2.727-4.664.01-1.432-4.428-1.433 4.427-4.663-.009 3.778 2.727-1.45 4.422 3.768-2.742 3.767 2.742-1.45-4.422Zm-11.473-8.547 9.154-1.857 7.727 1.567L33.5 8l-3.13 1.882c-.56.336-1.412.231-2.373.09l-7.164-1.454-11.333 2.3v9.324c0 2.323.942 4.619 2.394 6.68l4.242-3.695c-1.742 1.295-2.932 1.49-3.57.585-.559-1.163-.887-2.37-.887-3.57v-7.55Z"/>
      </mask>
      <g mask="url(#d)">
        <path fill="#fff" d="M33.5 8h-24v26h24V8Z"/>
      </g>
    </g>
  </g>

  <!-- RedBlue Defence Text -->
  <text x="52" y="20" fill="#fff" font-family="Manrope, sans-serif" font-size="16" font-weight="700">RedBlue</text>
  <text x="52" y="35" fill="#fff" font-family="Manrope, sans-serif" font-size="16" font-weight="700">Defence</text>

  <defs>
    <radialGradient id="b" cx="0" cy="0" r="1" gradientTransform="matrix(0 38.5 -33.5084 0 21.403 39.813)" gradientUnits="userSpaceOnUse">
      <stop stop-color="#8B59FF"/>
      <stop offset="1" stop-color="#530CF8"/>
    </radialGradient>
    <clipPath id="c">
      <path fill="#fff" d="M9.5 8h24v26h-24z"/>
    </clipPath>
    <filter id="a" width="42" height="50" x=".5" y="-4" color-interpolation-filters="sRGB" filterUnits="userSpaceOnUse">
      <feFlood flood-opacity="0" result="BackgroundImageFix"/>
      <feBlend in="SourceGraphic" in2="BackgroundImageFix" result="shape"/>
      <feColorMatrix in="SourceAlpha" result="hardAlpha" values="0 0 0 0 0 0 0 0 0 0 0 0 0 0 0 0 0 0 127 0"/>
      <feOffset dy="4"/>
      <feGaussianBlur stdDeviation="2"/>
      <feComposite in2="hardAlpha" k2="-1" k3="1" operator="arithmetic"/>
      <feColorMatrix values="0 0 0 0 1 0 0 0 0 1 0 0 0 0 1 0 0 0 0.15 0"/>
      <feBlend in2="shape" result="effect1_innerShadow_68776_15503"/>
      <feColorMatrix in="SourceAlpha" result="hardAlpha" values="0 0 0 0 0 0 0 0 0 0 0 0 0 0 0 0 0 0 127 0"/>
      <feOffset dy="-4"/>
      <feGaussianBlur stdDeviation="2"/>
      <feComposite in2="hardAlpha" k2="-1" k3="1" operator="arithmetic"/>
      <feColorMatrix values="0 0 0 0 0.34902 0 0 0 0 0.0784314 0 0 0 0 0.976471 0 0 0 0.7 0"/>
      <feBlend in2="effect1_innerShadow_68776_15503" result="effect2_innerShadow_68776_15503"/>
    </filter>
  </defs>
</svg>
